<svg xmlns="http://www.w3.org/2000/svg" xmlns:xlink="http://www.w3.org/1999/xlink" viewBox="0 0 616.66 283.96"><defs><style>.cls-1{fill:url(#radial-gradient);}.cls-2{fill:url(#linear-gradient);}.cls-3{fill:url(#linear-gradient-2);}.cls-4{fill:url(#linear-gradient-3);}.cls-5{fill:url(#linear-gradient-4);}.cls-6{fill:url(#linear-gradient-5);}.cls-7{fill:url(#linear-gradient-6);}.cls-8{fill:url(#linear-gradient-7);}.cls-9{fill:url(#radial-gradient-10);}.cls-10{fill:url(#radial-gradient-11);}.cls-11{fill:url(#linear-gradient-8);}.cls-12{fill:url(#linear-gradient-9);}.cls-13{fill:url(#linear-gradient-10);}.cls-14{fill:url(#linear-gradient-11);}.cls-15{fill:url(#linear-gradient-12);}.cls-16{fill:url(#linear-gradient-13);}.cls-17{fill:url(#linear-gradient-14);}.cls-18{fill:url(#linear-gradient-15);}.cls-19{fill:url(#linear-gradient-16);}.cls-20{fill:url(#linear-gradient-17);}.cls-21{fill:url(#linear-gradient-18);}.cls-22{fill:url(#linear-gradient-19);}</style><radialGradient id="radial-gradient" cx="85.62" cy="245.71" r="101.3" gradientUnits="userSpaceOnUse"><stop offset="0" stop-color="#ea1a66"/><stop offset="1" stop-color="#b5194f"/></radialGradient><linearGradient id="linear-gradient" x1="196.79" y1="238.74" x2="196.79" y2="168.7" gradientUnits="userSpaceOnUse"><stop offset="0" stop-color="#a76cff"/><stop offset="0.07" stop-color="#9f6bfb"/><stop offset="1" stop-color="#3660c1"/></linearGradient><linearGradient id="linear-gradient-2" x1="217.91" y1="238.74" x2="217.91" y2="168.7" xlink:href="#linear-gradient"/><linearGradient id="linear-gradient-3" x1="240.68" y1="238.74" x2="240.68" y2="168.7" xlink:href="#linear-gradient"/><linearGradient id="linear-gradient-4" x1="262.48" y1="238.74" x2="262.48" y2="168.7" xlink:href="#linear-gradient"/><linearGradient id="linear-gradient-5" x1="283.85" y1="238.74" x2="283.85" y2="168.7" xlink:href="#linear-gradient"/><linearGradient id="linear-gradient-6" x1="302.75" y1="238.74" x2="302.75" y2="168.7" xlink:href="#linear-gradient"/><linearGradient id="linear-gradient-7" x1="321.87" y1="238.74" x2="321.87" y2="168.7" xlink:href="#linear-gradient"/><radialGradient id="radial-gradient-10" cx="442.86" cy="141.98" r="130.68" xlink:href="#radial-gradient"/><radialGradient id="radial-gradient-11" cx="543.85" cy="221.62" r="9.92" xlink:href="#radial-gradient"/><linearGradient id="linear-gradient-8" x1="49.3" y1="251.28" x2="49.3" y2="1.56" xlink:href="#linear-gradient"/><linearGradient id="linear-gradient-9" x1="138.49" y1="251.28" x2="138.49" y2="1.56" xlink:href="#linear-gradient"/><linearGradient id="linear-gradient-10" x1="213" y1="251.28" x2="213" y2="1.56" xlink:href="#linear-gradient"/><linearGradient id="linear-gradient-11" x1="276.31" y1="251.28" x2="276.31" y2="1.56" xlink:href="#linear-gradient"/><linearGradient id="linear-gradient-12" x1="332.73" y1="251.28" x2="332.73" y2="1.56" xlink:href="#linear-gradient"/><linearGradient id="linear-gradient-13" x1="454.54" y1="251.28" x2="454.54" y2="1.56" xlink:href="#linear-gradient"/><linearGradient id="linear-gradient-14" x1="508.04" y1="251.28" x2="508.04" y2="1.56" xlink:href="#linear-gradient"/><linearGradient id="linear-gradient-15" x1="486.23" y1="251.28" x2="486.23" y2="1.56" xlink:href="#linear-gradient"/><linearGradient id="linear-gradient-16" x1="539.48" y1="251.28" x2="539.48" y2="1.56" xlink:href="#linear-gradient"/><linearGradient id="linear-gradient-17" x1="581.1" y1="251.28" x2="581.1" y2="1.56" xlink:href="#linear-gradient"/><linearGradient id="linear-gradient-18" x1="605.31" y1="251.28" x2="605.31" y2="1.56" xlink:href="#linear-gradient"/><linearGradient id="linear-gradient-19" x1="604.92" y1="251.28" x2="604.92" y2="1.56" xlink:href="#linear-gradient"/></defs><g id="Layer_2" data-name="Layer 2"><g id="Layer_2-2" data-name="Layer 2"><path class="cls-1" d="M.53,214.9V195.18H5.74a5.38,5.38,0,0,1,3.7,1.25,4.21,4.21,0,0,1,1.41,3.32,4.9,4.9,0,0,1-.91,3,5,5,0,0,1-2.56,1.77v.06A4.84,4.84,0,0,1,10.61,206a4.54,4.54,0,0,1,1.18,3.22,5.88,5.88,0,0,1-.73,2.92,5.13,5.13,0,0,1-2.09,2,6.66,6.66,0,0,1-3.11.71ZM2,196.48V204H4.67a5,5,0,0,0,3.43-1.1A3.71,3.71,0,0,0,9.37,200q0-3.52-4.18-3.52Zm0,8.85v8.3H5.58a5.11,5.11,0,0,0,3.53-1.1,4,4,0,0,0,1.23-3.15c0-2.7-1.84-4-5.5-4Z"/><path class="cls-1" d="M21,214.9V195.18H30.2v1.3H22.36v7.83h7.27v1.29H22.36v8h8.29v1.27Z"/><path class="cls-1" d="M40.1,214.9V195.18h1.41v18.45h7.91v1.27Z"/><path class="cls-1" d="M59.48,214.9H58.06V195.18h1.42Z"/><path class="cls-1" d="M69.6,214.9V195.18h9.26v1.3H71v7.83h7.27v1.29H71v8h8.29v1.27Z"/><path class="cls-1" d="M95.06,214.9H94l-7.2-19.72h1.58l5.7,15.88a9.33,9.33,0,0,1,.49,1.86h.06a12.5,12.5,0,0,1,.56-1.9l6-15.84h1.52Z"/><path class="cls-1" d="M110.85,214.9V195.18h9.25v1.3h-7.84v7.83h7.27v1.29h-7.27v8h8.29v1.27Z"/><path class="cls-1" d="M144.2,214.9h-1.41V195.18h1.41Z"/><path class="cls-1" d="M168.23,214.9,156.57,199c-.34-.47-.61-.88-.82-1.24h-.05l0,1V214.9h-1.42V195.18h1.14L167,211l.84,1.26H168c0-.64-.08-1.21-.08-1.72V195.18h1.42V214.9Z"/><path class="cls-2" d="M191.55,212.57a7.83,7.83,0,0,0,4.34,1.38,5.53,5.53,0,0,0,3.5-.94,3.82,3.82,0,0,0,.86-4.29,4.2,4.2,0,0,0-1-1.25,25.89,25.89,0,0,0-3-2,19.77,19.77,0,0,1-3-2,5.25,5.25,0,0,1-1.22-1.6,4.89,4.89,0,0,1,.34-4.6,5,5,0,0,1,2.13-1.8,7.24,7.24,0,0,1,3.11-.65,10.55,10.55,0,0,1,3.55.6V197a8.69,8.69,0,0,0-3.73-.81,4.81,4.81,0,0,0-3.17,1,3.19,3.19,0,0,0-1.2,2.59,3.75,3.75,0,0,0,.33,1.7,4.46,4.46,0,0,0,1.13,1.28,25.41,25.41,0,0,0,2.82,1.82,18,18,0,0,1,2.81,1.88,5.58,5.58,0,0,1,1.41,1.69,4.47,4.47,0,0,1,.41,2,4.64,4.64,0,0,1-1.64,3.76,6.69,6.69,0,0,1-4.43,1.38,10.3,10.3,0,0,1-2.38-.33,7.44,7.44,0,0,1-2-.72Z"/><path class="cls-3" d="M224.78,207q0,8.23-7,8.23-6.7,0-6.7-7.92V195.18h1.4v12q0,6.81,5.57,6.81,5.37,0,5.37-6.62V195.18h1.4Z"/><path class="cls-4" d="M247.76,214.24a12.59,12.59,0,0,1-5,1A9.12,9.12,0,0,1,238,214a8.32,8.32,0,0,1-3.24-3.48,11.07,11.07,0,0,1-1.14-5.08,12,12,0,0,1,1.23-5.46,9.06,9.06,0,0,1,3.48-3.79,9.71,9.71,0,0,1,5.09-1.35,12.82,12.82,0,0,1,4.35.74v1.49a10.55,10.55,0,0,0-4.38-.94,8.28,8.28,0,0,0-4.38,1.15,7.69,7.69,0,0,0-2.92,3.25,10.72,10.72,0,0,0-1,4.77,10.11,10.11,0,0,0,1,4.52,7.12,7.12,0,0,0,2.76,3,7.86,7.86,0,0,0,4.08,1.07,10.91,10.91,0,0,0,4.89-1.07Z"/><path class="cls-5" d="M269.56,214.24a12.59,12.59,0,0,1-5,1,9.12,9.12,0,0,1-4.77-1.24,8.32,8.32,0,0,1-3.24-3.48,11.07,11.07,0,0,1-1.14-5.08,12,12,0,0,1,1.23-5.46,9.06,9.06,0,0,1,3.48-3.79,9.71,9.71,0,0,1,5.09-1.35,12.82,12.82,0,0,1,4.35.74v1.49a10.55,10.55,0,0,0-4.38-.94,8.28,8.28,0,0,0-4.38,1.15,7.69,7.69,0,0,0-2.92,3.25,10.72,10.72,0,0,0-1,4.77,10.11,10.11,0,0,0,1,4.52,7.12,7.12,0,0,0,2.76,3,7.86,7.86,0,0,0,4.08,1.07,10.91,10.91,0,0,0,4.89-1.07Z"/><path class="cls-6" d="M279,214.9V195.18h9.26v1.3h-7.85v7.83h7.27v1.29h-7.27v8h8.29v1.27Z"/><path class="cls-7" d="M297.52,212.57a7.81,7.81,0,0,0,4.34,1.38,5.53,5.53,0,0,0,3.5-.94,3.32,3.32,0,0,0,1.18-2.78,3.42,3.42,0,0,0-.32-1.51,4.2,4.2,0,0,0-1-1.25,25.89,25.89,0,0,0-3-2,19.77,19.77,0,0,1-3-2,5.25,5.25,0,0,1-1.22-1.6,4.89,4.89,0,0,1,.34-4.6,4.91,4.91,0,0,1,2.13-1.8,7.24,7.24,0,0,1,3.11-.65,10.55,10.55,0,0,1,3.55.6V197a8.69,8.69,0,0,0-3.73-.81,4.81,4.81,0,0,0-3.17,1,3.19,3.19,0,0,0-1.2,2.59,3.75,3.75,0,0,0,.33,1.7,4.31,4.31,0,0,0,1.13,1.28,25.41,25.41,0,0,0,2.82,1.82,18,18,0,0,1,2.81,1.88,5.39,5.39,0,0,1,1.4,1.69,4.47,4.47,0,0,1,.42,2,4.67,4.67,0,0,1-1.64,3.76,6.69,6.69,0,0,1-4.43,1.38,10.44,10.44,0,0,1-2.39-.33,7.47,7.47,0,0,1-2-.72Z"/><path class="cls-8" d="M316.63,212.57A7.86,7.86,0,0,0,321,214a5.51,5.51,0,0,0,3.5-.94,3.77,3.77,0,0,0,.86-4.29,4,4,0,0,0-1-1.25,25,25,0,0,0-3-2,19.54,19.54,0,0,1-2.95-2,5,5,0,0,1-1.22-1.6,4.45,4.45,0,0,1-.43-2,4.64,4.64,0,0,1,.76-2.58,5,5,0,0,1,2.13-1.8,7.27,7.27,0,0,1,3.11-.65,10.5,10.5,0,0,1,3.55.6V197a8.65,8.65,0,0,0-3.73-.81,4.83,4.83,0,0,0-3.17,1,3.18,3.18,0,0,0-1.19,2.59,3.75,3.75,0,0,0,.33,1.7,4.26,4.26,0,0,0,1.12,1.28,25.41,25.41,0,0,0,2.82,1.82,17.7,17.7,0,0,1,2.82,1.88,5.53,5.53,0,0,1,1.4,1.69,4.47,4.47,0,0,1,.42,2,4.65,4.65,0,0,1-1.65,3.76,6.67,6.67,0,0,1-4.43,1.38,10.37,10.37,0,0,1-2.38-.33,7.57,7.57,0,0,1-2-.72Z"/><path class="cls-9" d="M397.85,153.52c-1.09,1.56-1.84,2.63-2.58,3.71q-21.51,31.72-43,63.44c-1.53,2.26-3.15,4.47-4.85,6.59s-4.33,2.68-6.27,1.08c-1.29-1.06-2.05-3.57-1.92-5.35s1.45-3.62,2.55-5.23q24.14-35.34,48.42-70.58c1.52-2.19,1.53-3.62,0-5.82-16.45-23.91-33.25-47.6-48.92-72A154.71,154.71,0,0,1,325.7,36.16c-3.7-10.75,1.86-21.7,11.57-27.79,1-.62,2.3-1.47,2.54-2.44C341.1.72,345.5.16,349.42.05c1.8,0,4.33,2.23,5.36,4.1,1.33,2.44.29,5.3-2.24,6.77-3.27,1.89-6.74,3-10.51.73a4.09,4.09,0,0,0-3.52.31c-9.65,5.87-13.17,18.52-7.92,29.08,2.75,5.55,6,10.84,9.13,16.19.45.77,1.5,1.91,2,1.79,4.13-.88,5.81,2,7.62,4.68Q363.17,83.8,376.86,104a26.38,26.38,0,0,0,15.72,11.14c9.34,2.4,20.51-2.19,26.86-11.26,9.25-13.2,18.17-26.64,27.44-39.83,1.71-2.44,4.42-4.18,6.69-6.21.54-.48,1.44-.67,1.76-1.24,4-7.09,9.18-13.58,10.69-21.9a21.85,21.85,0,0,0-9.82-22.43,5.28,5.28,0,0,0-4.2,0,9.7,9.7,0,0,1-10.43-1.6c-1.4-1.17-2.12-4.29-1.69-6.19.39-1.68,2.59-3.65,4.37-4.17,3.84-1.1,8.41,1.71,10.3,5.31a8.63,8.63,0,0,0,2.69,2.92c12.28,8.5,15.87,21.26,9.61,34.84-1.4,3-3.15,5.9-4.79,8.82-1.89,3.37-3.88,6.56-4.38,10.65a19.48,19.48,0,0,1-3.41,8q-23.64,35-47.57,69.8a6.28,6.28,0,0,0-.64,7.08c13.92,30.31,28,60.56,46.8,88.25,6,8.89,12.53,17.71,20.08,25.3,9.76,9.8,22,14.71,36.27,11.89,15-2.95,27.57-16.73,28.2-30.7.13-2.77-.52-4.42-3.1-5.95-7-4.11-9.7-12.48-7.32-20.84a17.34,17.34,0,0,1,33.33.09c2.73,9-1.25,17.91-9.68,22.19a5.54,5.54,0,0,0-2.62,3.7c-3,25.3-23.46,43.27-48.58,42.32-15.21-.58-27.29-7.87-37-19-14.22-16.36-25.94-34.52-36-53.69-9.23-17.66-17.73-35.71-26.56-53.59C399.36,156.46,398.76,155.31,397.85,153.52ZM531,221.05c-.06,7.41,5.44,13.29,12.49,13.35a13.2,13.2,0,0,0,.09-26.4C536.92,208,531,214.11,531,221.05Z"/><path class="cls-10" d="M553.4,222.27c0,5.44-3.92,9.58-9.14,9.63-6,.07-10-4.29-10-10.88a9.86,9.86,0,0,1,9.34-9.68C549,211.26,553.39,216.14,553.4,222.27Z"/><path class="cls-11" d="M0,183.59l11.57-85H28l18.66,50.54a42.27,42.27,0,0,1,2.59,14.41q.36-3.54.89-7.5a28.74,28.74,0,0,1,1.71-6.91L70.62,98.57H87l11.58,85H81.25l-5.32-45.11q-.47-4.6-.53-6.49c0-1.26-.06-2.28-.06-3.07l.24-5.79q-.48,3.9-1.24,7.38a60.76,60.76,0,0,1-2,6.91L55.15,183.59H43.46L26.22,137.3a77.87,77.87,0,0,1-3.55-14.05,76.46,76.46,0,0,1,.71,10.51L23,138.37l-5.79,45.22Z"/><path class="cls-12" d="M170.11,157.39H124.42l.25,1.88A17.39,17.39,0,0,0,130,168a13.56,13.56,0,0,0,9.27,3.33,17.26,17.26,0,0,0,9-2.86,26.38,26.38,0,0,0,7.53-6.73l12.58,8.72q-6,7.59-12.45,10.71t-16.19,3.11q-13.95,0-23.28-8.36-9.72-8.73-9.71-22.58A37.55,37.55,0,0,1,108.85,141a30.39,30.39,0,0,1,11.58-15.9,33.09,33.09,0,0,1,19.18-5.55q14.44,0,22.78,10.2,7.85,9.6,7.85,24.28Zm-45.82-11.58h28.27a12.91,12.91,0,0,0-4-9.46,13,13,0,0,0-9.58-4,13.3,13.3,0,0,0-9.72,3.67A18.51,18.51,0,0,0,124.29,145.81Z"/><path class="cls-13" d="M227.24,128.39V91.09H245v91.66H227.24v-8.4a15.43,15.43,0,0,1-7.4,8,22.34,22.34,0,0,1-10.6,2.41q-13.2,0-21-9.93Q181,165.57,181,151.56a35.38,35.38,0,0,1,7.64-22.79q8.15-10.19,20.72-10.18a22.57,22.57,0,0,1,10.42,2.48A17.07,17.07,0,0,1,227.24,128.39ZM198.76,152a19.35,19.35,0,0,0,4.11,12.46,13.31,13.31,0,0,0,11,5.17A12.79,12.79,0,0,0,224.79,164a20.63,20.63,0,0,0,3.68-12.39,19.08,19.08,0,0,0-3.81-12.14,14,14,0,0,0-21.92-.19A20.19,20.19,0,0,0,198.76,152Z"/><path class="cls-14" d="M261.68,159.38V142.12H291v17.26Z"/><path class="cls-15" d="M309.94,184.84V102.37h44.58V116H326.16v18.55h24.5v13.63h-24.5v23h29.35v13.63Z"/><path class="cls-16" d="M462.33,111.61V106.9h9.77v34.48h-9.77V137a9.4,9.4,0,0,1-4.1,4.17,12.47,12.47,0,0,1-5.8,1.39A13.65,13.65,0,0,1,441,136.87a20.94,20.94,0,0,1-4-13,19.16,19.16,0,0,1,4.14-12.27,13.56,13.56,0,0,1,11.05-5.57,13.41,13.41,0,0,1,6.07,1.34A9,9,0,0,1,462.33,111.61Zm-7.59,22.52a7.17,7.17,0,0,0,6-2.93,11.3,11.3,0,0,0,2.24-7.1,10.56,10.56,0,0,0-2.3-6.81,7.38,7.38,0,0,0-6-2.86,7.2,7.2,0,0,0-6,2.86,10.85,10.85,0,0,0-2.23,6.89,11.18,11.18,0,0,0,2.1,6.85A7.41,7.41,0,0,0,454.74,134.13Z"/><path class="cls-17" d="M482.48,140.91V105.29h10.08v4.87a11,11,0,0,1,4.25-4.41,12,12,0,0,1,5.94-1.47,11.65,11.65,0,0,1,5.62,1.43A7.56,7.56,0,0,1,512,109.8a13.45,13.45,0,0,1,11.28-5.52q5.52,0,8.12,4.28,2.18,3.57,2.17,9.6v22.75H523.52V120.78a5.63,5.63,0,0,0,0-1.17,7.8,7.8,0,0,0-.07-1,7.27,7.27,0,0,1-.07-.88c-.42-2.81-1.92-4.21-4.52-4.21a5.05,5.05,0,0,0-1.32.14,10.91,10.91,0,0,0-1.4.58,5.45,5.45,0,0,0-2.43,2.91,13.64,13.64,0,0,0-.63,4.44v19.33H503V118.52a3.6,3.6,0,0,1-.14-.87q-.57-4.14-4.48-4.14a4.77,4.77,0,0,0-4.45,2.29,10.8,10.8,0,0,0-1.37,5.63v19.48Z"/><path class="cls-18" d="M464,210.29V149.88H476.4v6.51a11.12,11.12,0,0,1,5-5.84,15.64,15.64,0,0,1,7.72-1.91,17.28,17.28,0,0,1,14.34,6.78q5,6.35,5,16.07t-4.9,16.33A17.35,17.35,0,0,1,488.93,195a14.86,14.86,0,0,1-7.51-1.89,12,12,0,0,1-5-5.68v22.9Zm22.4-25.93a8.68,8.68,0,0,0,7.38-3.74,14.21,14.21,0,0,0,2.75-8.64,14.37,14.37,0,0,0-2.57-8.64,9,9,0,0,0-7.56-3.83,9.69,9.69,0,0,0-7.81,3.47,13.1,13.1,0,0,0-2.92,8.73,14.33,14.33,0,0,0,2.79,9A9.44,9.44,0,0,0,486.44,184.36Z"/><path class="cls-19" d="M561.64,175.29h-32l.17,1.37a12.76,12.76,0,0,0,3.71,6.35,9.27,9.27,0,0,0,6.5,2.42,11.78,11.78,0,0,0,6.32-2.08,18.86,18.86,0,0,0,5.28-4.89l8.81,6.34a25.74,25.74,0,0,1-8.72,7.78,25.31,25.31,0,0,1-11.34,2.27,23,23,0,0,1-16.31-6.08q-6.81-6.35-6.81-16.42a28.17,28.17,0,0,1,1.48-9,22,22,0,0,1,8.12-11.56,22.52,22.52,0,0,1,13.43-4q10.13,0,16,7.42,5.5,7,5.5,17.66Zm-32.1-8.42h19.8a9.59,9.59,0,0,0-2.79-6.88,9,9,0,0,0-6.72-2.9,9.11,9.11,0,0,0-6.8,2.67A13.73,13.73,0,0,0,529.54,166.87Z"/><path class="cls-20" d="M569.86,193.66v-44.6h9.87v7.56a10.32,10.32,0,0,1,3.32-6.47,8.92,8.92,0,0,1,6-2.36,8,8,0,0,1,1.57.18l1.71.36-1.78,12.75a4.23,4.23,0,0,0-1.57-.64,9.78,9.78,0,0,0-1.92-.18,6.43,6.43,0,0,0-5.69,3.46,9,9,0,0,0-1.37,3.46,33.07,33.07,0,0,0-.27,4.82v21.66Z"/><rect class="cls-21" x="599.72" y="131.99" width="11.17" height="62.31"/><rect class="cls-22" x="593.19" y="149.54" width="23.47" height="9.74"/></g></g></svg>