<svg width="342" height="46" viewBox="0 0 342 46" fill="none" xmlns="http://www.w3.org/2000/svg">
<path d="M0.046875 36V1.875H12C16.1406 1.875 19.2812 2.67188 21.4219 4.26562C23.5625 5.84375 24.6328 8.16406 24.6328 11.2266C24.6328 12.8984 24.2031 14.375 23.3438 15.6562C22.4844 16.9219 21.2891 17.8516 19.7578 18.4453C21.5078 18.8828 22.8828 19.7656 23.8828 21.0938C24.8984 22.4219 25.4062 24.0469 25.4062 25.9688C25.4062 29.25 24.3594 31.7344 22.2656 33.4219C20.1719 35.1094 17.1875 35.9688 13.3125 36H0.046875ZM7.07812 21.1406V30.3516H13.1016C14.7578 30.3516 16.0469 29.9609 16.9688 29.1797C17.9062 28.3828 18.375 27.2891 18.375 25.8984C18.375 22.7734 16.7578 21.1875 13.5234 21.1406H7.07812ZM7.07812 16.1719H12.2812C15.8281 16.1094 17.6016 14.6953 17.6016 11.9297C17.6016 10.3828 17.1484 9.27344 16.2422 8.60156C15.3516 7.91406 13.9375 7.57031 12 7.57031H7.07812V16.1719ZM37.4062 36H30.6094V0H37.4062V36ZM41.9531 23.0859C41.9531 20.5703 42.4375 18.3281 43.4062 16.3594C44.375 14.3906 45.7656 12.8672 47.5781 11.7891C49.4062 10.7109 51.5234 10.1719 53.9297 10.1719C57.3516 10.1719 60.1406 11.2188 62.2969 13.3125C64.4688 15.4062 65.6797 18.25 65.9297 21.8438L65.9766 23.5781C65.9766 27.4688 64.8906 30.5938 62.7188 32.9531C60.5469 35.2969 57.6328 36.4688 53.9766 36.4688C50.3203 36.4688 47.3984 35.2969 45.2109 32.9531C43.0391 30.6094 41.9531 27.4219 41.9531 23.3906V23.0859ZM48.7266 23.5781C48.7266 25.9844 49.1797 27.8281 50.0859 29.1094C50.9922 30.375 52.2891 31.0078 53.9766 31.0078C55.6172 31.0078 56.8984 30.3828 57.8203 29.1328C58.7422 27.8672 59.2031 25.8516 59.2031 23.0859C59.2031 20.7266 58.7422 18.8984 57.8203 17.6016C56.8984 16.3047 55.6016 15.6562 53.9297 15.6562C52.2734 15.6562 50.9922 16.3047 50.0859 17.6016C49.1797 18.8828 48.7266 20.875 48.7266 23.5781ZM69.1641 23.1328C69.1641 19.2422 70.0859 16.1094 71.9297 13.7344C73.7891 11.3594 76.2891 10.1719 79.4297 10.1719C82.2109 10.1719 84.375 11.125 85.9219 13.0312L86.2031 10.6406H92.3438V35.1562C92.3438 37.375 91.8359 39.3047 90.8203 40.9453C89.8203 42.5859 88.4062 43.8359 86.5781 44.6953C84.75 45.5547 82.6094 45.9844 80.1562 45.9844C78.2969 45.9844 76.4844 45.6094 74.7188 44.8594C72.9531 44.125 71.6172 43.1719 70.7109 42L73.7109 37.875C75.3984 39.7656 77.4453 40.7109 79.8516 40.7109C81.6484 40.7109 83.0469 40.2266 84.0469 39.2578C85.0469 38.3047 85.5469 36.9453 85.5469 35.1797V33.8203C83.9844 35.5859 81.9297 36.4688 79.3828 36.4688C76.3359 36.4688 73.8672 35.2812 71.9766 32.9062C70.1016 30.5156 69.1641 27.3516 69.1641 23.4141V23.1328ZM75.9375 23.625C75.9375 25.9219 76.3984 27.7266 77.3203 29.0391C78.2422 30.3359 79.5078 30.9844 81.1172 30.9844C83.1797 30.9844 84.6562 30.2109 85.5469 28.6641V18C84.6406 16.4531 83.1797 15.6797 81.1641 15.6797C79.5391 15.6797 78.2578 16.3438 77.3203 17.6719C76.3984 19 75.9375 20.9844 75.9375 23.625ZM111.305 28.9922C111.305 28.1641 110.891 27.5156 110.062 27.0469C109.25 26.5625 107.938 26.1328 106.125 25.7578C100.094 24.4922 97.0781 21.9297 97.0781 18.0703C97.0781 15.8203 98.0078 13.9453 99.8672 12.4453C101.742 10.9297 104.188 10.1719 107.203 10.1719C110.422 10.1719 112.992 10.9297 114.914 12.4453C116.852 13.9609 117.82 15.9297 117.82 18.3516H111.047C111.047 17.3828 110.734 16.5859 110.109 15.9609C109.484 15.3203 108.508 15 107.18 15C106.039 15 105.156 15.2578 104.531 15.7734C103.906 16.2891 103.594 16.9453 103.594 17.7422C103.594 18.4922 103.945 19.1016 104.648 19.5703C105.367 20.0234 106.57 20.4219 108.258 20.7656C109.945 21.0938 111.367 21.4688 112.523 21.8906C116.102 23.2031 117.891 25.4766 117.891 28.7109C117.891 31.0234 116.898 32.8984 114.914 34.3359C112.93 35.7578 110.367 36.4688 107.227 36.4688C105.102 36.4688 103.211 36.0938 101.555 35.3438C99.9141 34.5781 98.625 33.5391 97.6875 32.2266C96.75 30.8984 96.2812 29.4688 96.2812 27.9375H102.703C102.766 29.1406 103.211 30.0625 104.039 30.7031C104.867 31.3438 105.977 31.6641 107.367 31.6641C108.664 31.6641 109.641 31.4219 110.297 30.9375C110.969 30.4375 111.305 29.7891 111.305 28.9922ZM148.922 36C148.609 35.3906 148.383 34.6328 148.242 33.7266C146.602 35.5547 144.469 36.4688 141.844 36.4688C139.359 36.4688 137.297 35.75 135.656 34.3125C134.031 32.875 133.219 31.0625 133.219 28.875C133.219 26.1875 134.211 24.125 136.195 22.6875C138.195 21.25 141.078 20.5234 144.844 20.5078H147.961V19.0547C147.961 17.8828 147.656 16.9453 147.047 16.2422C146.453 15.5391 145.508 15.1875 144.211 15.1875C143.07 15.1875 142.172 15.4609 141.516 16.0078C140.875 16.5547 140.555 17.3047 140.555 18.2578H133.781C133.781 16.7891 134.234 15.4297 135.141 14.1797C136.047 12.9297 137.328 11.9531 138.984 11.25C140.641 10.5312 142.5 10.1719 144.562 10.1719C147.688 10.1719 150.164 10.9609 151.992 12.5391C153.836 14.1016 154.758 16.3047 154.758 19.1484V30.1406C154.773 32.5469 155.109 34.3672 155.766 35.6016V36H148.922ZM143.32 31.2891C144.32 31.2891 145.242 31.0703 146.086 30.6328C146.93 30.1797 147.555 29.5781 147.961 28.8281V24.4688H145.43C142.039 24.4688 140.234 25.6406 140.016 27.9844L139.992 28.3828C139.992 29.2266 140.289 29.9219 140.883 30.4688C141.477 31.0156 142.289 31.2891 143.32 31.2891ZM166.195 10.6406L166.406 13.5703C168.219 11.3047 170.648 10.1719 173.695 10.1719C176.383 10.1719 178.383 10.9609 179.695 12.5391C181.008 14.1172 181.68 16.4766 181.711 19.6172V36H174.938V19.7812C174.938 18.3438 174.625 17.3047 174 16.6641C173.375 16.0078 172.336 15.6797 170.883 15.6797C168.977 15.6797 167.547 16.4922 166.594 18.1172V36H159.82V10.6406H166.195ZM185.812 23.1328C185.812 19.1797 186.695 16.0312 188.461 13.6875C190.242 11.3438 192.672 10.1719 195.75 10.1719C198.219 10.1719 200.258 11.0938 201.867 12.9375V0H208.664V36H202.547L202.219 33.3047C200.531 35.4141 198.359 36.4688 195.703 36.4688C192.719 36.4688 190.32 35.2969 188.508 32.9531C186.711 30.5938 185.812 27.3203 185.812 23.1328ZM192.586 23.625C192.586 26 193 27.8203 193.828 29.0859C194.656 30.3516 195.859 30.9844 197.438 30.9844C199.531 30.9844 201.008 30.1016 201.867 28.3359V18.3281C201.023 16.5625 199.562 15.6797 197.484 15.6797C194.219 15.6797 192.586 18.3281 192.586 23.625Z" fill="#806BE7"/>
<path d="M254.062 36H247.031L233.344 13.5469V36H226.312V1.875H233.344L247.055 24.375V1.875H254.062V36ZM271.43 36.4688C267.711 36.4688 264.68 35.3281 262.336 33.0469C260.008 30.7656 258.844 27.7266 258.844 23.9297V23.2734C258.844 20.7266 259.336 18.4531 260.32 16.4531C261.305 14.4375 262.695 12.8906 264.492 11.8125C266.305 10.7188 268.367 10.1719 270.68 10.1719C274.148 10.1719 276.875 11.2656 278.859 13.4531C280.859 15.6406 281.859 18.7422 281.859 22.7578V25.5234H265.711C265.93 27.1797 266.586 28.5078 267.68 29.5078C268.789 30.5078 270.188 31.0078 271.875 31.0078C274.484 31.0078 276.523 30.0625 277.992 28.1719L281.32 31.8984C280.305 33.3359 278.93 34.4609 277.195 35.2734C275.461 36.0703 273.539 36.4688 271.43 36.4688ZM270.656 15.6562C269.312 15.6562 268.219 16.1094 267.375 17.0156C266.547 17.9219 266.016 19.2188 265.781 20.9062H275.203V20.3672C275.172 18.8672 274.766 17.7109 273.984 16.8984C273.203 16.0703 272.094 15.6562 270.656 15.6562ZM307.781 26.7891L311.109 10.6406H317.648L311.18 36H305.508L300.703 20.0391L295.898 36H290.25L283.781 10.6406H290.32L293.625 26.7656L298.266 10.6406H303.164L307.781 26.7891ZM334.758 28.9922C334.758 28.1641 334.344 27.5156 333.516 27.0469C332.703 26.5625 331.391 26.1328 329.578 25.7578C323.547 24.4922 320.531 21.9297 320.531 18.0703C320.531 15.8203 321.461 13.9453 323.32 12.4453C325.195 10.9297 327.641 10.1719 330.656 10.1719C333.875 10.1719 336.445 10.9297 338.367 12.4453C340.305 13.9609 341.273 15.9297 341.273 18.3516H334.5C334.5 17.3828 334.188 16.5859 333.562 15.9609C332.938 15.3203 331.961 15 330.633 15C329.492 15 328.609 15.2578 327.984 15.7734C327.359 16.2891 327.047 16.9453 327.047 17.7422C327.047 18.4922 327.398 19.1016 328.102 19.5703C328.82 20.0234 330.023 20.4219 331.711 20.7656C333.398 21.0938 334.82 21.4688 335.977 21.8906C339.555 23.2031 341.344 25.4766 341.344 28.7109C341.344 31.0234 340.352 32.8984 338.367 34.3359C336.383 35.7578 333.82 36.4688 330.68 36.4688C328.555 36.4688 326.664 36.0938 325.008 35.3438C323.367 34.5781 322.078 33.5391 321.141 32.2266C320.203 30.8984 319.734 29.4688 319.734 27.9375H326.156C326.219 29.1406 326.664 30.0625 327.492 30.7031C328.32 31.3438 329.43 31.6641 330.82 31.6641C332.117 31.6641 333.094 31.4219 333.75 30.9375C334.422 30.4375 334.758 29.7891 334.758 28.9922Z" fill="#D5205F"/>
</svg>
