<svg width="593" height="37" viewBox="0 0 593 37" fill="none" xmlns="http://www.w3.org/2000/svg">
<path d="M19.7422 27.0469C19.7422 25.7188 19.2734 24.7031 18.3359 24C17.3984 23.2812 15.7109 22.5312 13.2734 21.75C10.8359 20.9531 8.90625 20.1719 7.48438 19.4062C3.60938 17.3125 1.67188 14.4922 1.67188 10.9453C1.67188 9.10156 2.1875 7.46094 3.21875 6.02344C4.26562 4.57031 5.75781 3.4375 7.69531 2.625C9.64844 1.8125 11.8359 1.40625 14.2578 1.40625C16.6953 1.40625 18.8672 1.85156 20.7734 2.74219C22.6797 3.61719 24.1562 4.85937 25.2031 6.46875C26.2656 8.07812 26.7969 9.90625 26.7969 11.9531H19.7656C19.7656 10.3906 19.2734 9.17969 18.2891 8.32031C17.3047 7.44531 15.9219 7.00781 14.1406 7.00781C12.4219 7.00781 11.0859 7.375 10.1328 8.10938C9.17969 8.82812 8.70312 9.78125 8.70312 10.9688C8.70312 12.0781 9.25781 13.0078 10.3672 13.7578C11.4922 14.5078 13.1406 15.2109 15.3125 15.8672C19.3125 17.0703 22.2266 18.5625 24.0547 20.3438C25.8828 22.125 26.7969 24.3438 26.7969 27C26.7969 29.9531 25.6797 32.2734 23.4453 33.9609C21.2109 35.6328 18.2031 36.4688 14.4219 36.4688C11.7969 36.4688 9.40625 35.9922 7.25 35.0391C5.09375 34.0703 3.44531 32.75 2.30469 31.0781C1.17969 29.4062 0.617188 27.4688 0.617188 25.2656H7.67188C7.67188 29.0312 9.92188 30.9141 14.4219 30.9141C16.0938 30.9141 17.3984 30.5781 18.3359 29.9062C19.2734 29.2188 19.7422 28.2656 19.7422 27.0469ZM46.3203 33.4219C44.6484 35.4531 42.3359 36.4688 39.3828 36.4688C36.6641 36.4688 34.5859 35.6875 33.1484 34.125C31.7266 32.5625 31 30.2734 30.9688 27.2578V10.6406H37.7422V27.0234C37.7422 29.6641 38.9453 30.9844 41.3516 30.9844C43.6484 30.9844 45.2266 30.1875 46.0859 28.5938V10.6406H52.8828V36H46.5078L46.3203 33.4219ZM80.8438 23.5547C80.8438 27.6172 79.9766 30.7891 78.2422 33.0703C76.5078 35.3359 74.0859 36.4688 70.9766 36.4688C68.2266 36.4688 66.0312 35.4141 64.3906 33.3047L64.0859 36H57.9922V0H64.7656V12.9141C66.3281 11.0859 68.3828 10.1719 70.9297 10.1719C74.0234 10.1719 76.4453 11.3125 78.1953 13.5938C79.9609 15.8594 80.8438 19.0547 80.8438 23.1797V23.5547ZM74.0703 23.0625C74.0703 20.5 73.6641 18.6328 72.8516 17.4609C72.0391 16.2734 70.8281 15.6797 69.2188 15.6797C67.0625 15.6797 65.5781 16.5625 64.7656 18.3281V28.3359C65.5938 30.1172 67.0938 31.0078 69.2656 31.0078C71.4531 31.0078 72.8906 29.9297 73.5781 27.7734C73.9062 26.7422 74.0703 25.1719 74.0703 23.0625ZM98.7734 28.9922C98.7734 28.1641 98.3594 27.5156 97.5312 27.0469C96.7188 26.5625 95.4062 26.1328 93.5938 25.7578C87.5625 24.4922 84.5469 21.9297 84.5469 18.0703C84.5469 15.8203 85.4766 13.9453 87.3359 12.4453C89.2109 10.9297 91.6562 10.1719 94.6719 10.1719C97.8906 10.1719 100.461 10.9297 102.383 12.4453C104.32 13.9609 105.289 15.9297 105.289 18.3516H98.5156C98.5156 17.3828 98.2031 16.5859 97.5781 15.9609C96.9531 15.3203 95.9766 15 94.6484 15C93.5078 15 92.625 15.2578 92 15.7734C91.375 16.2891 91.0625 16.9453 91.0625 17.7422C91.0625 18.4922 91.4141 19.1016 92.1172 19.5703C92.8359 20.0234 94.0391 20.4219 95.7266 20.7656C97.4141 21.0938 98.8359 21.4688 99.9922 21.8906C103.57 23.2031 105.359 25.4766 105.359 28.7109C105.359 31.0234 104.367 32.8984 102.383 34.3359C100.398 35.7578 97.8359 36.4688 94.6953 36.4688C92.5703 36.4688 90.6797 36.0938 89.0234 35.3438C87.3828 34.5781 86.0938 33.5391 85.1562 32.2266C84.2188 30.8984 83.75 29.4688 83.75 27.9375H90.1719C90.2344 29.1406 90.6797 30.0625 91.5078 30.7031C92.3359 31.3438 93.4453 31.6641 94.8359 31.6641C96.1328 31.6641 97.1094 31.4219 97.7656 30.9375C98.4375 30.4375 98.7734 29.7891 98.7734 28.9922ZM120.289 31.0078C121.539 31.0078 122.555 30.6641 123.336 29.9766C124.117 29.2891 124.523 28.375 124.555 27.2344H130.906C130.891 28.9531 130.422 30.5312 129.5 31.9688C128.578 33.3906 127.312 34.5 125.703 35.2969C124.109 36.0781 122.344 36.4688 120.406 36.4688C116.781 36.4688 113.922 35.3203 111.828 33.0234C109.734 30.7109 108.688 27.5234 108.688 23.4609V23.0156C108.688 19.1094 109.727 15.9922 111.805 13.6641C113.883 11.3359 116.734 10.1719 120.359 10.1719C123.531 10.1719 126.07 11.0781 127.977 12.8906C129.898 14.6875 130.875 17.0859 130.906 20.0859H124.555C124.523 18.7734 124.117 17.7109 123.336 16.8984C122.555 16.0703 121.523 15.6562 120.242 15.6562C118.664 15.6562 117.469 16.2344 116.656 17.3906C115.859 18.5312 115.461 20.3906 115.461 22.9688V23.6719C115.461 26.2812 115.859 28.1562 116.656 29.2969C117.453 30.4375 118.664 31.0078 120.289 31.0078ZM149.023 16.9922C148.102 16.8672 147.289 16.8047 146.586 16.8047C144.023 16.8047 142.344 17.6719 141.547 19.4062V36H134.773V10.6406H141.172L141.359 13.6641C142.719 11.3359 144.602 10.1719 147.008 10.1719C147.758 10.1719 148.461 10.2734 149.117 10.4766L149.023 16.9922ZM159.453 36H152.656V10.6406H159.453V36ZM152.258 4.07812C152.258 3.0625 152.594 2.22656 153.266 1.57031C153.953 0.914062 154.883 0.585938 156.055 0.585938C157.211 0.585938 158.133 0.914062 158.82 1.57031C159.508 2.22656 159.852 3.0625 159.852 4.07812C159.852 5.10938 159.5 5.95312 158.797 6.60938C158.109 7.26562 157.195 7.59375 156.055 7.59375C154.914 7.59375 153.992 7.26562 153.289 6.60938C152.602 5.95312 152.258 5.10938 152.258 4.07812ZM187.906 23.5547C187.906 27.6172 187.039 30.7891 185.305 33.0703C183.57 35.3359 181.148 36.4688 178.039 36.4688C175.289 36.4688 173.094 35.4141 171.453 33.3047L171.148 36H165.055V0H171.828V12.9141C173.391 11.0859 175.445 10.1719 177.992 10.1719C181.086 10.1719 183.508 11.3125 185.258 13.5938C187.023 15.8594 187.906 19.0547 187.906 23.1797V23.5547ZM181.133 23.0625C181.133 20.5 180.727 18.6328 179.914 17.4609C179.102 16.2734 177.891 15.6797 176.281 15.6797C174.125 15.6797 172.641 16.5625 171.828 18.3281V28.3359C172.656 30.1172 174.156 31.0078 176.328 31.0078C178.516 31.0078 179.953 29.9297 180.641 27.7734C180.969 26.7422 181.133 25.1719 181.133 23.0625ZM203.773 36.4688C200.055 36.4688 197.023 35.3281 194.68 33.0469C192.352 30.7656 191.188 27.7266 191.188 23.9297V23.2734C191.188 20.7266 191.68 18.4531 192.664 16.4531C193.648 14.4375 195.039 12.8906 196.836 11.8125C198.648 10.7188 200.711 10.1719 203.023 10.1719C206.492 10.1719 209.219 11.2656 211.203 13.4531C213.203 15.6406 214.203 18.7422 214.203 22.7578V25.5234H198.055C198.273 27.1797 198.93 28.5078 200.023 29.5078C201.133 30.5078 202.531 31.0078 204.219 31.0078C206.828 31.0078 208.867 30.0625 210.336 28.1719L213.664 31.8984C212.648 33.3359 211.273 34.4609 209.539 35.2734C207.805 36.0703 205.883 36.4688 203.773 36.4688ZM203 15.6562C201.656 15.6562 200.562 16.1094 199.719 17.0156C198.891 17.9219 198.359 19.2188 198.125 20.9062H207.547V20.3672C207.516 18.8672 207.109 17.7109 206.328 16.8984C205.547 16.0703 204.438 15.6562 203 15.6562ZM238.133 4.40625V10.6406H242.469V15.6094H238.133V28.2656C238.133 29.2031 238.312 29.875 238.672 30.2812C239.031 30.6875 239.719 30.8906 240.734 30.8906C241.484 30.8906 242.148 30.8359 242.727 30.7266V35.8594C241.398 36.2656 240.031 36.4688 238.625 36.4688C233.875 36.4688 231.453 34.0703 231.359 29.2734V15.6094H227.656V10.6406H231.359V4.40625H238.133ZM244.484 23.0859C244.484 20.5703 244.969 18.3281 245.938 16.3594C246.906 14.3906 248.297 12.8672 250.109 11.7891C251.938 10.7109 254.055 10.1719 256.461 10.1719C259.883 10.1719 262.672 11.2188 264.828 13.3125C267 15.4062 268.211 18.25 268.461 21.8438L268.508 23.5781C268.508 27.4688 267.422 30.5938 265.25 32.9531C263.078 35.2969 260.164 36.4688 256.508 36.4688C252.852 36.4688 249.93 35.2969 247.742 32.9531C245.57 30.6094 244.484 27.4219 244.484 23.3906V23.0859ZM251.258 23.5781C251.258 25.9844 251.711 27.8281 252.617 29.1094C253.523 30.375 254.82 31.0078 256.508 31.0078C258.148 31.0078 259.43 30.3828 260.352 29.1328C261.273 27.8672 261.734 25.8516 261.734 23.0859C261.734 20.7266 261.273 18.8984 260.352 17.6016C259.43 16.3047 258.133 15.6562 256.461 15.6562C254.805 15.6562 253.523 16.3047 252.617 17.6016C251.711 18.8828 251.258 20.875 251.258 23.5781ZM283.578 23.0859C283.578 20.5703 284.062 18.3281 285.031 16.3594C286 14.3906 287.391 12.8672 289.203 11.7891C291.031 10.7109 293.148 10.1719 295.555 10.1719C298.977 10.1719 301.766 11.2188 303.922 13.3125C306.094 15.4062 307.305 18.25 307.555 21.8438L307.602 23.5781C307.602 27.4688 306.516 30.5938 304.344 32.9531C302.172 35.2969 299.258 36.4688 295.602 36.4688C291.945 36.4688 289.023 35.2969 286.836 32.9531C284.664 30.6094 283.578 27.4219 283.578 23.3906V23.0859ZM290.352 23.5781C290.352 25.9844 290.805 27.8281 291.711 29.1094C292.617 30.375 293.914 31.0078 295.602 31.0078C297.242 31.0078 298.523 30.3828 299.445 29.1328C300.367 27.8672 300.828 25.8516 300.828 23.0859C300.828 20.7266 300.367 18.8984 299.445 17.6016C298.523 16.3047 297.227 15.6562 295.555 15.6562C293.898 15.6562 292.617 16.3047 291.711 17.6016C290.805 18.8828 290.352 20.875 290.352 23.5781ZM326.961 33.4219C325.289 35.4531 322.977 36.4688 320.023 36.4688C317.305 36.4688 315.227 35.6875 313.789 34.125C312.367 32.5625 311.641 30.2734 311.609 27.2578V10.6406H318.383V27.0234C318.383 29.6641 319.586 30.9844 321.992 30.9844C324.289 30.9844 325.867 30.1875 326.727 28.5938V10.6406H333.523V36H327.148L326.961 33.4219ZM352.883 16.9922C351.961 16.8672 351.148 16.8047 350.445 16.8047C347.883 16.8047 346.203 17.6719 345.406 19.4062V36H338.633V10.6406H345.031L345.219 13.6641C346.578 11.3359 348.461 10.1719 350.867 10.1719C351.617 10.1719 352.32 10.2734 352.977 10.4766L352.883 16.9922ZM374.352 10.6406L374.562 13.5703C376.375 11.3047 378.805 10.1719 381.852 10.1719C384.539 10.1719 386.539 10.9609 387.852 12.5391C389.164 14.1172 389.836 16.4766 389.867 19.6172V36H383.094V19.7812C383.094 18.3438 382.781 17.3047 382.156 16.6641C381.531 16.0078 380.492 15.6797 379.039 15.6797C377.133 15.6797 375.703 16.4922 374.75 18.1172V36H367.977V10.6406H374.352ZM406.695 36.4688C402.977 36.4688 399.945 35.3281 397.602 33.0469C395.273 30.7656 394.109 27.7266 394.109 23.9297V23.2734C394.109 20.7266 394.602 18.4531 395.586 16.4531C396.57 14.4375 397.961 12.8906 399.758 11.8125C401.57 10.7188 403.633 10.1719 405.945 10.1719C409.414 10.1719 412.141 11.2656 414.125 13.4531C416.125 15.6406 417.125 18.7422 417.125 22.7578V25.5234H400.977C401.195 27.1797 401.852 28.5078 402.945 29.5078C404.055 30.5078 405.453 31.0078 407.141 31.0078C409.75 31.0078 411.789 30.0625 413.258 28.1719L416.586 31.8984C415.57 33.3359 414.195 34.4609 412.461 35.2734C410.727 36.0703 408.805 36.4688 406.695 36.4688ZM405.922 15.6562C404.578 15.6562 403.484 16.1094 402.641 17.0156C401.812 17.9219 401.281 19.2188 401.047 20.9062H410.469V20.3672C410.438 18.8672 410.031 17.7109 409.25 16.8984C408.469 16.0703 407.359 15.6562 405.922 15.6562ZM443.047 26.7891L446.375 10.6406H452.914L446.445 36H440.773L435.969 20.0391L431.164 36H425.516L419.047 10.6406H425.586L428.891 26.7656L433.531 10.6406H438.43L443.047 26.7891ZM470.023 28.9922C470.023 28.1641 469.609 27.5156 468.781 27.0469C467.969 26.5625 466.656 26.1328 464.844 25.7578C458.812 24.4922 455.797 21.9297 455.797 18.0703C455.797 15.8203 456.727 13.9453 458.586 12.4453C460.461 10.9297 462.906 10.1719 465.922 10.1719C469.141 10.1719 471.711 10.9297 473.633 12.4453C475.57 13.9609 476.539 15.9297 476.539 18.3516H469.766C469.766 17.3828 469.453 16.5859 468.828 15.9609C468.203 15.3203 467.227 15 465.898 15C464.758 15 463.875 15.2578 463.25 15.7734C462.625 16.2891 462.312 16.9453 462.312 17.7422C462.312 18.4922 462.664 19.1016 463.367 19.5703C464.086 20.0234 465.289 20.4219 466.977 20.7656C468.664 21.0938 470.086 21.4688 471.242 21.8906C474.82 23.2031 476.609 25.4766 476.609 28.7109C476.609 31.0234 475.617 32.8984 473.633 34.3359C471.648 35.7578 469.086 36.4688 465.945 36.4688C463.82 36.4688 461.93 36.0938 460.273 35.3438C458.633 34.5781 457.344 33.5391 456.406 32.2266C455.469 30.8984 455 29.4688 455 27.9375H461.422C461.484 29.1406 461.93 30.0625 462.758 30.7031C463.586 31.3438 464.695 31.6641 466.086 31.6641C467.383 31.6641 468.359 31.4219 469.016 30.9375C469.688 30.4375 470.023 29.7891 470.023 28.9922ZM488.141 36H481.344V0H488.141V36ZM505.414 36.4688C501.695 36.4688 498.664 35.3281 496.32 33.0469C493.992 30.7656 492.828 27.7266 492.828 23.9297V23.2734C492.828 20.7266 493.32 18.4531 494.305 16.4531C495.289 14.4375 496.68 12.8906 498.477 11.8125C500.289 10.7188 502.352 10.1719 504.664 10.1719C508.133 10.1719 510.859 11.2656 512.844 13.4531C514.844 15.6406 515.844 18.7422 515.844 22.7578V25.5234H499.695C499.914 27.1797 500.57 28.5078 501.664 29.5078C502.773 30.5078 504.172 31.0078 505.859 31.0078C508.469 31.0078 510.508 30.0625 511.977 28.1719L515.305 31.8984C514.289 33.3359 512.914 34.4609 511.18 35.2734C509.445 36.0703 507.523 36.4688 505.414 36.4688ZM504.641 15.6562C503.297 15.6562 502.203 16.1094 501.359 17.0156C500.531 17.9219 500 19.2188 499.766 20.9062H509.188V20.3672C509.156 18.8672 508.75 17.7109 507.969 16.8984C507.188 16.0703 506.078 15.6562 504.641 15.6562ZM527.82 4.40625V10.6406H532.156V15.6094H527.82V28.2656C527.82 29.2031 528 29.875 528.359 30.2812C528.719 30.6875 529.406 30.8906 530.422 30.8906C531.172 30.8906 531.836 30.8359 532.414 30.7266V35.8594C531.086 36.2656 529.719 36.4688 528.312 36.4688C523.562 36.4688 521.141 34.0703 521.047 29.2734V15.6094H517.344V10.6406H521.047V4.40625H527.82ZM544.039 4.40625V10.6406H548.375V15.6094H544.039V28.2656C544.039 29.2031 544.219 29.875 544.578 30.2812C544.938 30.6875 545.625 30.8906 546.641 30.8906C547.391 30.8906 548.055 30.8359 548.633 30.7266V35.8594C547.305 36.2656 545.938 36.4688 544.531 36.4688C539.781 36.4688 537.359 34.0703 537.266 29.2734V15.6094H533.562V10.6406H537.266V4.40625H544.039ZM563.82 36.4688C560.102 36.4688 557.07 35.3281 554.727 33.0469C552.398 30.7656 551.234 27.7266 551.234 23.9297V23.2734C551.234 20.7266 551.727 18.4531 552.711 16.4531C553.695 14.4375 555.086 12.8906 556.883 11.8125C558.695 10.7188 560.758 10.1719 563.07 10.1719C566.539 10.1719 569.266 11.2656 571.25 13.4531C573.25 15.6406 574.25 18.7422 574.25 22.7578V25.5234H558.102C558.32 27.1797 558.977 28.5078 560.07 29.5078C561.18 30.5078 562.578 31.0078 564.266 31.0078C566.875 31.0078 568.914 30.0625 570.383 28.1719L573.711 31.8984C572.695 33.3359 571.32 34.4609 569.586 35.2734C567.852 36.0703 565.93 36.4688 563.82 36.4688ZM563.047 15.6562C561.703 15.6562 560.609 16.1094 559.766 17.0156C558.938 17.9219 558.406 19.2188 558.172 20.9062H567.594V20.3672C567.562 18.8672 567.156 17.7109 566.375 16.8984C565.594 16.0703 564.484 15.6562 563.047 15.6562ZM592.367 16.9922C591.445 16.8672 590.633 16.8047 589.93 16.8047C587.367 16.8047 585.688 17.6719 584.891 19.4062V36H578.117V10.6406H584.516L584.703 13.6641C586.062 11.3359 587.945 10.1719 590.352 10.1719C591.102 10.1719 591.805 10.2734 592.461 10.4766L592.367 16.9922Z" fill="white"/>
</svg>
