<svg width="278" height="37" viewBox="0 0 278 37" fill="none" xmlns="http://www.w3.org/2000/svg">
<path d="M28.7344 7.57031H18.2812V36H11.25V7.57031H0.9375V1.875H28.7344V7.57031ZM41.8828 36.4688C38.1641 36.4688 35.1328 35.3281 32.7891 33.0469C30.4609 30.7656 29.2969 27.7266 29.2969 23.9297V23.2734C29.2969 20.7266 29.7891 18.4531 30.7734 16.4531C31.7578 14.4375 33.1484 12.8906 34.9453 11.8125C36.7578 10.7188 38.8203 10.1719 41.1328 10.1719C44.6016 10.1719 47.3281 11.2656 49.3125 13.4531C51.3125 15.6406 52.3125 18.7422 52.3125 22.7578V25.5234H36.1641C36.3828 27.1797 37.0391 28.5078 38.1328 29.5078C39.2422 30.5078 40.6406 31.0078 42.3281 31.0078C44.9375 31.0078 46.9766 30.0625 48.4453 28.1719L51.7734 31.8984C50.7578 33.3359 49.3828 34.4609 47.6484 35.2734C45.9141 36.0703 43.9922 36.4688 41.8828 36.4688ZM41.1094 15.6562C39.7656 15.6562 38.6719 16.1094 37.8281 17.0156C37 17.9219 36.4688 19.2188 36.2344 20.9062H45.6562V20.3672C45.625 18.8672 45.2188 17.7109 44.4375 16.8984C43.6562 16.0703 42.5469 15.6562 41.1094 15.6562ZM69.9141 28.9922C69.9141 28.1641 69.5 27.5156 68.6719 27.0469C67.8594 26.5625 66.5469 26.1328 64.7344 25.7578C58.7031 24.4922 55.6875 21.9297 55.6875 18.0703C55.6875 15.8203 56.6172 13.9453 58.4766 12.4453C60.3516 10.9297 62.7969 10.1719 65.8125 10.1719C69.0312 10.1719 71.6016 10.9297 73.5234 12.4453C75.4609 13.9609 76.4297 15.9297 76.4297 18.3516H69.6562C69.6562 17.3828 69.3438 16.5859 68.7188 15.9609C68.0938 15.3203 67.1172 15 65.7891 15C64.6484 15 63.7656 15.2578 63.1406 15.7734C62.5156 16.2891 62.2031 16.9453 62.2031 17.7422C62.2031 18.4922 62.5547 19.1016 63.2578 19.5703C63.9766 20.0234 65.1797 20.4219 66.8672 20.7656C68.5547 21.0938 69.9766 21.4688 71.1328 21.8906C74.7109 23.2031 76.5 25.4766 76.5 28.7109C76.5 31.0234 75.5078 32.8984 73.5234 34.3359C71.5391 35.7578 68.9766 36.4688 65.8359 36.4688C63.7109 36.4688 61.8203 36.0938 60.1641 35.3438C58.5234 34.5781 57.2344 33.5391 56.2969 32.2266C55.3594 30.8984 54.8906 29.4688 54.8906 27.9375H61.3125C61.375 29.1406 61.8203 30.0625 62.6484 30.7031C63.4766 31.3438 64.5859 31.6641 65.9766 31.6641C67.2734 31.6641 68.25 31.4219 68.9062 30.9375C69.5781 30.4375 69.9141 29.7891 69.9141 28.9922ZM88.9922 4.40625V10.6406H93.3281V15.6094H88.9922V28.2656C88.9922 29.2031 89.1719 29.875 89.5312 30.2812C89.8906 30.6875 90.5781 30.8906 91.5938 30.8906C92.3438 30.8906 93.0078 30.8359 93.5859 30.7266V35.8594C92.2578 36.2656 90.8906 36.4688 89.4844 36.4688C84.7344 36.4688 82.3125 34.0703 82.2188 29.2734V15.6094H78.5156V10.6406H82.2188V4.40625H88.9922ZM104.25 36H97.4531V10.6406H104.25V36ZM97.0547 4.07812C97.0547 3.0625 97.3906 2.22656 98.0625 1.57031C98.75 0.914062 99.6797 0.585938 100.852 0.585938C102.008 0.585938 102.93 0.914062 103.617 1.57031C104.305 2.22656 104.648 3.0625 104.648 4.07812C104.648 5.10938 104.297 5.95312 103.594 6.60938C102.906 7.26562 101.992 7.59375 100.852 7.59375C99.7109 7.59375 98.7891 7.26562 98.0859 6.60938C97.3984 5.95312 97.0547 5.10938 97.0547 4.07812ZM116.203 10.6406L116.414 13.4766C118.211 11.2734 120.641 10.1719 123.703 10.1719C126.969 10.1719 129.211 11.4609 130.43 14.0391C132.211 11.4609 134.75 10.1719 138.047 10.1719C140.797 10.1719 142.844 10.9766 144.188 12.5859C145.531 14.1797 146.203 16.5859 146.203 19.8047V36H139.406V19.8281C139.406 18.3906 139.125 17.3438 138.562 16.6875C138 16.0156 137.008 15.6797 135.586 15.6797C133.555 15.6797 132.148 16.6484 131.367 18.5859L131.391 36H124.617V19.8516C124.617 18.3828 124.328 17.3203 123.75 16.6641C123.172 16.0078 122.188 15.6797 120.797 15.6797C118.875 15.6797 117.484 16.4766 116.625 18.0703V36H109.852V10.6406H116.203ZM150.375 23.0859C150.375 20.5703 150.859 18.3281 151.828 16.3594C152.797 14.3906 154.188 12.8672 156 11.7891C157.828 10.7109 159.945 10.1719 162.352 10.1719C165.773 10.1719 168.562 11.2188 170.719 13.3125C172.891 15.4062 174.102 18.25 174.352 21.8438L174.398 23.5781C174.398 27.4688 173.312 30.5938 171.141 32.9531C168.969 35.2969 166.055 36.4688 162.398 36.4688C158.742 36.4688 155.82 35.2969 153.633 32.9531C151.461 30.6094 150.375 27.4219 150.375 23.3906V23.0859ZM157.148 23.5781C157.148 25.9844 157.602 27.8281 158.508 29.1094C159.414 30.375 160.711 31.0078 162.398 31.0078C164.039 31.0078 165.32 30.3828 166.242 29.1328C167.164 27.8672 167.625 25.8516 167.625 23.0859C167.625 20.7266 167.164 18.8984 166.242 17.6016C165.32 16.3047 164.023 15.6562 162.352 15.6562C160.695 15.6562 159.414 16.3047 158.508 17.6016C157.602 18.8828 157.148 20.875 157.148 23.5781ZM184.805 10.6406L185.016 13.5703C186.828 11.3047 189.258 10.1719 192.305 10.1719C194.992 10.1719 196.992 10.9609 198.305 12.5391C199.617 14.1172 200.289 16.4766 200.32 19.6172V36H193.547V19.7812C193.547 18.3438 193.234 17.3047 192.609 16.6641C191.984 16.0078 190.945 15.6797 189.492 15.6797C187.586 15.6797 186.156 16.4922 185.203 18.1172V36H178.43V10.6406H184.805ZM212.625 36H205.828V10.6406H212.625V36ZM205.43 4.07812C205.43 3.0625 205.766 2.22656 206.438 1.57031C207.125 0.914062 208.055 0.585938 209.227 0.585938C210.383 0.585938 211.305 0.914062 211.992 1.57031C212.68 2.22656 213.023 3.0625 213.023 4.07812C213.023 5.10938 212.672 5.95312 211.969 6.60938C211.281 7.26562 210.367 7.59375 209.227 7.59375C208.086 7.59375 207.164 7.26562 206.461 6.60938C205.773 5.95312 205.43 5.10938 205.43 4.07812ZM232.922 36C232.609 35.3906 232.383 34.6328 232.242 33.7266C230.602 35.5547 228.469 36.4688 225.844 36.4688C223.359 36.4688 221.297 35.75 219.656 34.3125C218.031 32.875 217.219 31.0625 217.219 28.875C217.219 26.1875 218.211 24.125 220.195 22.6875C222.195 21.25 225.078 20.5234 228.844 20.5078H231.961V19.0547C231.961 17.8828 231.656 16.9453 231.047 16.2422C230.453 15.5391 229.508 15.1875 228.211 15.1875C227.07 15.1875 226.172 15.4609 225.516 16.0078C224.875 16.5547 224.555 17.3047 224.555 18.2578H217.781C217.781 16.7891 218.234 15.4297 219.141 14.1797C220.047 12.9297 221.328 11.9531 222.984 11.25C224.641 10.5312 226.5 10.1719 228.562 10.1719C231.688 10.1719 234.164 10.9609 235.992 12.5391C237.836 14.1016 238.758 16.3047 238.758 19.1484V30.1406C238.773 32.5469 239.109 34.3672 239.766 35.6016V36H232.922ZM227.32 31.2891C228.32 31.2891 229.242 31.0703 230.086 30.6328C230.93 30.1797 231.555 29.5781 231.961 28.8281V24.4688H229.43C226.039 24.4688 224.234 25.6406 224.016 27.9844L223.992 28.3828C223.992 29.2266 224.289 29.9219 224.883 30.4688C225.477 31.0156 226.289 31.2891 227.32 31.2891ZM251.109 36H244.312V0H251.109V36ZM270.445 28.9922C270.445 28.1641 270.031 27.5156 269.203 27.0469C268.391 26.5625 267.078 26.1328 265.266 25.7578C259.234 24.4922 256.219 21.9297 256.219 18.0703C256.219 15.8203 257.148 13.9453 259.008 12.4453C260.883 10.9297 263.328 10.1719 266.344 10.1719C269.562 10.1719 272.133 10.9297 274.055 12.4453C275.992 13.9609 276.961 15.9297 276.961 18.3516H270.188C270.188 17.3828 269.875 16.5859 269.25 15.9609C268.625 15.3203 267.648 15 266.32 15C265.18 15 264.297 15.2578 263.672 15.7734C263.047 16.2891 262.734 16.9453 262.734 17.7422C262.734 18.4922 263.086 19.1016 263.789 19.5703C264.508 20.0234 265.711 20.4219 267.398 20.7656C269.086 21.0938 270.508 21.4688 271.664 21.8906C275.242 23.2031 277.031 25.4766 277.031 28.7109C277.031 31.0234 276.039 32.8984 274.055 34.3359C272.07 35.7578 269.508 36.4688 266.367 36.4688C264.242 36.4688 262.352 36.0938 260.695 35.3438C259.055 34.5781 257.766 33.5391 256.828 32.2266C255.891 30.8984 255.422 29.4688 255.422 27.9375H261.844C261.906 29.1406 262.352 30.0625 263.18 30.7031C264.008 31.3438 265.117 31.6641 266.508 31.6641C267.805 31.6641 268.781 31.4219 269.438 30.9375C270.109 30.4375 270.445 29.7891 270.445 28.9922Z" fill="#D5205F"/>
</svg>
