<svg width="106" height="106" fill="none" xmlns="http://www.w3.org/2000/svg"><circle cx="52.886" cy="52.727" r="51.727" stroke="#806BE7" stroke-width="2"/><path d="M56.304 30.3h6.88a1.144 1.144 0 000-2.289h-6.88a1.144 1.144 0 000 2.289zM49.453 28.011h-6.88a1.144 1.144 0 000 2.289h6.88a1.144 1.144 0 000-2.289zM77.602 76.299V62.568c0-.632-.512-1.144-1.144-1.144h-46.8c-.632 0-1.144.512-1.144 1.144v13.73c0 .633.512 1.145 1.144 1.145h46.8c.632 0 1.144-.512 1.144-1.144zM63.185 63.712h2.288v2.289h-2.288v-2.289zm-4.578 0h2.289v2.289h-2.288v-2.289zm-4.576 0h2.288v2.289h-2.288v-2.289zm4.577 4.577v2.289h-2.289v-2.289h2.288zm-9.154-4.577h2.288v2.289h-2.288v-2.289zm4.577 4.577v2.289h-2.289v-2.289h2.289zm-9.154-4.577h2.288v2.289h-2.288v-2.289zm4.576 4.577v2.289h-2.288v-2.289h2.288zM40.3 63.712h2.289v2.289H40.3v-2.289zm-4.577 0h2.289v2.289h-2.289v-2.289zm-4.92 0h2.632v2.289h-2.632v-2.289zm0 4.577h4.92v2.289h-4.92v-2.289zm2.632 6.866h-2.632v-2.289h2.632v2.289zm4.577 0h-2.289v-2.289h2.289v2.289zm0-6.866h2.288v2.289h-2.288v-2.289zm4.577 6.866H40.3v-2.289h2.288v2.289zm0-6.866h2.288v2.289h-2.288v-2.289zm18.308 6.866h-16.02v-2.289h16.02v2.289zm0-6.866h2.289v2.289h-2.289v-2.289zm4.577 6.866h-2.288v-2.289h2.288v2.289zm0-6.866h2.289v2.289h-2.289v-2.289zm9.84 6.866h-7.551v-2.289h7.552v2.289zm0-4.577H70.05v-2.289h5.264v2.289zm0-4.577h-7.551v-2.289h7.552v2.289zM56.304 34.877h6.88a1.144 1.144 0 000-2.289h-6.88a1.144 1.144 0 000 2.289zM64.329 38.31c0-.632-.513-1.145-1.144-1.145h-6.88a1.144 1.144 0 000 2.289h6.88c.631 0 1.144-.512 1.144-1.144zM49.453 32.588h-6.88a1.144 1.144 0 000 2.289h6.88a1.144 1.144 0 000-2.289zM49.453 37.165h-6.88a1.144 1.144 0 000 2.289h6.88a1.144 1.144 0 000-2.289zM52.886 82.02a1.144 1.144 0 100-2.288 1.144 1.144 0 000 2.288z" fill="#806BE7"/><path d="M24.738 82.02h23a1.144 1.144 0 000-2.288H25.881V59.135H79.89v20.597H58.035a1.144 1.144 0 000 2.288h23c.632 0 1.144-.512 1.144-1.144V57.99c0-.632-.512-1.144-1.144-1.144H54.227a3.438 3.438 0 013.236-2.289h18.995a5.728 5.728 0 005.721-5.721 5.728 5.728 0 00-5.721-5.722h-4.12V26.867c0-.632-.512-1.144-1.144-1.144h-3.432v-1.144c0-.632-.513-1.145-1.145-1.145h-9.154c-1.87 0-3.532.902-4.577 2.293a5.716 5.716 0 00-4.577-2.293h-9.154c-.632 0-1.144.513-1.144 1.145v1.144h-3.433c-.632 0-1.144.512-1.144 1.144v20.597c0 .632.512 1.144 1.144 1.144h36.616c.632 0 1.145-.512 1.145-1.144v-2.06h4.119a3.437 3.437 0 013.433 3.433 3.437 3.437 0 01-3.433 3.433H57.463a5.731 5.731 0 00-5.606 4.577h-27.12c-.631 0-1.144.512-1.144 1.144v22.885c0 .632.513 1.144 1.145 1.144zm10.984-35.7V28.01h2.289v14.876c0 .632.512 1.144 1.144 1.144h9.14c1.491 0 2.763.957 3.235 2.288H35.722zm16.02-3.42a5.693 5.693 0 00-3.448-1.158H40.3v-16.02h8.01a3.437 3.437 0 013.432 3.434V42.9zm2.289-13.744a3.437 3.437 0 013.432-3.433h8.01v16.02H57.45a5.694 5.694 0 00-3.418 1.144V29.156zm16.02 17.163H54.212a3.452 3.452 0 013.236-2.288h9.168c.632 0 1.145-.512 1.145-1.144V28.01h2.288V46.32z" fill="#806BE7"/></svg>