<svg width="169" height="194" fill="none" xmlns="http://www.w3.org/2000/svg"><path d="M111.66 83.768c11.24 0 20.384-9.144 20.384-20.384S122.9 43 111.66 43c-8.163 0-15.2 4.833-18.453 11.779l-5.458-2.015c.065-.418.13-.836.13-1.27 0-4.684-3.811-8.494-8.494-8.494s-8.493 3.81-8.493 8.493 3.81 8.494 8.493 8.494c3.042 0 5.696-1.623 7.195-4.033l5.45 2.011a20.261 20.261 0 00-.754 5.419c0 2.225.37 4.362 1.032 6.368L73.626 77.67c-3.42-6.467-10.21-10.889-18.022-10.889-2.532 0-4.947.486-7.185 1.332l-4.7-9.874c2.048-1.553 3.392-3.985 3.392-6.746C47.11 46.81 43.3 43 38.617 43c-4.683 0-8.493 3.81-8.493 8.493s3.81 8.494 8.493 8.494c.707 0 1.385-.112 2.042-.277l4.693 9.864c-6.049 3.54-10.132 10.09-10.132 17.591 0 7.046 3.595 13.265 9.044 16.927l-3.107 5.585c-.809-.254-1.65-.429-2.54-.429-4.683 0-8.493 3.81-8.493 8.493s3.81 8.493 8.493 8.493 8.494-3.81 8.494-8.493c0-2.572-1.174-4.853-2.985-6.41l3.114-5.597a20.23 20.23 0 008.364 1.815c4.661 0 8.948-1.59 12.386-4.233l6.687 7.355c-3.391 3.642-5.484 8.508-5.484 13.865 0 1.039.104 2.052.253 3.049l-7.866 1.867c-1.354-2.895-4.274-4.916-7.675-4.916-4.683 0-8.493 3.81-8.493 8.493s3.81 8.493 8.493 8.493 8.493-3.81 8.493-8.493c0-.094-.025-.182-.027-.275l7.851-1.862c2.678 8.135 10.335 14.028 19.355 14.028 11.24 0 20.384-9.144 20.384-20.384 0-3.485-.882-6.767-2.431-9.638l9.978-6.488a8.466 8.466 0 006.042 2.536c4.683 0 8.494-3.81 8.494-8.493s-3.811-8.493-8.494-8.493-8.493 3.81-8.493 8.493c0 1.098.226 2.14.606 3.104l-10.001 6.502a20.49 20.49 0 00-7.592-6.03l8.291-22.984c1.692.456 3.464.723 5.299.723zM79.385 56.589a5.103 5.103 0 01-5.096-5.096 5.103 5.103 0 015.096-5.096 5.103 5.103 0 015.096 5.096 5.103 5.103 0 01-5.096 5.096zm-45.864-5.096a5.103 5.103 0 015.096-5.096 5.103 5.103 0 015.096 5.096 5.103 5.103 0 01-5.096 5.096 5.103 5.103 0 01-5.096-5.096zm5.096 71.344a5.103 5.103 0 01-5.096-5.096 5.103 5.103 0 015.096-5.096 5.103 5.103 0 015.096 5.096 5.103 5.103 0 01-5.096 5.096zm15.288 15.288a5.103 5.103 0 01-5.096-5.096 5.103 5.103 0 015.096-5.096 5.103 5.103 0 015.096 5.096 5.103 5.103 0 01-5.096 5.096zm69.645-40.768a5.102 5.102 0 015.096 5.096 5.102 5.102 0 01-5.096 5.096 5.103 5.103 0 01-5.096-5.096 5.103 5.103 0 015.096-5.096zm-21.894-20.275c.758-3.93 4.222-6.903 8.305-6.903h3.397c4.084 0 7.547 2.974 8.305 6.903-2.81 2.057-6.261 3.289-10.003 3.289-3.743 0-7.194-1.232-10.004-3.29zm10.004-10.3a5.102 5.102 0 01-5.096-5.097 5.102 5.102 0 015.096-5.096 5.103 5.103 0 015.096 5.096 5.103 5.103 0 01-5.096 5.096zm0-20.385c9.366 0 16.986 7.62 16.986 16.987 0 4.247-1.578 8.127-4.165 11.108a12.033 12.033 0 00-6.764-6.871 8.45 8.45 0 002.436-5.936c0-4.683-3.81-8.493-8.493-8.493s-8.494 3.81-8.494 8.493c0 2.31.933 4.403 2.436 5.936a12.034 12.034 0 00-6.764 6.87c-2.587-2.98-4.165-6.86-4.165-11.107 0-9.367 7.62-16.987 16.987-16.987zM38.617 87.165c0-9.367 7.62-16.986 16.987-16.986 9.367 0 16.987 7.62 16.987 16.986 0 4.26-1.589 8.15-4.19 11.135a12.035 12.035 0 00-6.772-6.898 8.457 8.457 0 002.434-5.935c0-4.683-3.81-8.494-8.493-8.494s-8.493 3.81-8.493 8.494c0 2.31.932 4.402 2.436 5.935a12.03 12.03 0 00-6.756 6.844c-2.572-2.978-4.14-6.846-4.14-11.08zm11.857-1.698a5.103 5.103 0 015.096-5.096 5.103 5.103 0 015.096 5.096 5.103 5.103 0 01-5.096 5.096 5.103 5.103 0 01-5.096-5.096zm-4.902 15.374c.765-3.918 4.224-6.881 8.3-6.881h3.397c4.09 0 7.56 2.984 8.308 6.926a16.874 16.874 0 01-9.973 3.266c-3.756 0-7.218-1.24-10.032-3.311zm33.973 37.37c.766-3.918 4.224-6.881 8.3-6.881h3.397c4.09 0 7.56 2.985 8.308 6.926a16.868 16.868 0 01-9.973 3.266c-3.756 0-7.218-1.24-10.032-3.311zm9.998-10.278a5.103 5.103 0 01-5.096-5.096 5.103 5.103 0 015.096-5.096 5.103 5.103 0 015.096 5.096 5.103 5.103 0 01-5.096 5.096zm17.021-3.397c0 4.26-1.589 8.15-4.189 11.135a12.037 12.037 0 00-6.773-6.899 8.454 8.454 0 002.434-5.935c0-4.683-3.81-8.493-8.493-8.493s-8.493 3.81-8.493 8.493c0 2.31.932 4.403 2.436 5.935a12.033 12.033 0 00-6.756 6.844c-2.572-2.978-4.14-6.845-4.14-11.08 0-9.367 7.62-16.987 16.987-16.987 9.367 0 16.987 7.62 16.987 16.987zm-11.689-19.661a20.318 20.318 0 00-5.298-.723c-4.661 0-8.949 1.59-12.387 4.233l-6.686-7.355c3.391-3.642 5.484-8.508 5.484-13.865 0-2.225-.37-4.362-1.033-6.368l18.682-7.918a20.494 20.494 0 009.531 9.012l-8.293 22.984z" fill="#806BE7"/><path d="M163.038 51.063v91.362l-79.1 45.806-79.1-45.806V51.063l79.1-45.807 79.1 45.807z" stroke="#806BE7" stroke-width="2"/></svg>