<svg width="216" height="216" fill="none" xmlns="http://www.w3.org/2000/svg"><circle cx="108" cy="108" r="107" fill="#806BE7" fill-opacity=".1" stroke="#806BE7" stroke-width="2"/><path d="M115.001 60.063h14.093a2.344 2.344 0 000-4.688h-14.093a2.344 2.344 0 000 4.688zM100.969 55.375H86.876a2.344 2.344 0 000 4.688h14.093a2.344 2.344 0 000-4.688zM158.625 154.281v-28.125a2.344 2.344 0 00-2.344-2.344h-95.86a2.344 2.344 0 00-2.343 2.344v28.125a2.344 2.344 0 002.344 2.344h95.859a2.343 2.343 0 002.344-2.344zM129.094 128.5h4.687v4.688h-4.687V128.5zm-9.375 0h4.687v4.688h-4.687V128.5zm-9.375 0h4.687v4.688h-4.687V128.5zm9.375 9.375v4.687h-4.688v-4.687h4.688zm-18.75-9.375h4.687v4.688h-4.687V128.5zm9.375 9.375v4.687h-4.688v-4.687h4.688zm-18.75-9.375h4.687v4.688h-4.687V128.5zm9.375 9.375v4.687h-4.688v-4.687h4.688zm-18.75-9.375h4.687v4.688H82.22V128.5zm-9.375 0h4.687v4.688h-4.687V128.5zm-10.078 0h5.39v4.688h-5.39V128.5zm0 9.375h10.078v4.687H62.766v-4.687zm5.39 14.063h-5.39v-4.688h5.39v4.688zm9.375 0h-4.687v-4.688h4.687v4.688zm0-14.063h4.688v4.687H77.53v-4.687zm9.375 14.063H82.22v-4.688h4.687v4.688zm0-14.063h4.688v4.687h-4.688v-4.687zm37.5 14.063H91.594v-4.688h32.812v4.688zm0-14.063h4.688v4.687h-4.688v-4.687zm9.375 14.063h-4.687v-4.688h4.687v4.688zm0-14.063h4.688v4.687h-4.688v-4.687zm20.157 14.063h-15.469v-4.688h15.469v4.688zm0-9.376h-10.782v-4.687h10.782v4.687zm0-9.374h-15.469V128.5h15.469v4.688zM115.001 69.438h14.093a2.344 2.344 0 000-4.688h-14.093a2.344 2.344 0 000 4.688zM131.438 76.469a2.344 2.344 0 00-2.344-2.344h-14.093a2.344 2.344 0 000 4.688h14.093a2.344 2.344 0 002.344-2.344zM100.969 64.75H86.876a2.344 2.344 0 000 4.688h14.093a2.344 2.344 0 000-4.688zM100.969 74.125H86.876a2.344 2.344 0 000 4.688h14.093a2.344 2.344 0 000-4.688zM108 166a2.344 2.344 0 100-4.688 2.344 2.344 0 000 4.688z" fill="#806BE7"/><path d="M50.344 166h47.11a2.344 2.344 0 100-4.688H52.687v-42.187h110.624v42.187h-44.765a2.345 2.345 0 000 4.688h47.109a2.344 2.344 0 002.344-2.344v-46.875a2.344 2.344 0 00-2.344-2.343h-54.909c.967-2.728 3.572-4.688 6.628-4.688h38.906c6.462 0 11.719-5.257 11.719-11.719s-5.257-11.719-11.719-11.719h-8.437v-33.28a2.344 2.344 0 00-2.344-2.344h-7.031v-2.344A2.344 2.344 0 00136.125 46h-18.75A11.708 11.708 0 00108 50.696 11.708 11.708 0 0098.625 46h-18.75a2.344 2.344 0 00-2.344 2.344v2.343H70.5a2.344 2.344 0 00-2.344 2.344V95.22a2.344 2.344 0 002.344 2.344h75a2.344 2.344 0 002.344-2.344V91h8.437a7.039 7.039 0 017.031 7.031 7.039 7.039 0 01-7.031 7.031h-38.906c-5.659 0-10.394 4.033-11.483 9.376H50.344A2.343 2.343 0 0048 116.781v46.875A2.344 2.344 0 0050.344 166zm22.5-73.125v-37.5h4.687v30.469a2.344 2.344 0 002.344 2.344h18.72c3.055 0 5.66 1.96 6.628 4.687h-32.38zm32.812-7.003a11.66 11.66 0 00-7.062-2.372H82.22V50.687h16.406a7.039 7.039 0 017.031 7.032v28.153zm4.688-28.153a7.039 7.039 0 017.031-7.032h16.406V83.5h-16.436c-2.606 0-5.036.874-7.001 2.345V57.72zm32.812 35.156h-32.438c.975-2.734 3.605-4.688 6.627-4.688h18.78a2.344 2.344 0 002.344-2.343V55.375h4.687v37.5z" fill="#806BE7"/></svg>