<svg width="216" height="216" fill="none" xmlns="http://www.w3.org/2000/svg"><circle cx="108" cy="108" r="107" fill="#806BE7" fill-opacity=".1" stroke="#806BE7" stroke-width="2"/><path d="M76.418 67.353h3.87v15.483h3.87V67.352h3.871v-3.87H76.418v3.87zM122.865 67.353h3.871v15.483h3.87V67.352h3.871v-3.87h-11.612v3.87zM91.9 65.418V80.9a1.935 1.935 0 001.935 1.935h9.677v-3.87h-7.741v-3.87h7.741v-3.871h-7.741v-3.871h7.741v-3.87h-9.677a1.935 1.935 0 00-1.935 1.935zM107.383 69.288a5.804 5.804 0 005.806 5.806 1.935 1.935 0 010 3.87h-5.806v3.871h5.806a5.806 5.806 0 000-11.611 1.936 1.936 0 110-3.871h5.805v-3.87h-5.805a5.807 5.807 0 00-5.806 5.805z" fill="#806BE7"/><path d="M70.612 90.577h69.671a1.935 1.935 0 001.935-1.936V57.677a1.935 1.935 0 00-1.935-1.936H70.612a1.935 1.935 0 00-1.935 1.936V88.64a1.936 1.936 0 001.935 1.936zm1.935-30.965h65.8v27.094h-65.8V59.612zM68.677 113.8h11.611a1.935 1.935 0 001.936-1.935v-10.818l5.244-5.226-2.748-2.748-5.225 5.245H68.676a1.935 1.935 0 00-1.935 1.935v11.612a1.933 1.933 0 001.936 1.935zm9.676-3.87h-5.012l5.012-5.013v5.013zm-2.729-7.741l-5.012 5.012v-5.012h5.012zM80.288 137.024H68.677a1.935 1.935 0 00-1.936 1.935v11.612a1.937 1.937 0 001.936 1.935h11.611a1.934 1.934 0 001.936-1.935v-11.612a1.935 1.935 0 00-1.936-1.935zm-1.935 11.612h-7.741v-7.741h7.741v7.741zM82.785 114.362l-3.29 3.309H68.676a1.935 1.935 0 00-1.935 1.935v11.612a1.937 1.937 0 001.936 1.935h11.611a1.937 1.937 0 001.935-1.935V120.4l3.31-3.29-2.748-2.748zm-7.16 7.18l-5.013 5.012v-5.012h5.012zm2.728 7.741h-5.012l5.012-5.013v5.013zM86.094 100.253h56.124v3.871H86.094v-3.871zM86.094 138.959h25.159v3.871H86.094v-3.871zM86.094 146.7h56.124v3.871H86.094V146.7z" fill="#806BE7"/><path d="M178.428 89.203l-7.742-7.742a1.94 1.94 0 00-1.374-.572 1.936 1.936 0 00-1.374.572l-16.043 16.063V49.935A1.935 1.935 0 00149.959 48H60.935A1.936 1.936 0 0059 49.935v116.118a1.936 1.936 0 001.935 1.936h89.024a1.935 1.935 0 001.936-1.936v-47.589l26.533-26.513a1.935 1.935 0 000-2.748zm-54.905 43.467l3.696 3.696-6.483 2.787 2.787-6.483zm2.071-3.387l35.977-35.978 5.012 5.013-35.977 35.977-5.012-5.012zm22.43 34.835H62.871V51.871h85.153v49.524l-6.599 6.599h-55.33v3.871h51.459l-7.741 7.741H86.094v3.871h39.848l-3.87 3.87H86.094v3.871h33.829l-4.644 10.857a1.932 1.932 0 002.535 2.535l13.547-5.806a2.14 2.14 0 00.619-.406l16.044-16.063v41.783zm21.288-68.529l-5.012-5.012 5.012-5.013 5.013 5.013-5.013 5.012z" fill="#806BE7"/></svg>