<svg width="200" height="55" fill="none" xmlns="http://www.w3.org/2000/svg"><mask id="a" fill="#fff"><path d="M200 30.477h-13.312c-.315 0-.629.202-.734.606l-.734 3.027-3.878-14.633c-.105-.404-.42-.605-.839-.605s-.734.302-.734.706l-2.725 26.844-4.717-45.413c0-.403-.419-.706-.734-.706-.419 0-.733.303-.733.706l-3.25 29.367h-31.132c-.314 0-.629.202-.734.606l-.734 3.027-3.878-14.633c-.105-.404-.419-.605-.838-.605-.42 0-.734.302-.734.706l-2.726 26.844L122.117.908c0-.403-.419-.706-.733-.706-.42 0-.734.303-.734.706l-3.25 29.367H86.268c-.314 0-.629.202-.733.606l-.734 3.027-3.879-14.633c-.104-.403-.419-.605-.838-.605-.42 0-.734.302-.734.706L76.625 46.22 71.908.807c0-.403-.42-.706-.734-.706-.42 0-.734.303-.734.706l-3.25 29.367H35.85c-.315 0-.63.202-.735.606l-.733 3.027-3.879-14.633c-.105-.403-.42-.605-.838-.605-.42 0-.734.303-.734.706L26.205 46.12 21.49.706c0-.403-.42-.706-.734-.706-.42 0-.734.303-.734.706l-3.25 29.367H.735c-.42 0-.734.303-.734.707 0 .403.314.706.734.706h16.771c.42 0 .734-.303.734-.706l2.516-22.202 4.717 45.716c0 .403.419.706.733.706.42 0 .734-.303.734-.706l3.04-30.276 3.564 13.422c.105.303.42.606.734.606s.629-.202.733-.606l1.363-5.45H67.61c.42 0 .734-.302.734-.706l2.725-22.706 4.717 45.716c0 .403.42.706.734.706.42 0 .734-.303.734-.706l3.04-30.276 3.563 13.422c.105.303.42.606.734.606.315 0 .63-.202.734-.606l1.363-5.45h31.237c.419 0 .733-.302.733-.706l2.516-22.807 4.717 45.716c0 .403.419.706.734.706.419 0 .733-.303.733-.706l3.04-30.276 3.564 13.422c.105.303.42.606.734.606s.629-.202.734-.605l1.362-5.45h31.237c.42 0 .734-.303.734-.707l2.516-22.807 4.717 45.716c0 .403.419.706.734.706.419 0 .733-.303.733-.706l3.04-30.275 3.564 13.422c.105.302.419.605.734.605.314 0 .629-.202.734-.605l1.362-5.45H200v-1.312z"/></mask><path d="M200 30.477h-13.312c-.315 0-.629.202-.734.606l-.734 3.027-3.878-14.633c-.105-.404-.42-.605-.839-.605s-.734.302-.734.706l-2.725 26.844-4.717-45.413c0-.403-.419-.706-.734-.706-.419 0-.733.303-.733.706l-3.25 29.367h-31.132c-.314 0-.629.202-.734.606l-.734 3.027-3.878-14.633c-.105-.404-.419-.605-.838-.605-.42 0-.734.302-.734.706l-2.726 26.844L122.117.908c0-.403-.419-.706-.733-.706-.42 0-.734.303-.734.706l-3.25 29.367H86.268c-.314 0-.629.202-.733.606l-.734 3.027-3.879-14.633c-.104-.403-.419-.605-.838-.605-.42 0-.734.302-.734.706L76.625 46.22 71.908.807c0-.403-.42-.706-.734-.706-.42 0-.734.303-.734.706l-3.25 29.367H35.85c-.315 0-.63.202-.735.606l-.733 3.027-3.879-14.633c-.105-.403-.42-.605-.838-.605-.42 0-.734.303-.734.706L26.205 46.12 21.49.706c0-.403-.42-.706-.734-.706-.42 0-.734.303-.734.706l-3.25 29.367H.735c-.42 0-.734.303-.734.707 0 .403.314.706.734.706h16.771c.42 0 .734-.303.734-.706l2.516-22.202 4.717 45.716c0 .403.419.706.733.706.42 0 .734-.303.734-.706l3.04-30.276 3.564 13.422c.105.303.42.606.734.606s.629-.202.733-.606l1.363-5.45H67.61c.42 0 .734-.302.734-.706l2.725-22.706 4.717 45.716c0 .403.42.706.734.706.42 0 .734-.303.734-.706l3.04-30.276 3.563 13.422c.105.303.42.606.734.606.315 0 .63-.202.734-.606l1.363-5.45h31.237c.419 0 .733-.302.733-.706l2.516-22.807 4.717 45.716c0 .403.419.706.734.706.419 0 .733-.303.733-.706l3.04-30.276 3.564 13.422c.105.303.42.606.734.606s.629-.202.734-.605l1.362-5.45h31.237c.42 0 .734-.303.734-.707l2.516-22.807 4.717 45.716c0 .403.419.706.734.706.419 0 .733-.303.733-.706l3.04-30.275 3.564 13.422c.105.302.419.605.734.605.314 0 .629-.202.734-.605l1.362-5.45H200v-1.312z" fill="#806BE7"/><path d="M200 30.477h4v-4h-4v4zm-14.046.606l-3.872-1.006-.008.032-.008.031 3.888.943zm-.734 3.027l-3.866 1.025 7.754-.083-3.888-.942zm-3.878-14.633l-3.872 1.005.003.01.002.01 3.867-1.025zm-1.573.101l3.98.404.02-.201v-.203h-4zm-2.725 26.844l-3.979.413 7.959-.009-3.98-.404zm-4.717-45.413h-4v.207l.021.206 3.979-.413zm-1.467 0l3.975.44.025-.22v-.22h-4zm-3.25 29.367v4h3.582l.394-3.56-3.976-.44zm-31.866.606l-3.871-1.006-.009.032-.007.032 3.887.942zm-.734 3.027l-3.866 1.025 7.754-.083-3.888-.942zm-3.878-14.633l-3.872 1.005.003.01.003.01 3.866-1.025zm-1.572.101l3.979.404.021-.201v-.203h-4zm-2.726 26.844l-3.978.413 7.958-.009-3.98-.404zM122.117.908h-4v.207l.022.207 3.978-.414zm-1.467 0l3.976.44.024-.22v-.22h-4zm-3.25 29.367v4h3.582l.394-3.56-3.976-.44zm-31.865.606l-3.872-1.006-.008.032-.008.032 3.888.942zm-.734 3.027l-3.867 1.025 7.754-.083-3.887-.942zm-3.879-14.633l-3.871 1.006.002.01.003.009 3.866-1.025zm-1.572.101l3.98.404.02-.201v-.203h-4zM76.625 46.22l-3.979.413 7.958-.009-3.98-.404zM71.908.807h-4v.208l.021.206 3.979-.414zm-1.468 0l3.976.44.024-.219v-.22h-4zm-3.25 29.367v4h3.583l.394-3.56-3.976-.44zm-32.075.606l-3.871-1.006-.009.032-.007.032 3.887.942zm-.733 3.027l-3.867 1.025 7.754-.083-3.887-.942zm-3.879-14.633l-3.872 1.006.003.01.003.01 3.866-1.026zm-1.572.101l3.98.404.02-.201v-.203h-4zM26.205 46.12l-3.978.413 7.958-.009-3.98-.404zM21.49.706h-4v.208l.02.206 3.98-.414zm-1.468 0l3.976.44.024-.219v-.22h-4zm-3.25 29.367v4h3.582l.394-3.56-3.976-.44zm1.468.707l-3.975-.45-.025.224v.226h4zm2.516-22.202l3.979-.41-7.954-.04 3.975.45zm4.717 45.716h4v-.206l-.021-.205-3.98.41zm1.467 0l-3.98-.4-.02.2v.2h4zm3.04-30.276l3.866-1.026-7.846.627 3.98.4zm3.564 13.422l-3.866 1.027.038.143.048.14 3.78-1.31zm1.468 0l3.871 1.006.005-.018.004-.017-3.88-.97zm1.362-5.45v-4H33.25l-.757 3.03 3.88.97zm31.97-.706l-3.97-.476-.03.237v.24h4zM71.07 8.578l3.98-.41-7.951-.067 3.971.477zm4.717 45.716h4v-.206l-.021-.205-3.979.41zm1.468 0l-3.98-.4-.02.2v.2h4zm3.04-30.276l3.865-1.026-7.846.627 3.98.4zm3.563 13.422l-3.866 1.027.038.143.049.14 3.78-1.31zm1.468 0l3.871 1.006.005-.018.005-.017-3.881-.97zm1.363-5.45v-4h-3.123l-.758 3.03 3.88.97zm31.97-.706l-3.976-.438-.024.218v.22h4zm2.516-22.807l3.979-.41-7.955-.028 3.976.438zm4.717 45.716h4v-.206l-.021-.205-3.979.41zm1.467 0l-3.979-.4-.021.2v.2h4zm3.04-30.276l3.866-1.026-7.846.627 3.98.4zm3.564 13.422l-3.866 1.027.038.143.048.14 3.78-1.31zm1.468 0l3.871 1.006.005-.018.004-.017-3.88-.97zm1.362-5.45v-4h-3.122l-.758 3.03 3.88.97zm31.971-.706l-3.976-.438-.024.218v.22h4zm2.516-22.807l3.979-.41-7.955-.028 3.976.438zm4.717 45.716h4v-.206l-.021-.205-3.979.41zm1.467 0l-3.98-.4-.02.2v.2h4zm3.04-30.275l3.866-1.027-7.846.627 3.98.4zm3.564 13.422l-3.866 1.026.038.143.048.14 3.78-1.31zm1.468 0l3.871 1.005.005-.018.004-.017-3.88-.97zm1.362-5.45v-4h-3.123l-.757 3.03 3.88.97zm13.103 0v4h4v-4h-4zm0-5.312h-13.312v8H200v-8zm-13.312 0c-2.123 0-4.039 1.42-4.606 3.6l7.743 2.01a3.18 3.18 0 01-1.142 1.71 3.271 3.271 0 01-1.995.68v-8zm-4.622 3.663l-.733 3.028 7.775 1.884.733-3.027-7.775-1.885zm7.021 2.945l-3.879-14.633-7.733 2.05 3.879 14.633 7.733-2.05zm-3.874-14.613a4.772 4.772 0 00-1.878-2.726 4.921 4.921 0 00-2.832-.874v8a3.087 3.087 0 01-1.757-.572 3.232 3.232 0 01-1.276-1.818l7.743-2.01zm-4.71-3.6c-2.484 0-4.734 1.951-4.734 4.706h8a3.31 3.31 0 01-1.016 2.377 3.255 3.255 0 01-2.25.917v-8zm-4.713 4.302l-2.726 26.844 7.96.808 2.725-26.844-7.959-.808zm5.233 26.835L176.306.596l-7.958.826 4.717 45.413 7.958-.826zm-4.696-45c0-1.648-.85-2.845-1.615-3.514-.72-.63-1.807-1.192-3.119-1.192v8a3.23 3.23 0 01-2.149-.788 3.325 3.325 0 01-1.117-2.506h8zm-4.734-4.706c-2.484 0-4.733 1.952-4.733 4.706h8a3.31 3.31 0 01-1.017 2.377 3.253 3.253 0 01-2.25.917v-8zM166.884.569l-3.25 29.367 7.952.88 3.249-29.367-7.951-.88zm.726 25.807h-31.132v8h31.132v-8zm-31.132 0c-2.123 0-4.039 1.42-4.605 3.6l7.743 2.011a3.18 3.18 0 01-1.143 1.71 3.27 3.27 0 01-1.995.68v-8zm-4.621 3.663l-.734 3.028 7.775 1.884.734-3.027-7.775-1.884zm7.02 2.945l-3.878-14.633-7.733 2.05 3.878 14.633 7.733-2.05zm-3.873-14.613a4.77 4.77 0 00-1.879-2.726 4.916 4.916 0 00-2.831-.874v8a3.087 3.087 0 01-1.758-.572 3.238 3.238 0 01-1.276-1.818l7.744-2.01zm-4.71-3.6c-2.484 0-4.734 1.951-4.734 4.706h8a3.31 3.31 0 01-1.016 2.377 3.255 3.255 0 01-2.25.917v-8zm-4.714 4.302l-2.725 26.844 7.959.808 2.725-26.844-7.959-.808zm5.233 26.835L126.096.495l-7.957.827 4.717 45.412 7.957-.826zm-4.696-45c0-1.647-.85-2.845-1.614-3.514-.72-.63-1.807-1.192-3.119-1.192v8a3.23 3.23 0 01-2.15-.788 3.325 3.325 0 01-1.117-2.506h8zm-4.733-4.706c-2.484 0-4.734 1.952-4.734 4.706h8a3.31 3.31 0 01-1.016 2.377 3.255 3.255 0 01-2.25.917v-8zm-4.71 4.266l-3.249 29.367 7.951.88 3.25-29.367-7.952-.88zm.726 25.807H86.268v8H117.4v-8zm-31.132 0c-2.122 0-4.039 1.42-4.605 3.6l7.743 2.011a3.183 3.183 0 01-1.142 1.71c-.591.455-1.298.68-1.996.68v-8zm-4.62 3.664l-.735 3.027 7.775 1.884.734-3.027-7.775-1.884zm7.02 2.944l-3.88-14.633-7.732 2.05 3.878 14.633 7.733-2.05zM84.793 18.27a4.77 4.77 0 00-1.879-2.726 4.917 4.917 0 00-2.831-.874v8a3.086 3.086 0 01-1.757-.572 3.231 3.231 0 01-1.276-1.817l7.743-2.011zm-4.71-3.6c-2.484 0-4.734 1.952-4.734 4.706h8a3.31 3.31 0 01-1.016 2.377 3.254 3.254 0 01-2.25.917v-8zm-4.713 4.302l-2.726 26.844 7.96.808L83.33 19.78l-7.96-.808zm5.232 26.835L75.886.394l-7.957.827 4.717 45.412 7.957-.826zm-4.695-45c0-1.647-.85-2.845-1.615-3.514-.72-.63-1.807-1.192-3.119-1.192v8a3.23 3.23 0 01-2.15-.788A3.325 3.325 0 0167.908.807h8zm-4.734-4.706C68.69-3.9 66.44-1.947 66.44.807h8a3.31 3.31 0 01-1.016 2.377 3.254 3.254 0 01-2.25.917v-8zM66.464.367l-3.249 29.367 7.951.88 3.25-29.367-7.951-.88zm.727 25.807H35.849v8h31.342v-8zm-31.342 0c-2.122 0-4.04 1.42-4.605 3.6l7.743 2.011a3.183 3.183 0 01-1.143 1.71c-.59.455-1.298.68-1.995.68v-8zm-4.621 3.664l-.734 3.027 7.775 1.884.734-3.027-7.775-1.884zm7.02 2.944L34.37 18.15l-7.733 2.05 3.878 14.632 7.733-2.05zM34.375 18.17a4.77 4.77 0 00-1.879-2.726 4.918 4.918 0 00-2.831-.874v8a3.087 3.087 0 01-1.758-.572 3.231 3.231 0 01-1.276-1.817l7.744-2.011zm-4.71-3.6c-2.484 0-4.734 1.952-4.734 4.706h8a3.31 3.31 0 01-1.016 2.377 3.254 3.254 0 01-2.25.917v-8zM24.95 18.87l-2.725 26.844 7.959.808L32.91 19.68l-7.959-.808zm5.233 26.835L25.467.293l-7.957.827 4.717 45.412 7.957-.826zm-4.696-45c0-1.647-.85-2.845-1.614-3.514-.72-.63-1.807-1.192-3.12-1.192v8a3.23 3.23 0 01-2.149-.788A3.324 3.324 0 0117.488.706h8zM20.755-4C18.27-4 16.02-2.048 16.02.706h8a3.31 3.31 0 01-1.016 2.377 3.255 3.255 0 01-2.25.917v-8zM16.045.267l-3.25 29.367 7.952.88 3.25-29.368-7.952-.88zm.726 25.806H.735v8h16.038v-8zm-16.037 0C-1.75 26.073-4 28.025-4 30.78h8a3.31 3.31 0 01-1.016 2.377 3.254 3.254 0 01-2.25.916v-8zM-4 30.78c0 2.754 2.25 4.706 4.734 4.706v-8c.77 0 1.597.288 2.25.917A3.31 3.31 0 014 30.78h-8zm4.734 4.706h16.771v-8H.734v8zm16.771 0c2.484 0 4.734-1.952 4.734-4.706h-8a3.31 3.31 0 011.016-2.377 3.255 3.255 0 012.25-.917v8zm4.709-4.256l2.515-22.202-7.949-.9-2.516 22.201 7.95.901zM16.776 8.99l4.717 45.715 7.958-.821-4.717-45.716-7.958.822zm4.696 45.305c0 1.647.85 2.845 1.614 3.514.72.63 1.808 1.192 3.12 1.192v-8c.997 0 1.717.41 2.149.788a3.325 3.325 0 011.117 2.506h-8zM26.205 59c2.484 0 4.734-1.952 4.734-4.706h-8a3.31 3.31 0 011.016-2.377 3.254 3.254 0 012.25-.917v8zm4.714-4.307l3.04-30.275-7.96-.8-3.04 30.276 7.96.8zm-4.806-29.648l3.564 13.422 7.732-2.053-3.564-13.422-7.732 2.053zm3.65 13.704c.301.869.832 1.596 1.449 2.13.594.515 1.645 1.167 3.065 1.167v-8c1.105 0 1.842.5 2.174.788.354.307.676.731.872 1.298l-7.56 2.617zm4.514 3.297c2.122 0 4.039-1.42 4.605-3.6l-7.743-2.011a3.182 3.182 0 011.142-1.71 3.271 3.271 0 011.996-.68v8zm4.614-3.635l1.363-5.45-7.761-1.94-1.363 5.449 7.761 1.94zm-2.518-2.42H67.61v-8H36.373v8zm31.237 0c2.484 0 4.734-1.952 4.734-4.707h-8a3.31 3.31 0 011.016-2.377 3.255 3.255 0 012.25-.916v8zm4.705-4.23l2.726-22.706-7.943-.954-2.726 22.707 7.943.953zM67.09 8.99l4.717 45.715 7.958-.821-4.717-45.716-7.958.822zm4.696 45.305c0 1.647.85 2.845 1.615 3.514.72.63 1.807 1.192 3.119 1.192v-8c.997 0 1.718.41 2.15.788a3.325 3.325 0 011.116 2.506h-8zM76.52 59c2.484 0 4.734-1.952 4.734-4.706h-8a3.31 3.31 0 011.016-2.377A3.254 3.254 0 0176.52 51v8zm4.714-4.307l3.04-30.275-7.96-.8-3.04 30.276 7.96.8zm-4.806-29.648l3.563 13.422 7.733-2.053-3.565-13.422-7.732 2.053zm3.65 13.704c.3.869.832 1.596 1.448 2.13.594.515 1.646 1.167 3.065 1.167v-8c1.105 0 1.842.5 2.174.788.355.307.676.732.872 1.298l-7.56 2.617zm4.513 3.297c2.123 0 4.04-1.42 4.606-3.6l-7.744-2.011a3.183 3.183 0 011.143-1.71 3.271 3.271 0 011.995-.68v8zm4.615-3.635l1.362-5.45-7.76-1.94-1.364 5.449 7.761 1.94zm-2.518-2.42h31.237v-8H86.688v8zm31.237 0c2.484 0 4.733-1.952 4.733-4.707h-8a3.31 3.31 0 011.016-2.377 3.255 3.255 0 012.251-.916v8zm4.709-4.268l2.516-22.807-7.952-.877-2.516 22.807 7.952.877zm-5.439-22.835l4.717 45.715 7.958-.82-4.717-45.716-7.958.82zm4.696 45.305c0 1.647.85 2.845 1.614 3.514.721.63 1.808 1.192 3.12 1.192v-8c.997 0 1.717.41 2.149.788a3.322 3.322 0 011.117 2.506h-8zm4.734 4.706c2.484 0 4.733-1.952 4.733-4.706h-8a3.31 3.31 0 011.017-2.377 3.253 3.253 0 012.25-.917v8zm4.713-4.307l3.04-30.275-7.96-.8-3.039 30.276 7.959.8zm-4.806-29.648l3.564 13.422 7.732-2.053-3.564-13.422-7.732 2.053zm3.65 13.704a5.013 5.013 0 001.449 2.13c.594.515 1.646 1.167 3.065 1.167v-8c1.105 0 1.842.5 2.174.788.354.307.676.732.872 1.298l-7.56 2.617zm4.514 3.297c2.123 0 4.039-1.42 4.605-3.6l-7.743-2.01a3.181 3.181 0 011.143-1.71 3.27 3.27 0 011.995-.68v8zm4.614-3.635l1.363-5.45-7.761-1.94-1.363 5.45 7.761 1.94zm-2.518-2.42h31.237v-8h-31.237v8zm31.237 0c2.484 0 4.734-1.952 4.734-4.707h-8a3.31 3.31 0 011.016-2.377 3.255 3.255 0 012.25-.916v8zm4.71-4.268l2.516-22.807-7.952-.877-2.516 22.807 7.952.877zM167.3 8.787l4.717 45.715 7.958-.82-4.717-45.716-7.958.82zm4.696 45.305c0 1.647.85 2.845 1.614 3.514.721.63 1.808 1.192 3.12 1.192v-8c.997 0 1.717.41 2.149.788a3.325 3.325 0 011.117 2.506h-8zm4.734 4.706c2.484 0 4.733-1.952 4.733-4.706h-8c0-.875.356-1.742 1.016-2.377a3.255 3.255 0 012.251-.917v8zm4.713-4.307l3.04-30.275-7.96-.8-3.04 30.276 7.96.8zm-4.806-29.648l3.564 13.422 7.732-2.053-3.564-13.422-7.732 2.053zm3.65 13.704a5.004 5.004 0 001.449 2.13c.594.515 1.645 1.167 3.065 1.167v-8c1.105 0 1.842.5 2.174.788.354.307.676.732.872 1.298l-7.56 2.617zm4.514 3.297c2.122 0 4.039-1.42 4.605-3.6l-7.743-2.01a3.18 3.18 0 011.143-1.71 3.269 3.269 0 011.995-.68v8zm4.614-3.635l1.363-5.45-7.761-1.94-1.363 5.45 7.761 1.94zm-2.518-2.42H200v-8h-13.103v8zm17.103-4v-1.312h-8v1.312h8z" fill="#806BE7" mask="url(#a)"/></svg>