<svg width="169" height="194" fill="none" xmlns="http://www.w3.org/2000/svg"><path d="M129.46 61.695l-18.114-18.112a1.993 1.993 0 00-1.408-.583H50.817a5.979 5.979 0 00-5.972 5.972v3.795c-9.779 3.836-16.721 13.367-16.721 24.49 0 1.099.891 1.99 1.99 1.99h24.304c1.1 0 1.99-.891 1.99-1.99V52.953c0-1.1-.89-1.99-1.99-1.99-1.918 0-3.789.208-5.592.6v-2.591c0-1.098.893-1.99 1.991-1.99h57.131v12.142a5.979 5.979 0 005.972 5.972h12.142v73.852c0 1.097-.893 1.99-1.99 1.99H50.817a1.993 1.993 0 01-1.99-1.99v-17.053a1.991 1.991 0 00-3.982 0v17.053a5.979 5.979 0 005.972 5.972h73.255a5.979 5.979 0 005.972-5.972V63.103c0-.528-.21-1.035-.584-1.408zm-77.033-6.663v20.234H32.193c.952-10.719 9.516-19.282 20.234-20.234zm61.493 6.083a1.993 1.993 0 01-1.991-1.991v-9.328l11.32 11.319h-9.329z" fill="#806BE7"/><path d="M48.243 113.255a2.001 2.001 0 00-1.407-.583c-.524 0-1.037.212-1.408.583-.37.37-.583.884-.583 1.407 0 .524.213 1.037.583 1.407.37.371.884.584 1.408.584.523 0 1.037-.213 1.407-.584.37-.37.583-.883.583-1.407 0-.523-.213-1.037-.583-1.407zM61.548 58.093c-1.099 0-1.99.891-1.99 1.99v22.313H37.245c-1.1 0-1.99.891-1.99 1.99 0 14.5 11.794 26.295 26.293 26.295 14.499 0 26.294-11.796 26.294-26.294 0-14.499-11.795-26.294-26.294-26.294zm1.99 4.07a22.212 22.212 0 0112.31 5.109l-12.31 12.309V62.162zm-1.99 44.537c-11.632 0-21.215-8.948-22.224-20.323h22.224c.55 0 1.047-.222 1.407-.582h.001l15.708-15.708a22.213 22.213 0 015.197 14.3c0 12.303-10.01 22.313-22.313 22.313zM115.328 105.825a5.979 5.979 0 00-5.972 5.972c0 .825.168 1.612.472 2.327l-11.469 11.469a5.936 5.936 0 00-2.606-.6c-.912 0-1.776.206-2.55.573l-7.616-7.616c.264-.673.41-1.406.41-2.172a5.979 5.979 0 00-5.971-5.972 5.979 5.979 0 00-5.972 5.972c0 .892.198 1.739.55 2.5l-7.304 7.304a5.938 5.938 0 00-2.568-.581 5.979 5.979 0 00-5.971 5.972 5.979 5.979 0 005.971 5.972 5.979 5.979 0 005.972-5.972c0-.923-.21-1.798-.586-2.579l7.264-7.264a5.93 5.93 0 002.644.62 5.927 5.927 0 002.948-.782l7.401 7.401a5.935 5.935 0 00-.594 2.596 5.979 5.979 0 005.972 5.972 5.979 5.979 0 005.972-5.972c0-.908-.205-1.768-.568-2.539l11.361-11.361a5.933 5.933 0 002.81.704 5.979 5.979 0 005.971-5.972 5.979 5.979 0 00-5.971-5.972zm-50.596 27.139a1.993 1.993 0 01-1.99-1.991c0-1.098.893-1.991 1.99-1.991.535 0 1.02.213 1.377.557l.023.026.03.026c.346.359.56.846.56 1.382a1.993 1.993 0 01-1.99 1.991zm15.294-15.195a1.993 1.993 0 01-1.99-1.991c0-1.098.892-1.991 1.99-1.991 1.097 0 1.99.893 1.99 1.991a1.993 1.993 0 01-1.99 1.991zm15.726 15.186a1.993 1.993 0 01-1.99-1.99c0-1.098.893-1.991 1.99-1.991 1.098 0 1.991.893 1.991 1.991 0 1.097-.893 1.99-1.99 1.99zm19.575-19.168a1.993 1.993 0 01-1.99-1.99c0-1.098.893-1.991 1.99-1.991 1.098 0 1.991.893 1.991 1.991 0 1.097-.893 1.99-1.991 1.99zM105.378 89.78H94.871a1.99 1.99 0 000 3.98h10.507a1.99 1.99 0 000-3.98zM115.848 90.363a2.003 2.003 0 00-1.407-.584c-.523 0-1.037.213-1.407.584-.37.37-.583.884-.583 1.407 0 .524.212 1.037.583 1.407.37.37.882.584 1.407.584.524 0 1.037-.213 1.407-.584.371-.37.584-.883.584-1.407 0-.523-.213-1.037-.584-1.407zM119.188 70.67H94.871a1.99 1.99 0 000 3.98h24.317a1.99 1.99 0 000-3.98zM119.188 80.225H94.871a1.99 1.99 0 000 3.98h24.317a1.99 1.99 0 000-3.98z" fill="#806BE7"/><path d="M163.038 51.063v91.362l-79.1 45.806-79.1-45.806V51.063l79.1-45.807 79.1 45.807z" stroke="#806BE7" stroke-width="2"/></svg>