<svg width="169" height="194" fill="none" xmlns="http://www.w3.org/2000/svg"><path d="M117.493 135.869c-4.541-22.8-4.345-21.83-4.367-21.923-.596-2.882-2.27-5.275-4.984-6.774-1.269-.703-2.001-.813-2.641-1.022l-11.156-3.874-3.718-2.55v-2.893c5.437-3.23 8.898-8.792 9.531-14.811 4.543.21 7.71-4.132 5.805-7.934v-12.17c0-8.801-4.787-11.864-6.25-12.593-7.155-8.543-20.517-10.733-30.646-5.536l-.02.01c-.173.102-2.261 1.068-4.832 3.217a1.493 1.493 0 001.953 2.259c9.92-8.33 24.645-6.19 31.453 2.204.167.206.371.359.62.452.194.078 4.736 1.99 4.736 9.987v9.422a6.423 6.423 0 00-2.704-.503v-4.883a2.387 2.387 0 00-2.17-2.382c-2.51-.243-3.915-1.877-4.653-3.206a2.996 2.996 0 00-4.572-.826c-6.657 5.69-14.322 5.98-19.58 5.221-3.971-.573-7.665 2.132-8.308 6.078a6.457 6.457 0 00-2.8.501c.006-5.14-.587-10.732 3.617-17.14a1.493 1.493 0 10-2.5-1.634c-5.72 8.766-3.674 16.621-4.102 21.522-1.904 3.8 1.258 8.144 5.804 7.933.742 7.09 5.11 11.168 5.213 11.345.775.744 2.167 2.296 4.88 3.791v2.568l-3.717 2.55c-14.549 5.054-13.072 4.44-14.254 5.163-2.234 1.376-3.783 3.48-4.428 6.072-.127.512.084-.456-4.465 22.359-.092.461-.14 1.359-.058 2.121.337 3.133 2.56 4.93 6.096 4.93H91.3a1.493 1.493 0 000-2.986H60.775v-13.68a1.493 1.493 0 00-2.986 0v13.68h-7.513c-2.341 0-3.44-1.004-3.101-3.525 4.085-19.963 4.094-21.573 4.762-23.209.116-.163.76-2.467 3.916-3.807.327-.133.123-.044 1.246-.386.069-.02-.273.097 5.088-1.765l3.577 6.602a1.492 1.492 0 102.625-1.423l-3.343-6.172 2.286-.794 11.922 22.007c.655 1.213 2.322 1.273 3.09.214.139-.192-.656 1.235 12.035-22.228l2.286.794-12.086 22.356c-1.593 2.948-5.83 2.948-7.424.004l-5.447-10.055a1.493 1.493 0 10-2.626 1.422l5.447 10.055c2.725 5.029 9.958 5.024 12.677-.005l12.317-22.784c5.349 1.857 5.036 1.751 5.105 1.771 1.052.321.935.259 1.245.386 1.142.486 1.823 1.047 1.803 1.033 1.171.944 1.978 2.035 2.409 3.641.071.255 4.503 22.229 4.521 22.971.045 1.874-.765 2.897-3.151 2.897h-7.514v-13.68a1.492 1.492 0 00-2.986 0v13.68h-2.69a1.493 1.493 0 100 2.986h13.189c3.537 0 5.759-1.797 6.096-4.928.081-.747.033-1.665-.057-2.123zm-17.22-62.045c1.722-.091 3.263 1.068 3.263 2.607 0 1.553-1.558 2.697-3.263 2.607v-5.214zm-39.378 5.214c-1.722.091-3.263-1.069-3.263-2.607 0-1.554 1.558-2.697 3.263-2.607v5.214zm7.977-11.322c5.868.848 14.44.51 21.945-5.906l.022.006c1.442 2.596 3.718 4.236 6.448 4.66v5.288l-1.704 1.005a3.879 3.879 0 00-3.189-1.675h-6.832a3.887 3.887 0 00-3.582 2.389h-2.792a3.887 3.887 0 00-3.582-2.39h-6.832c-1.321 0-2.489.665-3.19 1.676l-1.696-1c.147-2.553 2.454-4.418 4.984-4.053zm24.418 7.26v2.973a2.351 2.351 0 01-2.349 2.348h-3.926a2.351 2.351 0 01-2.349-2.348v-2.973c0-.486.41-.896.896-.896h6.832c.485 0 .896.41.896.896zm-16.789 0v2.973a2.351 2.351 0 01-2.348 2.348h-3.927a2.351 2.351 0 01-2.348-2.348v-2.973c0-.486.41-.896.896-.896h6.832c.485 0 .895.41.895.896zm-8.594 15.799c-4.832-5.632-3.9-11.1-4.026-15.544l1.011.597v2.12a5.34 5.34 0 005.335 5.335h3.926a5.34 5.34 0 005.334-5.334v-1.48h2.194v1.48a5.34 5.34 0 005.334 5.334h3.927a5.34 5.34 0 005.334-5.334v-2.121l1.012-.597v4.668c0 8.88-7.028 16.595-16.703 16.701h-.202c-2.58-.027-4.564-.688-4.363-.632-2.93-.813-5.724-2.49-8.113-5.193zm12.958 16.702l-6.776-7.54v-1.448a19.857 19.857 0 009.357.892c.84-.122 1.743-.322 2.272-.471.126-.041.846-.213 1.924-.628v1.655l-6.777 7.54zm1.682 5.321l-.66 1.358h-2.043l-.66-1.358 1.681-1.235 1.682 1.235zm-5.616 4.108l-.951-1.755.757-.556.566 1.165-.372 1.146zm-2.376-4.413l-4.536-8.391 2.346-1.617 6.289 6.998-4.1 3.01zm6.31 11.674l-1.972-3.64 1.1-3.385h1.745l1.098 3.379-1.971 3.646zm3.931-7.272l-.369-1.135.566-1.166.75.55-.947 1.751zm2.38-4.402l-4.099-3.01 6.29-6.998 2.345 1.617-4.536 8.391z" fill="#806BE7"/><path d="M163.038 51.063v91.362l-79.1 45.806-79.1-45.806V51.063l79.1-45.807 79.1 45.807z" stroke="#806BE7" stroke-width="2"/></svg>