<svg width="20" height="20" viewBox="0 0 20 20" fill="none" xmlns="http://www.w3.org/2000/svg">
<path d="M4 7.17048C4.11248 6.6362 4.19684 6.07382 4.50616 5.59578C5.18102 4.471 6.24957 4.04921 7.48683 4.02109C9.174 3.99297 10.833 3.99297 12.5202 4.02109C13.645 4.04921 14.6573 4.41476 15.3603 5.39895C15.8102 6.04569 15.9789 6.74868 15.9789 7.50791C16.007 9.11072 16.007 10.7135 15.9789 12.3445C15.9508 13.638 15.5009 14.7346 14.2917 15.4095C13.7294 15.7188 13.1107 15.8594 12.4921 15.8594C10.833 15.8875 9.17399 15.8875 7.54306 15.8594C6.3058 15.8313 5.23727 15.4095 4.53428 14.2847C4.22496 13.8067 4.1406 13.2443 4.02812 12.71C4 10.826 4 8.99824 4 7.17048ZM9.98946 5.14587C9.17399 5.14587 8.35852 5.11775 7.51494 5.14587C6.22144 5.17399 5.4341 5.7645 5.20914 6.88928C5.1529 7.11424 5.12478 7.36731 5.12478 7.59227C5.12478 9.13884 5.09666 10.7135 5.12478 12.2601C5.1529 13.8067 5.94025 14.6221 7.43058 14.6784C9.11775 14.7346 10.8049 14.7346 12.4921 14.6784C13.7294 14.6503 14.4605 14.0316 14.7135 12.9631C14.7698 12.7663 14.7979 12.5694 14.7979 12.3726C14.7979 10.6011 14.9104 8.82953 14.7417 7.058C14.6573 6.01758 13.9543 5.31459 12.9139 5.17399C11.9578 5.06151 10.9736 5.17399 9.98946 5.14587Z" fill="#474747"/>
<path d="M13.0826 9.92608C13.0826 11.5851 11.7047 12.963 9.98943 12.9911C8.27414 13.0192 6.86816 11.6133 6.86816 9.89796C6.86816 8.21079 8.30226 6.80481 9.98943 6.83293C11.7328 6.86105 13.0826 8.23891 13.0826 9.92608ZM11.9297 9.92608C11.9297 8.85754 11.058 7.98584 9.98943 7.98584C8.92089 7.98584 8.02107 8.85754 8.02107 9.92608C8.02107 10.9946 8.89277 11.8663 9.96131 11.8663C11.058 11.8663 11.9297 10.9946 11.9297 9.92608Z" fill="#474747"/>
<path d="M13.1669 6.01758C13.5887 6.01758 13.9262 6.35501 13.9262 6.74868C13.9262 7.14236 13.5887 7.47979 13.1951 7.47979C12.7733 7.47979 12.4358 7.17048 12.4077 6.74868C12.4077 6.35501 12.7451 6.01758 13.1669 6.01758Z" fill="#474747"/>
<circle cx="10" cy="10" r="9.5" stroke="#474747"/>
</svg>
