<svg width="20" height="20" viewBox="0 0 20 20" fill="none" xmlns="http://www.w3.org/2000/svg">
<path d="M4.15381 13.6243C5.48073 13.7397 6.63458 13.4224 7.70189 12.6724C7.47112 12.6147 7.26919 12.5859 7.09612 12.5282C6.37496 12.2974 5.88458 11.8359 5.56727 11.1435C5.48073 10.9416 5.48073 10.9128 5.7115 10.9128C5.94227 10.9128 6.17304 10.9416 6.4615 10.8551C6.02881 10.7397 5.68266 10.5378 5.39419 10.2782C4.93266 9.84547 4.64419 9.29739 4.61534 8.66278C4.5865 8.40316 4.61535 8.37432 4.84611 8.4897C5.07688 8.60509 5.30765 8.66278 5.59612 8.66278C5.42304 8.46086 5.22112 8.31662 5.10573 8.1147C4.55766 7.33585 4.47111 6.49932 4.84611 5.63393C4.93265 5.40316 4.99035 5.40316 5.16342 5.57624C5.99996 6.49932 6.98073 7.19162 8.16342 7.59547C8.68265 7.76855 9.20188 7.88393 9.74996 7.94162C10.0384 7.97047 10.0673 7.94162 10.0096 7.65316C9.8942 6.67239 10.4423 5.66278 11.3365 5.20124C12.2307 4.7397 13.3846 4.85509 14.1057 5.54739C14.25 5.69163 14.3942 5.69162 14.5673 5.66278C14.9423 5.54739 15.3173 5.43201 15.6634 5.23008C15.7211 5.20124 15.7788 5.14355 15.8653 5.17239C15.6923 5.69162 15.375 6.09547 14.9423 6.44162C15.3461 6.38393 15.75 6.26855 16.1538 6.12432C16.1538 6.26855 16.0673 6.32624 16.0384 6.41278C15.7788 6.73009 15.5192 7.01855 15.2019 7.24932C15.0577 7.3647 15 7.48009 15 7.68201C15.0288 9.32624 14.5096 10.7974 13.5288 12.0955C12.375 13.6532 10.7884 14.5185 8.88458 14.7493C7.29804 14.9512 5.79804 14.6339 4.41342 13.8551C4.35573 13.8262 4.32688 13.7974 4.26919 13.7685C4.2115 13.7109 4.18265 13.682 4.15381 13.6243Z" fill="#474747"/>
<circle cx="10" cy="10" r="9.5" stroke="#474747"/>
</svg>
