<svg width="20" height="20" viewBox="0 0 20 20" fill="none" xmlns="http://www.w3.org/2000/svg">
<path d="M12.0887 9.5603C12.0887 9.58745 12.0887 9.61459 12.0887 9.64173C12.1159 9.61459 12.1159 9.58745 12.0887 9.5603Z" fill="#474747"/>
<path d="M9.99883 5C4.10858 5 4 5.51574 4 9.61448C4 13.7132 4.10858 14.229 9.99883 14.229C15.8891 14.229 15.9977 13.7132 15.9977 9.61448C16.0248 5.51574 15.9162 5 9.99883 5ZM11.9261 9.91306L9.21165 11.216C8.9945 11.3246 8.7502 11.1617 8.7502 10.9174V8.36586C8.7502 8.12156 8.9945 7.9587 9.21165 8.06727L11.9261 9.3159C12.0346 9.37018 12.0889 9.45162 12.1161 9.56019C12.1161 9.58734 12.1161 9.61448 12.1161 9.64162C12.0889 9.7502 12.0346 9.85878 11.9261 9.91306Z" fill="#474747"/>
<circle cx="10" cy="10" r="9.5" stroke="#474747"/>
</svg>
