<svg width="20" height="20" viewBox="0 0 20 20" fill="none" xmlns="http://www.w3.org/2000/svg">
<path d="M7.22222 6.11111C7.22222 6.72515 6.84211 7.22222 6.11111 7.22222C5.4386 7.22222 5 6.72515 5 6.16959C5 5.55556 5.4386 5 6.11111 5C6.78363 5 7.22222 5.49708 7.22222 6.11111Z" fill="#474747"/>
<path d="M7.22222 7.77783H5V15.0001H7.22222V7.77783Z" fill="#474747"/>
<path d="M12.5439 7.89465C11.3743 7.89465 10.7018 8.56717 10.4386 9.00577H10.3802L10.2632 8.07009H8.2749C8.2749 8.68413 8.33338 9.41512 8.33338 10.2338V14.9999H10.5556V11.0525C10.5556 10.8186 10.5556 10.6724 10.6141 10.497C10.7895 10.1169 11.0527 9.6198 11.6667 9.6198C12.4562 9.6198 12.7778 10.2923 12.7778 11.1695V14.9999H15V10.9063C15 8.83033 13.9474 7.89465 12.5439 7.89465Z" fill="#474747"/>
<circle cx="10" cy="10" r="9.5" stroke="#474747"/>
</svg>
