<svg width="107" height="106" fill="none" xmlns="http://www.w3.org/2000/svg"><circle cx="53.455" cy="52.727" r="51.727" stroke="#806BE7" stroke-width="2"/><path d="M25.02 63.328a.858.858 0 00.858-.858V40.382h8.804a.858.858 0 100-1.716h-8.804v-6.63c0-1.105.898-2.003 2.002-2.003h38.066a.858.858 0 100-1.716H27.88a3.723 3.723 0 00-3.718 3.718V62.47c0 .474.384.858.858.858z" fill="#806BE7"/><path d="M79.029 28.317h-9.06a.858.858 0 100 1.716h9.06c1.104 0 2.002.898 2.002 2.002v6.631H38.694a.858.858 0 100 1.716H81.03V73a2.005 2.005 0 01-2.002 2.002H27.88A2.005 2.005 0 0125.878 73v-6.513a.858.858 0 10-1.716 0V73a3.723 3.723 0 003.718 3.719H79.03a3.723 3.723 0 003.719-3.72V32.036a3.723 3.723 0 00-3.72-3.718zM29.167 34.375a2.578 2.578 0 002.575 2.575 2.578 2.578 0 002.574-2.575 2.578 2.578 0 00-2.574-2.575 2.578 2.578 0 00-2.575 2.575zm3.433 0a.86.86 0 01-1.716 0 .86.86 0 011.716 0zM41.182 34.375a2.578 2.578 0 00-2.575-2.575 2.578 2.578 0 00-2.574 2.575 2.578 2.578 0 002.574 2.575 2.578 2.578 0 002.575-2.575zm-3.433 0a.86.86 0 111.718.002.86.86 0 01-1.718-.002z" fill="#806BE7"/><path d="M42.898 34.375a2.578 2.578 0 002.575 2.575 2.578 2.578 0 002.574-2.575 2.578 2.578 0 00-2.574-2.575 2.578 2.578 0 00-2.575 2.575zm3.433 0a.86.86 0 01-1.717 0 .86.86 0 011.717 0zM51.91 34.375a2.578 2.578 0 002.574 2.575h21.169a2.578 2.578 0 002.575-2.575 2.578 2.578 0 00-2.575-2.575H54.484a2.578 2.578 0 00-2.574 2.575zm24.601 0a.86.86 0 01-.858.858H54.484a.86.86 0 010-1.716h21.169a.86.86 0 01.858.858zM31.04 45.88v23.686a2.578 2.578 0 002.574 2.574H73.32a2.578 2.578 0 002.575-2.574V45.88a2.578 2.578 0 00-2.575-2.575H33.614a2.578 2.578 0 00-2.574 2.575zm42.28 24.544H33.614a.86.86 0 01-.858-.858v-2.059h28.136v.286a.858.858 0 101.716 0v-.286h11.57v2.059a.86.86 0 01-.858.858zM45.73 65.79h-7.437v-.4c0-1.105.898-2.003 2.002-2.003h3.433c1.104 0 2.003.898 2.003 2.002v.4zM74.179 45.88v19.91h-11.57v-.285a.858.858 0 10-1.716 0v.286H47.447v-.4a3.723 3.723 0 00-3.719-3.72h-3.433a3.723 3.723 0 00-3.718 3.72v.4h-3.821V45.88a.86.86 0 01.858-.859H73.32a.86.86 0 01.858.859z" fill="#806BE7"/><path d="M42.07 59.955a3.609 3.609 0 003.603-3.604 3.608 3.608 0 00-3.604-3.605 3.609 3.609 0 00-3.604 3.605 3.609 3.609 0 003.604 3.604zm0-5.492a1.89 1.89 0 011.887 1.888 1.89 1.89 0 01-1.888 1.888 1.89 1.89 0 01-1.888-1.888 1.89 1.89 0 011.888-1.888zM53.512 62.93h17.507c.788 0 1.43-.641 1.43-1.43v-3.38a.858.858 0 10-1.716 0v3.094H53.798V48.513h16.935v5.594a.858.858 0 101.716 0v-5.88c0-.79-.641-1.43-1.43-1.43H53.512c-.789 0-1.43.64-1.43 1.43V61.5c0 .789.641 1.43 1.43 1.43z" fill="#806BE7"/><path d="M58.287 58.69a9.878 9.878 0 003.974.832c1.204.011 2.756-.291 3.971-.831a1.53 1.53 0 00.927-1.408v-2.9l.962-.275a1.1 1.1 0 00.803-1.054 1.1 1.1 0 00-.782-1.07l-5.3-1.635a2.095 2.095 0 00-1.25.003l-5.22 1.634c-.47.146-.782.576-.777 1.068a1.1 1.1 0 00.799 1.052l.977.285v2.896c0 .607.36 1.158.916 1.403zm7.156-1.528a8.187 8.187 0 01-6.355.004V54.89l2.545.74a2.108 2.108 0 001.168.003l2.642-.757v2.286zm-3.338-5.172a.389.389 0 01.231 0l3.346 1.032-3.354.961a.387.387 0 01-.216 0l-3.303-.961 3.296-1.032z" fill="#806BE7"/></svg>