<svg width="107" height="106" fill="none" xmlns="http://www.w3.org/2000/svg"><circle cx="53.318" cy="52.727" r="51.727" stroke="#806BE7" stroke-width="2"/><path d="M39.364 32.883h1.89v7.558h1.89v-7.558h1.89v-1.89h-5.67v1.89zM62.04 32.883h1.89v7.558h1.89v-7.558h1.89v-1.89h-5.67v1.89zM46.923 31.938v7.559a.945.945 0 00.945.944h4.724v-1.89h-3.78v-1.889h3.78v-1.89h-3.78v-1.89h3.78v-1.889h-4.724a.945.945 0 00-.945.945zM54.482 33.828a2.834 2.834 0 002.834 2.834.945.945 0 110 1.89h-2.834v1.89h2.834a2.835 2.835 0 100-5.67.945.945 0 010-1.89h2.835v-1.889h-2.835a2.835 2.835 0 00-2.834 2.835z" fill="#806BE7"/><path d="M36.53 44.221h34.014a.945.945 0 00.945-.945V28.16a.945.945 0 00-.945-.945H36.53a.945.945 0 00-.945.945v15.117a.945.945 0 00.945.945zm.944-15.117H69.6V42.33H37.474V29.103zM35.584 55.56h5.67a.945.945 0 00.944-.946v-5.281l2.56-2.551-1.34-1.342L40.865 48h-5.282a.945.945 0 00-.944.945v5.67a.945.945 0 00.944.944zm4.725-1.89h-2.447l2.447-2.448v2.447zm-1.332-3.78l-2.448 2.447V49.89h2.447zM41.254 66.897h-5.67a.945.945 0 00-.944.945v5.67a.945.945 0 00.944.944h5.67a.945.945 0 00.944-.945v-5.669a.945.945 0 00-.944-.945zm-.945 5.67h-3.78v-3.78h3.78v3.78zM42.472 55.833l-1.606 1.616h-5.282a.945.945 0 00-.944.945v5.669a.945.945 0 00.944.944h5.67a.945.945 0 00.944-.944V58.78l1.616-1.606-1.342-1.342zm-3.495 3.505l-2.448 2.448v-2.448h2.447zm1.332 3.78h-2.447l2.447-2.447v2.447zM44.088 48.945h27.4v1.89h-27.4v-1.89zM44.088 67.842h12.283v1.89H44.088v-1.89zM44.088 71.621h27.4v1.89h-27.4v-1.89z" fill="#806BE7"/><path d="M89.167 43.55l-3.78-3.78a.946.946 0 00-1.341 0l-7.833 7.843V24.379a.945.945 0 00-.945-.945H31.805a.945.945 0 00-.945.945v56.69a.945.945 0 00.945.946h43.463a.945.945 0 00.945-.945V57.836l12.954-12.944a.944.944 0 000-1.342zM62.362 64.771l1.804 1.805-3.165 1.36 1.36-3.165zm1.01-1.653l17.565-17.565L83.384 48 65.82 65.565l-2.447-2.447zm10.951 17.007H32.75V25.324h41.573v24.179l-3.222 3.221H44.088v1.89h25.124l-3.78 3.78H44.088v1.89h19.455l-1.89 1.889H44.088v1.89h16.516l-2.267 5.3a.945.945 0 001.237 1.238l6.614-2.835a1.05 1.05 0 00.302-.198l7.833-7.842v20.399zm10.394-33.457l-2.448-2.447 2.448-2.447 2.447 2.447-2.447 2.447z" fill="#806BE7"/></svg>