<svg width="106" height="106" fill="none" xmlns="http://www.w3.org/2000/svg"><circle cx="53.023" cy="52.727" r="51.727" stroke="#D5205F" stroke-width="2"/><g clip-path="url(#clip0)" fill="#D5205F"><path d="M53.023 23.434H40.329a.976.976 0 00-.976.977v6.835H24.706a.976.976 0 00-.976.976v48.822c0 .539.437.976.976.976h28.317c.539 0 .976-.437.976-.976V24.41a.977.977 0 00-.976-.977zm-.977 50.775h-10.74v-1.953h10.74v1.953zM25.683 38.08h13.67v29.293h-13.67V38.08zm26.363-3.906h-10.74v-2.93h10.74v2.93zM25.683 69.327h13.67v2.929h-13.67v-2.93zm15.623.976V36.128h10.74v34.175h-10.74zm10.74-44.916v3.906h-10.74v-3.906h10.74zM39.353 33.2v2.929h-13.67v-2.93h13.67zm-13.67 41.01h13.67v5.858h-13.67V74.21zm15.623 5.858v-3.905h10.74v3.905h-10.74z"/><path d="M82.284 76.892L70.567 31.976a.975.975 0 00-1.197-.697l-14.646 3.906a.976.976 0 00-.693 1.189L65.748 81.29a.974.974 0 001.197.695l14.646-3.906a.976.976 0 00.693-1.187zM57.721 42.785l12.76-3.402.46 1.758-12.76 3.407-.46-1.763zm13.712.25l5.663 21.724-12.755 3.403-5.663-21.725 12.755-3.402zm6.16 23.614l1 3.832-12.76 3.402-.995-3.83 12.756-3.404zm-8.668-33.23l1.063 4.076-12.76 3.4-1.062-4.074 12.76-3.403zM67.39 79.846l-1.063-4.076 12.76-3.403 1.062 4.075-12.76 3.404zM36.423 41.01h-7.811a.976.976 0 00-.976.977v7.811c0 .54.437.976.976.976h7.811c.54 0 .977-.437.977-.976v-7.812a.976.976 0 00-.977-.976zm-.976 7.812h-5.859v-5.859h5.859v5.858z"/></g><defs><clipPath id="clip0"><path fill="#fff" transform="translate(23.73 23.434)" d="M0 0h58.586v58.586H0z"/></clipPath></defs></svg>