<svg width="558" height="418" fill="none" xmlns="http://www.w3.org/2000/svg"><path d="M253.667 262.803l51.498 29.736v59.471l-51.498 29.736-51.497-29.736v-59.471l51.497-29.736zm49.671 30.566l-49.671-28.572-49.67 28.738v57.312l49.67 28.739 49.671-28.739v-57.478z" fill="#806BE7" fill-opacity=".1"/><path d="M152.665 262.803l51.497 29.736v59.471l-51.497 29.736-51.497-29.736v-59.471l51.497-29.736zm49.67 30.566l-49.67-28.739-49.67 28.739v57.312l49.67 28.739 49.67-28.739v-57.312z" fill="#806BE7" fill-opacity=".1"/><path d="M51.498 262.803l51.497 29.736v59.471l-51.498 29.736L0 352.01v-59.471l51.498-29.736zm49.67 30.566l-49.67-28.739-49.67 28.739v57.312l49.67 28.739 49.67-28.739v-57.312zM506.503 175.091L558 204.827v59.471l-51.497 29.736-51.498-29.736v-59.471l51.498-29.736zm49.67 30.733l-49.67-28.739-49.67 28.739v57.478l49.67 28.738 49.67-28.738v-57.478z" fill="#806BE7" fill-opacity=".1"/><path d="M405.335 175.091l51.498 29.736v59.471l-51.498 29.736-51.497-29.736v-59.471l51.497-29.736zm49.67 30.733l-49.67-28.739-49.67 28.739v57.478l49.67 28.738 49.67-28.738v-57.478z" fill="#806BE7" fill-opacity=".1"/><path d="M304.334 175.091l51.497 29.736v59.471l-51.497 29.736-51.498-29.736v-59.471l51.498-29.736zm49.67 30.733l-49.67-28.739-49.67 28.739v57.478l49.67 28.738 49.67-28.738v-57.478z" fill="#806BE7" fill-opacity=".1"/><path d="M203.165 175.091l51.498 29.736v59.471l-51.498 29.736-51.497-29.736v-59.471l51.497-29.736zm49.67 30.733l-49.67-28.739-49.67 28.739v57.478l49.67 28.738 49.67-28.738v-57.478z" fill="#806BE7" fill-opacity=".1"/><path d="M101.999 175.091l51.497 29.736v59.471l-51.497 29.736-51.498-29.736v-59.471L102 175.091zm49.67 30.733l-49.67-28.739-49.67 28.739v57.478l49.67 28.738 49.67-28.738v-57.478zM456.002 87.546l51.497 29.735v59.472l-51.497 29.735-51.498-29.735v-59.472l51.498-29.735zm49.67 30.732l-49.67-28.739-49.671 28.739v57.312l49.671 28.739 49.67-28.739v-57.312z" fill="#806BE7" fill-opacity=".1"/><path d="M354.835 87.546l51.497 29.735v59.472l-51.497 29.735-51.497-29.735v-59.472l51.497-29.735zm49.67 30.732l-49.67-28.739-49.67 28.739v57.312l49.67 28.739 49.67-28.739v-57.312zM152.665 87.546l51.497 29.735v59.472l-51.497 29.735-51.497-29.735v-59.472l51.497-29.735zm49.67 30.732l-49.67-28.739-49.67 28.739v57.312l49.67 28.739 49.67-28.739v-57.312z" fill="#806BE7" fill-opacity=".1"/><path d="M405.335 0l51.498 29.736v59.47l-51.498 29.737-51.497-29.736V29.736L405.335 0zm49.67 30.732l-49.67-28.739-49.67 28.74v57.311l49.67 28.739 49.67-28.739V30.732z" fill="#806BE7" fill-opacity=".1"/><path d="M269.119 140.669h-.002l-16.776-9.679V52.406l67.94-39.29 67.94 39.29v78.587l-20.596 12.001-.004.003-47.339 27.285-51.163-29.613zm51.162 272.647l-67.94-39.29v-.288l.235-.136h-.235v-78.16l16.776-9.679h.002l51.163-29.613 47.339 27.286.004.002 20.596 12.001v78.587l-67.94 39.29zm-72.598-117.874v78.68l-67.774 39.195-68.106-39.292v-78.584l67.94-39.29 38.538 22.302v.001l29.402 16.988zm-31.556-23.371l-.002-.001-34.053-19.646v-78.583l67.939-39.29 38.704 22.467.003.002 29.234 16.822v78.582l-29.234 16.822-.003.002-38.703 22.467-33.885-19.644zm140.372 0l-.002-.001-34.053-19.646v-78.582l34.053-19.646 34.053-19.646 67.941 39.291v78.583l-34.053 19.646-34.053 19.646-33.886-19.645zm65.782 6.383l.001-.001 38.538-22.302 67.94 39.29v78.585l-67.94 39.29-67.941-39.29v-78.584l29.402-16.988z" stroke="#806BE7" stroke-width="2"/><path d="M292.872 108.311c-.498 1.661-.83 3.156-1.163 4.817 1.662-.498 3.157-.83 4.818-1.163.498-1.661.831-3.156 1.329-4.651l-4.984.997zm41.198-19.769l-4.153-4.153c-1.495.333-2.824.499-4.319.831l6.645 6.645a23.183 23.183 0 01-3.489 4.485l-9.302-9.303c-1.329.499-2.492.83-3.821 1.33l10.299 10.299c-.83.498-1.495 1.163-2.325 1.495-.831.498-1.828.83-2.658 1.329l-10.466-10.466c-.83.665-1.661 1.33-2.492 2.16 0 0-.166.166-.166.332l9.469 9.469c-1.993.664-3.987 1.329-6.146 1.827l-6.811-6.81c-.665.996-1.329 2.159-1.828 3.322l4.319 4.319c-2.159.498-4.485.83-6.644 1.163a153.65 153.65 0 00-1.495 4.651c9.967-1.993 20.266-2.99 28.572-7.641 7.476-4.153 11.629-12.293 14.287-21.596-1.662.332-3.489.664-5.15.996-.831 1.828-1.495 3.655-2.326 5.316zm-54.155 23.922l3.655 3.654c.498-.332 1.162-.498 1.661-.664l3.322 3.322c.332-1.495.499-2.824.831-4.319l-.499-.498c.167 0 .333-.166.499-.166.332-1.661.83-3.323 1.163-4.984-3.655.831-7.31 1.994-10.632 3.655zm57.145-31.23c1.662-.333 3.323-.665 5.15-.998.499-1.66.831-3.156 1.163-4.817-1.661.498-3.156.83-4.817 1.163-.499 1.495-.997 3.156-1.496 4.651zm1.828-6.812c1.661-.332 3.156-.83 4.817-1.163 0-.166 0-.332.166-.332l.333.332c1.329-.332 2.658-.83 3.82-1.329l-3.322-3.322c.166-.83.332-1.495.498-2.326l-3.654-3.654c-.831 3.82-1.662 7.973-2.658 11.794z" fill="#D5205F"/><path d="M302.84 88.21c-7.642 7.642-10.632 20.931-13.124 34.055l3.655 3.655c2.491-13.124 5.315-26.414 13.123-34.055 1.495-1.495 3.156-2.658 4.984-3.655 12.791-7.143 30.234-5.648 43.69-12.127l-3.655-3.654c-13.456 6.478-30.899 4.983-43.69 12.126-1.827.997-3.488 2.326-4.983 3.655zM406.831 198.681c-10.133 0-18.273 7.973-18.938 17.774h37.876c-.499-9.801-8.805-17.774-18.938-17.774zM387.893 218.615c.499 9.967 8.805 17.941 18.938 17.941s18.439-7.974 18.938-17.941h-37.876zM371.945 184.893c-6.645 0-12.127 5.482-12.127 12.126v36.879c0 3.323 1.329 6.313 3.655 8.638 2.159 2.16 5.316 3.655 8.638 3.655 6.645 0 12.127-5.482 12.127-12.127v-36.878c-.166-6.811-5.648-12.293-12.293-12.293zm9.469 31.23H362.31v-18.605c0-5.316 4.319-9.635 9.635-9.635s9.635 4.319 9.635 9.635v18.605h-.166zM179.576 300.014s-20.931 34.886-20.931 46.514c0 11.462 9.303 20.931 20.931 20.931 11.463 0 20.932-9.303 20.932-20.931-.167-11.628-20.932-46.514-20.932-46.514zm0 62.794a16.378 16.378 0 01-16.446-16.446c0-6.313 8.971-24.42 16.446-37.71 7.476 13.29 16.446 31.397 16.446 37.71a16.377 16.377 0 01-16.446 16.446z" fill="#D5205F"/><path d="M177.417 356.329c-4.153-2.159-6.645-6.479-6.645-11.13 0-.831-.664-1.661-1.661-1.661-.83 0-1.661.664-1.661 1.661 0 5.814 3.156 11.13 8.306 13.954.166.166.498.166.831.166.498 0 1.162-.332 1.329-.83.498-.831.166-1.662-.499-2.16zM281.575 189.544s-2.325 2.326-9.635 2.326c-1.661 0-3.488-.166-5.482-.333-12.126-1.495-17.276-6.977-17.276-6.977s-5.15 5.316-17.277 6.977c-2.159.333-3.987.333-5.482.333-7.143 0-9.635-2.326-9.635-2.326s-6.977 41.53 32.394 64.455c39.37-22.759 32.393-64.455 32.393-64.455zm-32.393 60.136c-14.287-8.805-23.423-21.264-27.244-37.045-1.827-7.143-1.993-13.456-1.827-17.609 1.661.332 3.654.664 6.146.664 1.827 0 3.987-.166 5.981-.332 8.306-.997 13.788-3.821 16.778-5.814 2.99 1.993 8.472 4.817 16.778 5.814 2.159.332 4.153.332 5.98.332 2.492 0 4.486-.166 6.147-.664.664 10.798-1.495 37.709-28.739 54.654z" fill="#D5205F"/><path d="M253.833 203.996h-9.136v8.971h-8.971v8.97h8.971v9.137h9.136v-9.137h8.971v-8.97h-8.971v-8.971zM356.662 331.079c-.499-10.798-9.469-18.938-20.599-18.938h-.997c-6.977.332-12.293 4.818-14.951 7.642-2.658-2.824-7.808-7.476-14.785-7.974h-1.329c-10.964 0-19.934 7.974-20.599 18.605-.664 9.968 6.147 18.606 11.297 24.254 6.645 7.309 17.11 15.283 23.921 19.27l1.163.665 1.163-.665c6.811-3.987 17.442-11.628 24.253-18.938 5.15-5.316 12.127-13.954 11.463-23.921zm-14.785 21.097c-6.811 7.143-16.446 14.12-21.928 17.443-5.482-3.489-15.117-10.466-21.762-17.775-1.329-1.495-2.658-2.99-3.987-4.818h14.121c.166 0 .498-.166.664-.332l.831-.996.996 4.485c0 .332.333.498.665.498s.664-.166.664-.498l.997-4.153 1.163 5.98c0 .332.332.498.664.498.333 0 .665-.166.665-.498l3.488-16.944 2.824 25.084c0 .332.333.498.665.498s.664-.166.664-.498l2.492-14.951.997 6.479c0 .332.332.498.664.498.333 0 .665-.166.665-.498l1.827-5.482.665 3.156c0 .332.332.499.664.499s.665-.167.665-.499l.83-2.326.831 1.163c.166.166.332.333.498.333.166 0 .499-.167.499-.167l1.162-1.329h10.3a69.776 69.776 0 01-4.153 5.15zm5.316-6.478H335.73c-.166 0-.498.166-.498.166l-.83.83-.997-1.495c-.166-.166-.332-.332-.665-.332-.332 0-.498.166-.664.498l-.499 1.329-.83-3.488c0-.333-.332-.499-.665-.499-.332 0-.664.166-.664.499l-1.661 5.149-1.163-7.807c0-.332-.332-.499-.665-.499-.332 0-.664.167-.664.499l-2.326 14.286-2.824-24.586c0-.332-.332-.498-.664-.498-.333 0-.665.166-.665.498l-3.654 17.775-1.163-5.98c0-.332-.333-.499-.665-.499s-.664.167-.664.499l-.997 4.319-.665-2.824c0-.332-.332-.498-.664-.498s-.498 0-.664.332l-1.496 1.993H293.37c-2.99-4.319-5.482-9.469-5.15-14.951.498-7.143 6.146-14.452 16.114-14.452h1.163c7.807.498 13.123 8.14 13.123 8.306l1.827 2.658 1.828-2.658s5.482-7.642 13.289-7.974c10.466-.332 16.612 7.309 16.945 14.619 0 5.648-2.326 10.631-5.316 14.785zM497.034 342.541c0-4.485-3.655-7.974-7.974-7.974-4.485 0-7.974 3.655-7.974 7.974 0 3.821 2.658 6.977 6.313 7.808v13.456c0 9.801-7.974 17.775-17.775 17.775-9.801 0-17.775-7.974-17.775-17.775v-5.482h7.808c4.319 0 7.974-3.323 8.472-7.476l4.485-36.214c.332-2.492-.498-4.984-2.159-6.811-1.662-1.827-3.987-2.99-6.479-2.99h-3.322c-.997 0-1.828.83-1.828 1.827s.831 1.827 1.828 1.827h3.322c1.495 0 2.824.665 3.821 1.662.996 1.162 1.329 2.491 1.163 3.987l-4.486 36.214c-.332 2.492-2.492 4.485-4.983 4.485h-19.27c-2.492 0-4.652-1.827-4.984-4.485l-4.485-36.214c-.166-1.496.332-2.825 1.163-3.987.996-1.163 2.325-1.662 3.82-1.662h4.652c.996 0 1.827-.83 1.827-1.827s-.831-1.827-1.827-1.827h-4.652c-2.491 0-4.817.997-6.478 2.99-1.662 1.827-2.326 4.319-2.16 6.811l4.485 36.214c.499 4.319 4.153 7.476 8.473 7.476h7.807v5.482c0 11.794 9.635 21.263 21.264 21.263 11.794 0 21.263-9.635 21.263-21.263v-13.456c3.987-.831 6.645-3.987 6.645-7.808z" fill="#D5205F"/></svg>