<svg width="216" height="216" fill="none" xmlns="http://www.w3.org/2000/svg"><circle cx="108" cy="108" r="107" fill="#806BE7" fill-opacity=".1" stroke="#806BE7" stroke-width="2"/><path d="M112 51H86a2 2 0 00-2 2v14H54a2 2 0 00-2 2v100a2 2 0 002 2h58a2 2 0 002-2V53a2 2 0 00-2-2zm-2 104H88v-4h22v4zM56 81h28v60H56V81zm54-8H88v-6h22v6zm-54 72h28v6H56v-6zm32 2V77h22v70H88zm22-92v8H88v-8h22zM84 71v6H56v-6h28zm-28 84h28v12H56v-12zm32 12v-8h22v8H88z" fill="#806BE7"/><path d="M171.936 160.496l-24-92a1.998 1.998 0 00-2.452-1.428l-30 8a2 2 0 00-1.42 2.436l24 92a1.996 1.996 0 002.452 1.424l30-8a2 2 0 001.42-2.432zm-50.312-69.86l26.136-6.968.94 3.6-26.134 6.978-.942-3.61zm28.086.512l11.6 44.496-26.126 6.97-11.6-44.498 26.126-6.968zm12.618 48.368l2.048 7.848-26.136 6.968-2.04-7.846 26.128-6.97zM144.572 71.45l2.178 8.35-26.136 6.966-2.176-8.346 26.134-6.97zm-3.144 95.1l-2.178-8.35 26.136-6.97 2.176 8.346-26.134 6.974zM78 87H62a2 2 0 00-2 2v16a2 2 0 002 2h16a2 2 0 002-2V89a2 2 0 00-2-2zm-2 16H64V91h12v12z" fill="#806BE7"/></svg>