<svg width="216" height="216" fill="none" xmlns="http://www.w3.org/2000/svg"><circle cx="108" cy="108" r="107" fill="#806BE7" fill-opacity=".1" stroke="#806BE7" stroke-width="2"/><path d="M49.758 132.714c.97 0 1.758-.787 1.758-1.758V85.714h18.032a1.758 1.758 0 100-3.516H51.516v-13.58a4.106 4.106 0 014.101-4.102h77.97a1.758 1.758 0 100-3.516h-77.97C51.417 61 48 64.417 48 68.617v62.339c0 .971.787 1.758 1.758 1.758z" fill="#806BE7"/><path d="M160.383 61h-18.558a1.758 1.758 0 100 3.516h18.558a4.106 4.106 0 014.101 4.101v13.581H77.766a1.758 1.758 0 100 3.516h86.718v66.809a4.106 4.106 0 01-4.101 4.102H55.617a4.106 4.106 0 01-4.101-4.102v-13.339a1.758 1.758 0 10-3.516 0v13.339c0 4.201 3.417 7.618 7.617 7.618h104.766c4.2 0 7.617-3.417 7.617-7.618V68.617c0-4.2-3.417-7.617-7.617-7.617zM58.253 73.41a5.28 5.28 0 005.273 5.273 5.28 5.28 0 005.274-5.274 5.28 5.28 0 00-5.274-5.273 5.28 5.28 0 00-5.273 5.273zm7.031 0a1.76 1.76 0 01-1.758 1.757 1.76 1.76 0 01-1.758-1.758c0-.969.789-1.757 1.758-1.757.97 0 1.758.788 1.758 1.757zM82.862 73.41a5.28 5.28 0 00-5.273-5.274 5.28 5.28 0 00-5.274 5.273 5.28 5.28 0 005.274 5.274 5.28 5.28 0 005.273-5.274zm-7.031 0c0-.97.788-1.758 1.758-1.758s1.758.788 1.758 1.757a1.76 1.76 0 01-1.758 1.758 1.76 1.76 0 01-1.758-1.758z" fill="#806BE7"/><path d="M86.378 73.41a5.28 5.28 0 005.273 5.273 5.28 5.28 0 005.274-5.274 5.28 5.28 0 00-5.274-5.273 5.28 5.28 0 00-5.273 5.273zm7.031 0a1.76 1.76 0 01-1.758 1.757 1.76 1.76 0 01-1.758-1.758c0-.969.789-1.757 1.758-1.757.97 0 1.758.788 1.758 1.757zM104.836 73.41a5.28 5.28 0 005.273 5.273h43.36a5.28 5.28 0 005.273-5.274 5.28 5.28 0 00-5.273-5.273h-43.36a5.28 5.28 0 00-5.273 5.273zm50.391 0a1.76 1.76 0 01-1.758 1.757h-43.36a1.76 1.76 0 01-1.757-1.758c0-.969.788-1.757 1.757-1.757h43.36a1.76 1.76 0 011.758 1.757zM62.089 96.974v48.516a5.28 5.28 0 005.273 5.273h81.328a5.28 5.28 0 005.274-5.273V96.974a5.28 5.28 0 00-5.274-5.273H67.362a5.28 5.28 0 00-5.273 5.273zm86.601 50.274H67.362a1.76 1.76 0 01-1.758-1.758v-4.217h57.63v.586a1.758 1.758 0 103.516 0v-.586h23.698v4.217a1.76 1.76 0 01-1.758 1.758zm-56.51-9.49H76.945v-.821a4.106 4.106 0 014.102-4.101h7.031a4.106 4.106 0 014.102 4.101v.821zm58.268-40.784v40.784H126.75v-.586a1.758 1.758 0 10-3.516 0v.586H95.695v-.821c0-4.2-3.417-7.617-7.617-7.617h-7.031c-4.2 0-7.617 3.417-7.617 7.617v.821h-7.826V96.974c0-.97.789-1.758 1.758-1.758h81.328a1.76 1.76 0 011.758 1.758z" fill="#806BE7"/><path d="M84.68 125.805c4.07 0 7.382-3.312 7.382-7.383s-3.311-7.383-7.382-7.383-7.383 3.312-7.383 7.383 3.312 7.383 7.383 7.383zm0-11.25a3.872 3.872 0 013.867 3.867 3.872 3.872 0 01-3.867 3.867 3.872 3.872 0 01-3.868-3.867 3.872 3.872 0 013.868-3.867zM108.117 131.898h35.86a2.932 2.932 0 002.929-2.929v-6.924a1.758 1.758 0 10-3.515 0v6.338h-34.688v-26.016h34.688v11.46a1.757 1.757 0 103.515 0v-12.046a2.933 2.933 0 00-2.929-2.93h-35.86a2.933 2.933 0 00-2.929 2.93v27.188a2.932 2.932 0 002.929 2.929z" fill="#806BE7"/><path d="M117.899 123.213a20.242 20.242 0 008.139 1.703c2.467.024 5.645-.595 8.136-1.701a3.136 3.136 0 001.898-2.883v-5.939l1.97-.565a2.255 2.255 0 001.644-2.158 2.257 2.257 0 00-1.6-2.192l-10.857-3.349a4.29 4.29 0 00-2.56.006l-10.692 3.346a2.255 2.255 0 00-1.591 2.188 2.256 2.256 0 001.635 2.156l2.003.582v5.932a3.139 3.139 0 001.875 2.874zm14.658-3.13a16.77 16.77 0 01-13.018.008v-4.66l5.213 1.516a4.296 4.296 0 002.394.005l5.411-1.551v4.682zm-6.837-10.593a.795.795 0 01.473-.001l6.853 2.114-6.869 1.97a.791.791 0 01-.442-.001h-.001l-6.766-1.969 6.752-2.113z" fill="#806BE7"/></svg>