<svg width="169" height="194" fill="none" xmlns="http://www.w3.org/2000/svg"><path d="M46.986 49.589a1.754 1.754 0 00-.356.56 1.6 1.6 0 000 1.291c.078.21.2.401.356.56a1.723 1.723 0 002.413 0 1.722 1.722 0 000-2.411 1.779 1.779 0 00-2.413 0zM52.643 49.232c-.21.078-.4.2-.56.357a1.723 1.723 0 000 2.412 1.698 1.698 0 002.904-1.206 1.787 1.787 0 00-.492-1.206 1.728 1.728 0 00-1.852-.357zM57.74 49.232a1.752 1.752 0 00-.562.357 1.722 1.722 0 000 2.412c.166.15.355.27.561.357a1.698 1.698 0 001.298.01 1.681 1.681 0 001.046-1.573 1.787 1.787 0 00-.492-1.206 1.762 1.762 0 00-1.852-.357zM87.262 72.877H63.48v3.398h23.78v-3.398zM87.262 83.07H63.48v3.397h23.78v-3.398zM95.755 93.261H63.481v3.398h32.274V93.26zM85.563 103.453H63.481v3.398h22.082v-3.398zM77.07 113.645H63.48v3.397h13.59v-3.397zM73.672 123.837H63.481v3.397h10.191v-3.397z" fill="#806BE7"/><path d="M136.814 64.384a6.462 6.462 0 00-4.599 1.906l-5.884 5.884V49.096A5.095 5.095 0 00121.235 44H46.494a5.096 5.096 0 00-5.096 5.096v91.728a5.096 5.096 0 005.096 5.096h74.741a5.096 5.096 0 005.096-5.096V90.567l15.081-15.08a6.5 6.5 0 001.411-7.089 6.504 6.504 0 00-6.009-4.014zM44.795 49.096a1.698 1.698 0 011.699-1.699h74.741a1.696 1.696 0 011.699 1.699v5.096H44.795v-5.096zm78.139 91.728a1.699 1.699 0 01-1.699 1.698H46.494a1.7 1.7 0 01-1.699-1.698V57.589h78.139v17.982l-10.192 10.192v-5.096L94.76 62.685H54.987v74.741h57.755v-33.27l10.192-10.192v46.86zM82.38 116.125l-4.598 13.795 13.794-4.598 4.882-4.882 12.886-12.886v26.475h-50.96V66.083h33.974v16.986h16.986v6.092l-22.082 22.082-4.882 4.882zm4.882-.078l4.393 4.393-1.913 1.912-6.59 2.197 2.197-6.589 1.913-1.913zm8.493-47.563l11.188 11.188H95.755V68.484zm-1.698 49.554l-4.393-4.393 40.064-40.064 4.393 4.392-40.065 40.065zm44.953-44.953l-2.487 2.486-4.393-4.392 2.487-2.487a3.102 3.102 0 013.417-.728 3.116 3.116 0 011.703 1.703 3.106 3.106 0 01-.727 3.417z" fill="#806BE7"/><path d="M163.038 51.063v91.362l-79.1 45.806-79.1-45.806V51.063l79.1-45.807 79.1 45.807z" stroke="#806BE7" stroke-width="2"/></svg>