<svg width="549" height="103" viewBox="0 0 549 103" fill="none" xmlns="http://www.w3.org/2000/svg">
<path d="M10.0781 30.3516H25.0078V36H3.04688V1.875H10.0781V30.3516ZM40.2891 36.4688C36.5703 36.4688 33.5391 35.3281 31.1953 33.0469C28.8672 30.7656 27.7031 27.7266 27.7031 23.9297V23.2734C27.7031 20.7266 28.1953 18.4531 29.1797 16.4531C30.1641 14.4375 31.5547 12.8906 33.3516 11.8125C35.1641 10.7188 37.2266 10.1719 39.5391 10.1719C43.0078 10.1719 45.7344 11.2656 47.7188 13.4531C49.7188 15.6406 50.7188 18.7422 50.7188 22.7578V25.5234H34.5703C34.7891 27.1797 35.4453 28.5078 36.5391 29.5078C37.6484 30.5078 39.0469 31.0078 40.7344 31.0078C43.3438 31.0078 45.3828 30.0625 46.8516 28.1719L50.1797 31.8984C49.1641 33.3359 47.7891 34.4609 46.0547 35.2734C44.3203 36.0703 42.3984 36.4688 40.2891 36.4688ZM39.5156 15.6562C38.1719 15.6562 37.0781 16.1094 36.2344 17.0156C35.4062 17.9219 34.875 19.2188 34.6406 20.9062H44.0625V20.3672C44.0312 18.8672 43.625 17.7109 42.8438 16.8984C42.0625 16.0703 40.9531 15.6562 39.5156 15.6562ZM69.2812 36C68.9688 35.3906 68.7422 34.6328 68.6016 33.7266C66.9609 35.5547 64.8281 36.4688 62.2031 36.4688C59.7188 36.4688 57.6562 35.75 56.0156 34.3125C54.3906 32.875 53.5781 31.0625 53.5781 28.875C53.5781 26.1875 54.5703 24.125 56.5547 22.6875C58.5547 21.25 61.4375 20.5234 65.2031 20.5078H68.3203V19.0547C68.3203 17.8828 68.0156 16.9453 67.4062 16.2422C66.8125 15.5391 65.8672 15.1875 64.5703 15.1875C63.4297 15.1875 62.5312 15.4609 61.875 16.0078C61.2344 16.5547 60.9141 17.3047 60.9141 18.2578H54.1406C54.1406 16.7891 54.5938 15.4297 55.5 14.1797C56.4062 12.9297 57.6875 11.9531 59.3438 11.25C61 10.5312 62.8594 10.1719 64.9219 10.1719C68.0469 10.1719 70.5234 10.9609 72.3516 12.5391C74.1953 14.1016 75.1172 16.3047 75.1172 19.1484V30.1406C75.1328 32.5469 75.4688 34.3672 76.125 35.6016V36H69.2812ZM63.6797 31.2891C64.6797 31.2891 65.6016 31.0703 66.4453 30.6328C67.2891 30.1797 67.9141 29.5781 68.3203 28.8281V24.4688H65.7891C62.3984 24.4688 60.5938 25.6406 60.375 27.9844L60.3516 28.3828C60.3516 29.2266 60.6484 29.9219 61.2422 30.4688C61.8359 31.0156 62.6484 31.2891 63.6797 31.2891ZM94.5703 16.9922C93.6484 16.8672 92.8359 16.8047 92.1328 16.8047C89.5703 16.8047 87.8906 17.6719 87.0938 19.4062V36H80.3203V10.6406H86.7188L86.9062 13.6641C88.2656 11.3359 90.1484 10.1719 92.5547 10.1719C93.3047 10.1719 94.0078 10.2734 94.6641 10.4766L94.5703 16.9922ZM104.086 10.6406L104.297 13.5703C106.109 11.3047 108.539 10.1719 111.586 10.1719C114.273 10.1719 116.273 10.9609 117.586 12.5391C118.898 14.1172 119.57 16.4766 119.602 19.6172V36H112.828V19.7812C112.828 18.3438 112.516 17.3047 111.891 16.6641C111.266 16.0078 110.227 15.6797 108.773 15.6797C106.867 15.6797 105.438 16.4922 104.484 18.1172V36H97.7109V10.6406H104.086ZM156.422 28.9688H144.094L141.75 36H134.273L146.977 1.875H153.492L166.266 36H158.789L156.422 28.9688ZM145.992 23.2734H154.523L150.234 10.5L145.992 23.2734ZM174.117 10.6406L174.328 13.5703C176.141 11.3047 178.57 10.1719 181.617 10.1719C184.305 10.1719 186.305 10.9609 187.617 12.5391C188.93 14.1172 189.602 16.4766 189.633 19.6172V36H182.859V19.7812C182.859 18.3438 182.547 17.3047 181.922 16.6641C181.297 16.0078 180.258 15.6797 178.805 15.6797C176.898 15.6797 175.469 16.4922 174.516 18.1172V36H167.742V10.6406H174.117ZM204.258 26.4141L208.945 10.6406H216.211L206.016 39.9375L205.453 41.2734C203.938 44.5859 201.438 46.2422 197.953 46.2422C196.969 46.2422 195.969 46.0938 194.953 45.7969V40.6641L195.984 40.6875C197.266 40.6875 198.219 40.4922 198.844 40.1016C199.484 39.7109 199.984 39.0625 200.344 38.1562L201.141 36.0703L192.258 10.6406H199.547L204.258 26.4141ZM226.992 4.40625V10.6406H231.328V15.6094H226.992V28.2656C226.992 29.2031 227.172 29.875 227.531 30.2812C227.891 30.6875 228.578 30.8906 229.594 30.8906C230.344 30.8906 231.008 30.8359 231.586 30.7266V35.8594C230.258 36.2656 228.891 36.4688 227.484 36.4688C222.734 36.4688 220.312 34.0703 220.219 29.2734V15.6094H216.516V10.6406H220.219V4.40625H226.992ZM242.25 36H235.453V10.6406H242.25V36ZM235.055 4.07812C235.055 3.0625 235.391 2.22656 236.062 1.57031C236.75 0.914062 237.68 0.585938 238.852 0.585938C240.008 0.585938 240.93 0.914062 241.617 1.57031C242.305 2.22656 242.648 3.0625 242.648 4.07812C242.648 5.10938 242.297 5.95312 241.594 6.60938C240.906 7.26562 239.992 7.59375 238.852 7.59375C237.711 7.59375 236.789 7.26562 236.086 6.60938C235.398 5.95312 235.055 5.10938 235.055 4.07812ZM254.203 10.6406L254.414 13.4766C256.211 11.2734 258.641 10.1719 261.703 10.1719C264.969 10.1719 267.211 11.4609 268.43 14.0391C270.211 11.4609 272.75 10.1719 276.047 10.1719C278.797 10.1719 280.844 10.9766 282.188 12.5859C283.531 14.1797 284.203 16.5859 284.203 19.8047V36H277.406V19.8281C277.406 18.3906 277.125 17.3438 276.562 16.6875C276 16.0156 275.008 15.6797 273.586 15.6797C271.555 15.6797 270.148 16.6484 269.367 18.5859L269.391 36H262.617V19.8516C262.617 18.3828 262.328 17.3203 261.75 16.6641C261.172 16.0078 260.188 15.6797 258.797 15.6797C256.875 15.6797 255.484 16.4766 254.625 18.0703V36H247.852V10.6406H254.203ZM301.102 36.4688C297.383 36.4688 294.352 35.3281 292.008 33.0469C289.68 30.7656 288.516 27.7266 288.516 23.9297V23.2734C288.516 20.7266 289.008 18.4531 289.992 16.4531C290.977 14.4375 292.367 12.8906 294.164 11.8125C295.977 10.7188 298.039 10.1719 300.352 10.1719C303.82 10.1719 306.547 11.2656 308.531 13.4531C310.531 15.6406 311.531 18.7422 311.531 22.7578V25.5234H295.383C295.602 27.1797 296.258 28.5078 297.352 29.5078C298.461 30.5078 299.859 31.0078 301.547 31.0078C304.156 31.0078 306.195 30.0625 307.664 28.1719L310.992 31.8984C309.977 33.3359 308.602 34.4609 306.867 35.2734C305.133 36.0703 303.211 36.4688 301.102 36.4688ZM300.328 15.6562C298.984 15.6562 297.891 16.1094 297.047 17.0156C296.219 17.9219 295.688 19.2188 295.453 20.9062H304.875V20.3672C304.844 18.8672 304.438 17.7109 303.656 16.8984C302.875 16.0703 301.766 15.6562 300.328 15.6562ZM317.156 44.5547L313.617 42.7031L314.461 41.1797C315.508 39.2734 316.047 37.375 316.078 35.4844V30.2344H321.797L321.773 34.9219C321.758 36.6562 321.32 38.4062 320.461 40.1719C319.602 41.9375 318.5 43.3984 317.156 44.5547Z" fill="#806BE7"/>
<path d="M358.781 28.9688H346.453L344.109 36H336.633L349.336 1.875H355.852L368.625 36H361.148L358.781 28.9688ZM348.352 23.2734H356.883L352.594 10.5L348.352 23.2734ZM376.477 10.6406L376.688 13.5703C378.5 11.3047 380.93 10.1719 383.977 10.1719C386.664 10.1719 388.664 10.9609 389.977 12.5391C391.289 14.1172 391.961 16.4766 391.992 19.6172V36H385.219V19.7812C385.219 18.3438 384.906 17.3047 384.281 16.6641C383.656 16.0078 382.617 15.6797 381.164 15.6797C379.258 15.6797 377.828 16.4922 376.875 18.1172V36H370.102V10.6406H376.477ZM406.617 26.4141L411.305 10.6406H418.57L408.375 39.9375L407.812 41.2734C406.297 44.5859 403.797 46.2422 400.312 46.2422C399.328 46.2422 398.328 46.0938 397.312 45.7969V40.6641L398.344 40.6875C399.625 40.6875 400.578 40.4922 401.203 40.1016C401.844 39.7109 402.344 39.0625 402.703 38.1562L403.5 36.0703L394.617 10.6406H401.906L406.617 26.4141ZM443.297 26.7891L446.625 10.6406H453.164L446.695 36H441.023L436.219 20.0391L431.414 36H425.766L419.297 10.6406H425.836L429.141 26.7656L433.781 10.6406H438.68L443.297 26.7891ZM463.148 13.4062C464.945 11.25 467.203 10.1719 469.922 10.1719C475.422 10.1719 478.211 13.3672 478.289 19.7578V36H471.516V19.9453C471.516 18.4922 471.203 17.4219 470.578 16.7344C469.953 16.0312 468.914 15.6797 467.461 15.6797C465.477 15.6797 464.039 16.4453 463.148 17.9766V36H456.375V0H463.148V13.4062ZM495.07 36.4688C491.352 36.4688 488.32 35.3281 485.977 33.0469C483.648 30.7656 482.484 27.7266 482.484 23.9297V23.2734C482.484 20.7266 482.977 18.4531 483.961 16.4531C484.945 14.4375 486.336 12.8906 488.133 11.8125C489.945 10.7188 492.008 10.1719 494.32 10.1719C497.789 10.1719 500.516 11.2656 502.5 13.4531C504.5 15.6406 505.5 18.7422 505.5 22.7578V25.5234H489.352C489.57 27.1797 490.227 28.5078 491.32 29.5078C492.43 30.5078 493.828 31.0078 495.516 31.0078C498.125 31.0078 500.164 30.0625 501.633 28.1719L504.961 31.8984C503.945 33.3359 502.57 34.4609 500.836 35.2734C499.102 36.0703 497.18 36.4688 495.07 36.4688ZM494.297 15.6562C492.953 15.6562 491.859 16.1094 491.016 17.0156C490.188 17.9219 489.656 19.2188 489.422 20.9062H498.844V20.3672C498.812 18.8672 498.406 17.7109 497.625 16.8984C496.844 16.0703 495.734 15.6562 494.297 15.6562ZM523.617 16.9922C522.695 16.8672 521.883 16.8047 521.18 16.8047C518.617 16.8047 516.938 17.6719 516.141 19.4062V36H509.367V10.6406H515.766L515.953 13.6641C517.312 11.3359 519.195 10.1719 521.602 10.1719C522.352 10.1719 523.055 10.2734 523.711 10.4766L523.617 16.9922ZM538.102 36.4688C534.383 36.4688 531.352 35.3281 529.008 33.0469C526.68 30.7656 525.516 27.7266 525.516 23.9297V23.2734C525.516 20.7266 526.008 18.4531 526.992 16.4531C527.977 14.4375 529.367 12.8906 531.164 11.8125C532.977 10.7188 535.039 10.1719 537.352 10.1719C540.82 10.1719 543.547 11.2656 545.531 13.4531C547.531 15.6406 548.531 18.7422 548.531 22.7578V25.5234H532.383C532.602 27.1797 533.258 28.5078 534.352 29.5078C535.461 30.5078 536.859 31.0078 538.547 31.0078C541.156 31.0078 543.195 30.0625 544.664 28.1719L547.992 31.8984C546.977 33.3359 545.602 34.4609 543.867 35.2734C542.133 36.0703 540.211 36.4688 538.102 36.4688ZM537.328 15.6562C535.984 15.6562 534.891 16.1094 534.047 17.0156C533.219 17.9219 532.688 19.2188 532.453 20.9062H541.875V20.3672C541.844 18.8672 541.438 17.7109 540.656 16.8984C539.875 16.0703 538.766 15.6562 537.328 15.6562ZM97.4619 94.7373C97.3623 96.1143 96.8525 97.1982 95.9326 97.9893C95.0186 98.7803 93.8115 99.1758 92.3115 99.1758C90.6709 99.1758 89.3789 98.625 88.4355 97.5234C87.498 96.416 87.0293 94.8984 87.0293 92.9707V92.1885C87.0293 90.958 87.2461 89.874 87.6797 88.9365C88.1133 87.999 88.7314 87.2812 89.5342 86.7832C90.3428 86.2793 91.2803 86.0273 92.3467 86.0273C93.8232 86.0273 95.0127 86.4229 95.915 87.2139C96.8174 88.0049 97.3389 89.1152 97.4795 90.5449H94.8428C94.7783 89.7188 94.5469 89.1211 94.1484 88.752C93.7559 88.377 93.1553 88.1895 92.3467 88.1895C91.4678 88.1895 90.8086 88.5059 90.3691 89.1387C89.9355 89.7656 89.7129 90.7412 89.7012 92.0654V93.0322C89.7012 94.415 89.9092 95.4258 90.3252 96.0645C90.7471 96.7031 91.4092 97.0225 92.3115 97.0225C93.126 97.0225 93.7324 96.8379 94.1309 96.4688C94.5352 96.0938 94.7666 95.5166 94.8252 94.7373H97.4619ZM109.705 92.8916C109.705 94.1514 109.482 95.2559 109.037 96.2051C108.592 97.1543 107.953 97.8867 107.121 98.4023C106.295 98.918 105.346 99.1758 104.273 99.1758C103.213 99.1758 102.267 98.9209 101.435 98.4111C100.603 97.9014 99.958 97.1748 99.501 96.2314C99.0439 95.2822 98.8125 94.1924 98.8066 92.9619V92.3291C98.8066 91.0693 99.0322 89.9619 99.4834 89.0068C99.9404 88.0459 100.582 87.3105 101.408 86.8008C102.24 86.2852 103.189 86.0273 104.256 86.0273C105.322 86.0273 106.269 86.2852 107.095 86.8008C107.927 87.3105 108.568 88.0459 109.02 89.0068C109.477 89.9619 109.705 91.0664 109.705 92.3203V92.8916ZM107.033 92.3115C107.033 90.9697 106.793 89.9502 106.312 89.2529C105.832 88.5557 105.146 88.207 104.256 88.207C103.371 88.207 102.688 88.5527 102.208 89.2441C101.728 89.9297 101.484 90.9375 101.479 92.2676V92.8916C101.479 94.1982 101.719 95.2119 102.199 95.9326C102.68 96.6533 103.371 97.0137 104.273 97.0137C105.158 97.0137 105.838 96.668 106.312 95.9766C106.787 95.2793 107.027 94.2656 107.033 92.9355V92.3115ZM115.066 86.2031L118.354 95.4844L121.623 86.2031H125.086V99H122.44V95.502L122.704 89.4639L119.25 99H117.439L113.994 89.4727L114.258 95.502V99H111.621V86.2031H115.066ZM130.192 99H127.556V86.2031H130.192V99ZM143.051 99H140.414L135.281 90.5801V99H132.645V86.2031H135.281L140.423 94.6406V86.2031H143.051V99ZM155.479 97.3828C155.004 97.9512 154.333 98.3936 153.466 98.71C152.599 99.0205 151.638 99.1758 150.583 99.1758C149.476 99.1758 148.503 98.9355 147.665 98.4551C146.833 97.9688 146.188 97.2656 145.731 96.3457C145.28 95.4258 145.049 94.3447 145.037 93.1025V92.2324C145.037 90.9551 145.251 89.8506 145.679 88.9189C146.112 87.9814 146.733 87.2666 147.542 86.7744C148.356 86.2764 149.309 86.0273 150.398 86.0273C151.916 86.0273 153.103 86.3906 153.958 87.1172C154.813 87.8379 155.32 88.8896 155.479 90.2725H152.912C152.795 89.54 152.534 89.0039 152.13 88.6641C151.731 88.3242 151.181 88.1543 150.478 88.1543C149.581 88.1543 148.898 88.4912 148.43 89.165C147.961 89.8389 147.724 90.8408 147.718 92.1709V92.9883C147.718 94.3301 147.973 95.3438 148.482 96.0293C148.992 96.7148 149.739 97.0576 150.724 97.0576C151.714 97.0576 152.42 96.8467 152.842 96.4248V94.2188H150.442V92.2764H155.479V97.3828ZM168.741 95.6426C168.741 95.1445 168.565 94.7637 168.214 94.5C167.862 94.2305 167.229 93.9492 166.315 93.6562C165.401 93.3574 164.678 93.0645 164.145 92.7773C162.691 91.9922 161.965 90.9346 161.965 89.6045C161.965 88.9131 162.158 88.2979 162.545 87.7588C162.938 87.2139 163.497 86.7891 164.224 86.4844C164.956 86.1797 165.776 86.0273 166.685 86.0273C167.599 86.0273 168.413 86.1943 169.128 86.5283C169.843 86.8564 170.396 87.3223 170.789 87.9258C171.188 88.5293 171.387 89.2148 171.387 89.9824H168.75C168.75 89.3965 168.565 88.9424 168.196 88.6201C167.827 88.292 167.309 88.1279 166.641 88.1279C165.996 88.1279 165.495 88.2656 165.138 88.541C164.78 88.8105 164.602 89.168 164.602 89.6133C164.602 90.0293 164.81 90.3779 165.226 90.6592C165.647 90.9404 166.266 91.2041 167.08 91.4502C168.58 91.9014 169.673 92.4609 170.358 93.1289C171.044 93.7969 171.387 94.6289 171.387 95.625C171.387 96.7324 170.968 97.6025 170.13 98.2354C169.292 98.8623 168.164 99.1758 166.746 99.1758C165.762 99.1758 164.865 98.9971 164.057 98.6396C163.248 98.2764 162.63 97.7812 162.202 97.1543C161.78 96.5273 161.569 95.8008 161.569 94.9746H164.215C164.215 96.3867 165.059 97.0928 166.746 97.0928C167.373 97.0928 167.862 96.9668 168.214 96.7148C168.565 96.457 168.741 96.0996 168.741 95.6426ZM183.691 92.8916C183.691 94.1514 183.469 95.2559 183.023 96.2051C182.578 97.1543 181.939 97.8867 181.107 98.4023C180.281 98.918 179.332 99.1758 178.26 99.1758C177.199 99.1758 176.253 98.9209 175.421 98.4111C174.589 97.9014 173.944 97.1748 173.487 96.2314C173.03 95.2822 172.799 94.1924 172.793 92.9619V92.3291C172.793 91.0693 173.019 89.9619 173.47 89.0068C173.927 88.0459 174.568 87.3105 175.395 86.8008C176.227 86.2852 177.176 86.0273 178.242 86.0273C179.309 86.0273 180.255 86.2852 181.081 86.8008C181.913 87.3105 182.555 88.0459 183.006 89.0068C183.463 89.9619 183.691 91.0664 183.691 92.3203V92.8916ZM181.02 92.3115C181.02 90.9697 180.779 89.9502 180.299 89.2529C179.818 88.5557 179.133 88.207 178.242 88.207C177.357 88.207 176.675 88.5527 176.194 89.2441C175.714 89.9297 175.471 90.9375 175.465 92.2676V92.8916C175.465 94.1982 175.705 95.2119 176.186 95.9326C176.666 96.6533 177.357 97.0137 178.26 97.0137C179.145 97.0137 179.824 96.668 180.299 95.9766C180.773 95.2793 181.014 94.2656 181.02 92.9355V92.3115ZM196.119 92.8916C196.119 94.1514 195.896 95.2559 195.451 96.2051C195.006 97.1543 194.367 97.8867 193.535 98.4023C192.709 98.918 191.76 99.1758 190.688 99.1758C189.627 99.1758 188.681 98.9209 187.849 98.4111C187.017 97.9014 186.372 97.1748 185.915 96.2314C185.458 95.2822 185.227 94.1924 185.221 92.9619V92.3291C185.221 91.0693 185.446 89.9619 185.897 89.0068C186.354 88.0459 186.996 87.3105 187.822 86.8008C188.654 86.2852 189.604 86.0273 190.67 86.0273C191.736 86.0273 192.683 86.2852 193.509 86.8008C194.341 87.3105 194.982 88.0459 195.434 89.0068C195.891 89.9619 196.119 91.0664 196.119 92.3203V92.8916ZM193.447 92.3115C193.447 90.9697 193.207 89.9502 192.727 89.2529C192.246 88.5557 191.561 88.207 190.67 88.207C189.785 88.207 189.103 88.5527 188.622 89.2441C188.142 89.9297 187.898 90.9375 187.893 92.2676V92.8916C187.893 94.1982 188.133 95.2119 188.613 95.9326C189.094 96.6533 189.785 97.0137 190.688 97.0137C191.572 97.0137 192.252 96.668 192.727 95.9766C193.201 95.2793 193.441 94.2656 193.447 92.9355V92.3115ZM208.441 99H205.805L200.672 90.5801V99H198.035V86.2031H200.672L205.813 94.6406V86.2031H208.441V99Z" fill="#D5205F"/>
<path d="M10.3271 66.5918H6.21387V78H4.53516V66.5918H0.430664V65.2031H10.3271V66.5918ZM16.8398 78C16.7461 77.8125 16.6699 77.4785 16.6113 76.998C15.8555 77.7832 14.9531 78.1758 13.9043 78.1758C12.9668 78.1758 12.1963 77.9121 11.5928 77.3848C10.9951 76.8516 10.6963 76.1777 10.6963 75.3633C10.6963 74.373 11.0713 73.6055 11.8213 73.0605C12.5771 72.5098 13.6377 72.2344 15.0029 72.2344H16.585V71.4873C16.585 70.9189 16.415 70.4678 16.0752 70.1338C15.7354 69.7939 15.2344 69.624 14.5723 69.624C13.9922 69.624 13.5059 69.7705 13.1133 70.0635C12.7207 70.3564 12.5244 70.7109 12.5244 71.127H10.8896C10.8896 70.6523 11.0566 70.1953 11.3906 69.7559C11.7305 69.3105 12.1875 68.959 12.7617 68.7012C13.3418 68.4434 13.9775 68.3145 14.6689 68.3145C15.7646 68.3145 16.623 68.5898 17.2441 69.1406C17.8652 69.6855 18.1875 70.4385 18.2109 71.3994V75.7764C18.2109 76.6494 18.3223 77.3438 18.5449 77.8594V78H16.8398ZM14.1416 76.7607C14.6514 76.7607 15.1348 76.6289 15.5918 76.3652C16.0488 76.1016 16.3799 75.7588 16.585 75.3369V73.3857H15.3105C13.3184 73.3857 12.3223 73.9688 12.3223 75.1348C12.3223 75.6445 12.4922 76.043 12.832 76.3301C13.1719 76.6172 13.6084 76.7607 14.1416 76.7607ZM23.4141 73.5967L22.3945 74.6602V78H20.7686V64.5H22.3945V72.665L23.2646 71.6191L26.2266 68.4902H28.2041L24.5039 72.4629L28.6348 78H26.7275L23.4141 73.5967ZM33.6533 78.1758C32.3643 78.1758 31.3154 77.7539 30.5068 76.9102C29.6982 76.0605 29.2939 74.9268 29.2939 73.5088V73.21C29.2939 72.2666 29.4727 71.4258 29.8301 70.6875C30.1934 69.9434 30.6973 69.3633 31.3418 68.9473C31.9922 68.5254 32.6953 68.3145 33.4512 68.3145C34.6875 68.3145 35.6484 68.7217 36.334 69.5361C37.0195 70.3506 37.3623 71.5166 37.3623 73.0342V73.7109H30.9199C30.9434 74.6484 31.2158 75.4072 31.7373 75.9873C32.2646 76.5615 32.9326 76.8486 33.7412 76.8486C34.3154 76.8486 34.8018 76.7314 35.2002 76.4971C35.5986 76.2627 35.9473 75.9521 36.2461 75.5654L37.2393 76.3389C36.4424 77.5635 35.2471 78.1758 33.6533 78.1758ZM33.4512 69.6504C32.7949 69.6504 32.2441 69.8906 31.7988 70.3711C31.3535 70.8457 31.0781 71.5137 30.9727 72.375H35.7363V72.252C35.6895 71.4258 35.4668 70.7871 35.0684 70.3359C34.6699 69.8789 34.1309 69.6504 33.4512 69.6504ZM47.5312 76.8486C48.1113 76.8486 48.6182 76.6729 49.0518 76.3213C49.4854 75.9697 49.7256 75.5303 49.7725 75.0029H51.3105C51.2812 75.5479 51.0938 76.0664 50.748 76.5586C50.4023 77.0508 49.9395 77.4434 49.3594 77.7363C48.7852 78.0293 48.1758 78.1758 47.5312 78.1758C46.2363 78.1758 45.2051 77.7451 44.4375 76.8838C43.6758 76.0166 43.2949 74.833 43.2949 73.333V73.0605C43.2949 72.1348 43.4648 71.3115 43.8047 70.5908C44.1445 69.8701 44.6309 69.3105 45.2637 68.9121C45.9023 68.5137 46.6553 68.3145 47.5225 68.3145C48.5889 68.3145 49.4736 68.6338 50.1768 69.2725C50.8857 69.9111 51.2637 70.7402 51.3105 71.7598H49.7725C49.7256 71.1445 49.4912 70.6406 49.0693 70.248C48.6533 69.8496 48.1377 69.6504 47.5225 69.6504C46.6963 69.6504 46.0547 69.9492 45.5977 70.5469C45.1465 71.1387 44.9209 71.9971 44.9209 73.1221V73.4297C44.9209 74.5254 45.1465 75.3691 45.5977 75.9609C46.0488 76.5527 46.6934 76.8486 47.5312 76.8486ZM52.708 73.1572C52.708 72.2256 52.8896 71.3877 53.2529 70.6436C53.6221 69.8994 54.1318 69.3252 54.7822 68.9209C55.4385 68.5166 56.1855 68.3145 57.0234 68.3145C58.3184 68.3145 59.3643 68.7627 60.1611 69.6592C60.9639 70.5557 61.3652 71.748 61.3652 73.2363V73.3506C61.3652 74.2764 61.1865 75.1084 60.8291 75.8467C60.4775 76.5791 59.9707 77.1504 59.3086 77.5605C58.6523 77.9707 57.8965 78.1758 57.041 78.1758C55.752 78.1758 54.7061 77.7275 53.9033 76.8311C53.1064 75.9346 52.708 74.748 52.708 73.2715V73.1572ZM54.3428 73.3506C54.3428 74.4053 54.5859 75.252 55.0723 75.8906C55.5645 76.5293 56.2207 76.8486 57.041 76.8486C57.8672 76.8486 58.5234 76.5264 59.0098 75.8818C59.4961 75.2314 59.7393 74.3232 59.7393 73.1572C59.7393 72.1143 59.4902 71.2705 58.9922 70.626C58.5 69.9756 57.8438 69.6504 57.0234 69.6504C56.2207 69.6504 55.5732 69.9697 55.0811 70.6084C54.5889 71.2471 54.3428 72.1611 54.3428 73.3506ZM69.2754 77.0596C68.6426 77.8037 67.7139 78.1758 66.4893 78.1758C65.4756 78.1758 64.7021 77.8828 64.1689 77.2969C63.6416 76.7051 63.375 75.832 63.3691 74.6777V68.4902H64.9951V74.6338C64.9951 76.0752 65.5811 76.7959 66.7529 76.7959C67.9951 76.7959 68.8213 76.333 69.2314 75.4072V68.4902H70.8574V78H69.3105L69.2754 77.0596ZM77.9326 69.9492C77.6865 69.9082 77.4199 69.8877 77.1328 69.8877C76.0664 69.8877 75.3428 70.3418 74.9619 71.25V78H73.3359V68.4902H74.918L74.9443 69.5889C75.4775 68.7393 76.2334 68.3145 77.2119 68.3145C77.5283 68.3145 77.7686 68.3555 77.9326 68.4375V69.9492ZM84.9727 75.4775C84.9727 75.0381 84.8057 74.6982 84.4717 74.458C84.1436 74.2119 83.5664 74.001 82.7402 73.8252C81.9199 73.6494 81.2666 73.4385 80.7803 73.1924C80.2998 72.9463 79.9424 72.6533 79.708 72.3135C79.4795 71.9736 79.3652 71.5693 79.3652 71.1006C79.3652 70.3213 79.6934 69.6621 80.3496 69.123C81.0117 68.584 81.8555 68.3145 82.8809 68.3145C83.959 68.3145 84.832 68.5928 85.5 69.1494C86.1738 69.7061 86.5107 70.418 86.5107 71.2852H84.876C84.876 70.8398 84.6855 70.4561 84.3047 70.1338C83.9297 69.8115 83.4551 69.6504 82.8809 69.6504C82.2891 69.6504 81.8262 69.7793 81.4922 70.0371C81.1582 70.2949 80.9912 70.6318 80.9912 71.0479C80.9912 71.4404 81.1465 71.7363 81.457 71.9355C81.7676 72.1348 82.3271 72.3252 83.1357 72.5068C83.9502 72.6885 84.6094 72.9053 85.1133 73.1572C85.6172 73.4092 85.9893 73.7139 86.2295 74.0713C86.4756 74.4229 86.5986 74.8535 86.5986 75.3633C86.5986 76.2129 86.2588 76.8955 85.5791 77.4111C84.8994 77.9209 84.0176 78.1758 82.9336 78.1758C82.1719 78.1758 81.498 78.041 80.9121 77.7715C80.3262 77.502 79.8662 77.127 79.5322 76.6465C79.2041 76.1602 79.04 75.6357 79.04 75.0732H80.666C80.6953 75.6182 80.9121 76.0518 81.3164 76.374C81.7266 76.6904 82.2656 76.8486 82.9336 76.8486C83.5488 76.8486 84.041 76.7256 84.4102 76.4795C84.7852 76.2275 84.9727 75.8936 84.9727 75.4775ZM92.6631 78.1758C91.374 78.1758 90.3252 77.7539 89.5166 76.9102C88.708 76.0605 88.3037 74.9268 88.3037 73.5088V73.21C88.3037 72.2666 88.4824 71.4258 88.8398 70.6875C89.2031 69.9434 89.707 69.3633 90.3516 68.9473C91.002 68.5254 91.7051 68.3145 92.4609 68.3145C93.6973 68.3145 94.6582 68.7217 95.3438 69.5361C96.0293 70.3506 96.3721 71.5166 96.3721 73.0342V73.7109H89.9297C89.9531 74.6484 90.2256 75.4072 90.7471 75.9873C91.2744 76.5615 91.9424 76.8486 92.751 76.8486C93.3252 76.8486 93.8115 76.7314 94.21 76.4971C94.6084 76.2627 94.957 75.9521 95.2559 75.5654L96.249 76.3389C95.4521 77.5635 94.2568 78.1758 92.6631 78.1758ZM92.4609 69.6504C91.8047 69.6504 91.2539 69.8906 90.8086 70.3711C90.3633 70.8457 90.0879 71.5137 89.9824 72.375H94.7461V72.252C94.6992 71.4258 94.4766 70.7871 94.0781 70.3359C93.6797 69.8789 93.1406 69.6504 92.4609 69.6504ZM103.799 75.4775C103.799 75.0381 103.632 74.6982 103.298 74.458C102.97 74.2119 102.393 74.001 101.566 73.8252C100.746 73.6494 100.093 73.4385 99.6064 73.1924C99.126 72.9463 98.7686 72.6533 98.5342 72.3135C98.3057 71.9736 98.1914 71.5693 98.1914 71.1006C98.1914 70.3213 98.5195 69.6621 99.1758 69.123C99.8379 68.584 100.682 68.3145 101.707 68.3145C102.785 68.3145 103.658 68.5928 104.326 69.1494C105 69.7061 105.337 70.418 105.337 71.2852H103.702C103.702 70.8398 103.512 70.4561 103.131 70.1338C102.756 69.8115 102.281 69.6504 101.707 69.6504C101.115 69.6504 100.652 69.7793 100.318 70.0371C99.9844 70.2949 99.8174 70.6318 99.8174 71.0479C99.8174 71.4404 99.9727 71.7363 100.283 71.9355C100.594 72.1348 101.153 72.3252 101.962 72.5068C102.776 72.6885 103.436 72.9053 103.939 73.1572C104.443 73.4092 104.815 73.7139 105.056 74.0713C105.302 74.4229 105.425 74.8535 105.425 75.3633C105.425 76.2129 105.085 76.8955 104.405 77.4111C103.726 77.9209 102.844 78.1758 101.76 78.1758C100.998 78.1758 100.324 78.041 99.7383 77.7715C99.1523 77.502 98.6924 77.127 98.3584 76.6465C98.0303 76.1602 97.8662 75.6357 97.8662 75.0732H99.4922C99.5215 75.6182 99.7383 76.0518 100.143 76.374C100.553 76.6904 101.092 76.8486 101.76 76.8486C102.375 76.8486 102.867 76.7256 103.236 76.4795C103.611 76.2275 103.799 75.8936 103.799 75.4775ZM111.577 73.1572C111.577 72.2256 111.759 71.3877 112.122 70.6436C112.491 69.8994 113.001 69.3252 113.651 68.9209C114.308 68.5166 115.055 68.3145 115.893 68.3145C117.188 68.3145 118.233 68.7627 119.03 69.6592C119.833 70.5557 120.234 71.748 120.234 73.2363V73.3506C120.234 74.2764 120.056 75.1084 119.698 75.8467C119.347 76.5791 118.84 77.1504 118.178 77.5605C117.521 77.9707 116.766 78.1758 115.91 78.1758C114.621 78.1758 113.575 77.7275 112.772 76.8311C111.976 75.9346 111.577 74.748 111.577 73.2715V73.1572ZM113.212 73.3506C113.212 74.4053 113.455 75.252 113.941 75.8906C114.434 76.5293 115.09 76.8486 115.91 76.8486C116.736 76.8486 117.393 76.5264 117.879 75.8818C118.365 75.2314 118.608 74.3232 118.608 73.1572C118.608 72.1143 118.359 71.2705 117.861 70.626C117.369 69.9756 116.713 69.6504 115.893 69.6504C115.09 69.6504 114.442 69.9697 113.95 70.6084C113.458 71.2471 113.212 72.1611 113.212 73.3506ZM123.812 68.4902L123.864 69.6855C124.591 68.7715 125.54 68.3145 126.712 68.3145C128.722 68.3145 129.735 69.4482 129.753 71.7158V78H128.127V71.707C128.121 71.0215 127.963 70.5146 127.652 70.1865C127.348 69.8584 126.87 69.6943 126.22 69.6943C125.692 69.6943 125.229 69.835 124.831 70.1162C124.433 70.3975 124.122 70.7666 123.899 71.2236V78H122.273V68.4902H123.812ZM142.541 78C142.447 77.8125 142.371 77.4785 142.312 76.998C141.557 77.7832 140.654 78.1758 139.605 78.1758C138.668 78.1758 137.897 77.9121 137.294 77.3848C136.696 76.8516 136.397 76.1777 136.397 75.3633C136.397 74.373 136.772 73.6055 137.522 73.0605C138.278 72.5098 139.339 72.2344 140.704 72.2344H142.286V71.4873C142.286 70.9189 142.116 70.4678 141.776 70.1338C141.437 69.7939 140.936 69.624 140.273 69.624C139.693 69.624 139.207 69.7705 138.814 70.0635C138.422 70.3564 138.226 70.7109 138.226 71.127H136.591C136.591 70.6523 136.758 70.1953 137.092 69.7559C137.432 69.3105 137.889 68.959 138.463 68.7012C139.043 68.4434 139.679 68.3145 140.37 68.3145C141.466 68.3145 142.324 68.5898 142.945 69.1406C143.566 69.6855 143.889 70.4385 143.912 71.3994V75.7764C143.912 76.6494 144.023 77.3438 144.246 77.8594V78H142.541ZM139.843 76.7607C140.353 76.7607 140.836 76.6289 141.293 76.3652C141.75 76.1016 142.081 75.7588 142.286 75.3369V73.3857H141.012C139.02 73.3857 138.023 73.9688 138.023 75.1348C138.023 75.6445 138.193 76.043 138.533 76.3301C138.873 76.6172 139.31 76.7607 139.843 76.7607ZM147.999 68.4902L148.052 69.6855C148.778 68.7715 149.728 68.3145 150.899 68.3145C152.909 68.3145 153.923 69.4482 153.94 71.7158V78H152.314V71.707C152.309 71.0215 152.15 70.5146 151.84 70.1865C151.535 69.8584 151.058 69.6943 150.407 69.6943C149.88 69.6943 149.417 69.835 149.019 70.1162C148.62 70.3975 148.31 70.7666 148.087 71.2236V78H146.461V68.4902H147.999ZM159.504 75.6182L161.719 68.4902H163.459L159.636 79.4678C159.044 81.0498 158.104 81.8408 156.814 81.8408L156.507 81.8145L155.9 81.7002V80.3818L156.34 80.417C156.891 80.417 157.318 80.3057 157.623 80.083C157.934 79.8604 158.188 79.4531 158.388 78.8613L158.748 77.8945L155.355 68.4902H157.131L159.504 75.6182ZM168.952 73.1572C168.952 72.2256 169.134 71.3877 169.497 70.6436C169.866 69.8994 170.376 69.3252 171.026 68.9209C171.683 68.5166 172.43 68.3145 173.268 68.3145C174.562 68.3145 175.608 68.7627 176.405 69.6592C177.208 70.5557 177.609 71.748 177.609 73.2363V73.3506C177.609 74.2764 177.431 75.1084 177.073 75.8467C176.722 76.5791 176.215 77.1504 175.553 77.5605C174.896 77.9707 174.141 78.1758 173.285 78.1758C171.996 78.1758 170.95 77.7275 170.147 76.8311C169.351 75.9346 168.952 74.748 168.952 73.2715V73.1572ZM170.587 73.3506C170.587 74.4053 170.83 75.252 171.316 75.8906C171.809 76.5293 172.465 76.8486 173.285 76.8486C174.111 76.8486 174.768 76.5264 175.254 75.8818C175.74 75.2314 175.983 74.3232 175.983 73.1572C175.983 72.1143 175.734 71.2705 175.236 70.626C174.744 69.9756 174.088 69.6504 173.268 69.6504C172.465 69.6504 171.817 69.9697 171.325 70.6084C170.833 71.2471 170.587 72.1611 170.587 73.3506ZM180.448 78V69.7471H178.945V68.4902H180.448V67.5146C180.448 66.4951 180.721 65.707 181.266 65.1504C181.811 64.5938 182.581 64.3154 183.577 64.3154C183.952 64.3154 184.324 64.3652 184.693 64.4648L184.605 65.7832C184.33 65.7305 184.037 65.7041 183.727 65.7041C183.199 65.7041 182.792 65.8594 182.505 66.1699C182.218 66.4746 182.074 66.9141 182.074 67.4883V68.4902H184.104V69.7471H182.074V78H180.448ZM193.482 75.6182L195.697 68.4902H197.438L193.614 79.4678C193.022 81.0498 192.082 81.8408 190.793 81.8408L190.485 81.8145L189.879 81.7002V80.3818L190.318 80.417C190.869 80.417 191.297 80.3057 191.602 80.083C191.912 79.8604 192.167 79.4531 192.366 78.8613L192.727 77.8945L189.334 68.4902H191.109L193.482 75.6182ZM198.325 73.1572C198.325 72.2256 198.507 71.3877 198.87 70.6436C199.239 69.8994 199.749 69.3252 200.399 68.9209C201.056 68.5166 201.803 68.3145 202.641 68.3145C203.936 68.3145 204.981 68.7627 205.778 69.6592C206.581 70.5557 206.982 71.748 206.982 73.2363V73.3506C206.982 74.2764 206.804 75.1084 206.446 75.8467C206.095 76.5791 205.588 77.1504 204.926 77.5605C204.27 77.9707 203.514 78.1758 202.658 78.1758C201.369 78.1758 200.323 77.7275 199.521 76.8311C198.724 75.9346 198.325 74.748 198.325 73.2715V73.1572ZM199.96 73.3506C199.96 74.4053 200.203 75.252 200.689 75.8906C201.182 76.5293 201.838 76.8486 202.658 76.8486C203.484 76.8486 204.141 76.5264 204.627 75.8818C205.113 75.2314 205.356 74.3232 205.356 73.1572C205.356 72.1143 205.107 71.2705 204.609 70.626C204.117 69.9756 203.461 69.6504 202.641 69.6504C201.838 69.6504 201.19 69.9697 200.698 70.6084C200.206 71.2471 199.96 72.1611 199.96 73.3506ZM214.893 77.0596C214.26 77.8037 213.331 78.1758 212.106 78.1758C211.093 78.1758 210.319 77.8828 209.786 77.2969C209.259 76.7051 208.992 75.832 208.986 74.6777V68.4902H210.612V74.6338C210.612 76.0752 211.198 76.7959 212.37 76.7959C213.612 76.7959 214.438 76.333 214.849 75.4072V68.4902H216.475V78H214.928L214.893 77.0596ZM223.55 69.9492C223.304 69.9082 223.037 69.8877 222.75 69.8877C221.684 69.8877 220.96 70.3418 220.579 71.25V78H218.953V68.4902H220.535L220.562 69.5889C221.095 68.7393 221.851 68.3145 222.829 68.3145C223.146 68.3145 223.386 68.3555 223.55 68.4375V69.9492ZM229.122 73.166C229.122 71.707 229.468 70.5352 230.159 69.6504C230.851 68.7598 231.756 68.3145 232.875 68.3145C233.988 68.3145 234.87 68.6953 235.521 69.457V64.5H237.146V78H235.652L235.573 76.9805C234.923 77.7773 234.018 78.1758 232.857 78.1758C231.756 78.1758 230.856 77.7246 230.159 76.8223C229.468 75.9199 229.122 74.7422 229.122 73.2891V73.166ZM230.748 73.3506C230.748 74.4287 230.971 75.2725 231.416 75.8818C231.861 76.4912 232.477 76.7959 233.262 76.7959C234.293 76.7959 235.046 76.333 235.521 75.4072V71.0391C235.034 70.1426 234.287 69.6943 233.279 69.6943C232.482 69.6943 231.861 70.002 231.416 70.6172C230.971 71.2324 230.748 72.1436 230.748 73.3506ZM243.624 78.1758C242.335 78.1758 241.286 77.7539 240.478 76.9102C239.669 76.0605 239.265 74.9268 239.265 73.5088V73.21C239.265 72.2666 239.443 71.4258 239.801 70.6875C240.164 69.9434 240.668 69.3633 241.312 68.9473C241.963 68.5254 242.666 68.3145 243.422 68.3145C244.658 68.3145 245.619 68.7217 246.305 69.5361C246.99 70.3506 247.333 71.5166 247.333 73.0342V73.7109H240.891C240.914 74.6484 241.187 75.4072 241.708 75.9873C242.235 76.5615 242.903 76.8486 243.712 76.8486C244.286 76.8486 244.772 76.7314 245.171 76.4971C245.569 76.2627 245.918 75.9521 246.217 75.5654L247.21 76.3389C246.413 77.5635 245.218 78.1758 243.624 78.1758ZM243.422 69.6504C242.766 69.6504 242.215 69.8906 241.77 70.3711C241.324 70.8457 241.049 71.5137 240.943 72.375H245.707V72.252C245.66 71.4258 245.438 70.7871 245.039 70.3359C244.641 69.8789 244.102 69.6504 243.422 69.6504ZM252.237 75.7939L254.593 68.4902H256.254L252.844 78H251.604L248.159 68.4902H249.82L252.237 75.7939ZM259.585 78H257.959V68.4902H259.585V78ZM257.827 65.9678C257.827 65.7041 257.906 65.4814 258.064 65.2998C258.229 65.1182 258.469 65.0273 258.785 65.0273C259.102 65.0273 259.342 65.1182 259.506 65.2998C259.67 65.4814 259.752 65.7041 259.752 65.9678C259.752 66.2314 259.67 66.4512 259.506 66.627C259.342 66.8027 259.102 66.8906 258.785 66.8906C258.469 66.8906 258.229 66.8027 258.064 66.627C257.906 66.4512 257.827 66.2314 257.827 65.9678ZM266.01 76.8486C266.59 76.8486 267.097 76.6729 267.53 76.3213C267.964 75.9697 268.204 75.5303 268.251 75.0029H269.789C269.76 75.5479 269.572 76.0664 269.227 76.5586C268.881 77.0508 268.418 77.4434 267.838 77.7363C267.264 78.0293 266.654 78.1758 266.01 78.1758C264.715 78.1758 263.684 77.7451 262.916 76.8838C262.154 76.0166 261.773 74.833 261.773 73.333V73.0605C261.773 72.1348 261.943 71.3115 262.283 70.5908C262.623 69.8701 263.109 69.3105 263.742 68.9121C264.381 68.5137 265.134 68.3145 266.001 68.3145C267.067 68.3145 267.952 68.6338 268.655 69.2725C269.364 69.9111 269.742 70.7402 269.789 71.7598H268.251C268.204 71.1445 267.97 70.6406 267.548 70.248C267.132 69.8496 266.616 69.6504 266.001 69.6504C265.175 69.6504 264.533 69.9492 264.076 70.5469C263.625 71.1387 263.399 71.9971 263.399 73.1221V73.4297C263.399 74.5254 263.625 75.3691 264.076 75.9609C264.527 76.5527 265.172 76.8486 266.01 76.8486ZM275.563 78.1758C274.274 78.1758 273.226 77.7539 272.417 76.9102C271.608 76.0605 271.204 74.9268 271.204 73.5088V73.21C271.204 72.2666 271.383 71.4258 271.74 70.6875C272.104 69.9434 272.607 69.3633 273.252 68.9473C273.902 68.5254 274.605 68.3145 275.361 68.3145C276.598 68.3145 277.559 68.7217 278.244 69.5361C278.93 70.3506 279.272 71.5166 279.272 73.0342V73.7109H272.83C272.854 74.6484 273.126 75.4072 273.647 75.9873C274.175 76.5615 274.843 76.8486 275.651 76.8486C276.226 76.8486 276.712 76.7314 277.11 76.4971C277.509 76.2627 277.857 75.9521 278.156 75.5654L279.149 76.3389C278.353 77.5635 277.157 78.1758 275.563 78.1758ZM275.361 69.6504C274.705 69.6504 274.154 69.8906 273.709 70.3711C273.264 70.8457 272.988 71.5137 272.883 72.375H277.646V72.252C277.6 71.4258 277.377 70.7871 276.979 70.3359C276.58 69.8789 276.041 69.6504 275.361 69.6504ZM286.699 75.4775C286.699 75.0381 286.532 74.6982 286.198 74.458C285.87 74.2119 285.293 74.001 284.467 73.8252C283.646 73.6494 282.993 73.4385 282.507 73.1924C282.026 72.9463 281.669 72.6533 281.435 72.3135C281.206 71.9736 281.092 71.5693 281.092 71.1006C281.092 70.3213 281.42 69.6621 282.076 69.123C282.738 68.584 283.582 68.3145 284.607 68.3145C285.686 68.3145 286.559 68.5928 287.227 69.1494C287.9 69.7061 288.237 70.418 288.237 71.2852H286.603C286.603 70.8398 286.412 70.4561 286.031 70.1338C285.656 69.8115 285.182 69.6504 284.607 69.6504C284.016 69.6504 283.553 69.7793 283.219 70.0371C282.885 70.2949 282.718 70.6318 282.718 71.0479C282.718 71.4404 282.873 71.7363 283.184 71.9355C283.494 72.1348 284.054 72.3252 284.862 72.5068C285.677 72.6885 286.336 72.9053 286.84 73.1572C287.344 73.4092 287.716 73.7139 287.956 74.0713C288.202 74.4229 288.325 74.8535 288.325 75.3633C288.325 76.2129 287.985 76.8955 287.306 77.4111C286.626 77.9209 285.744 78.1758 284.66 78.1758C283.898 78.1758 283.225 78.041 282.639 77.7715C282.053 77.502 281.593 77.127 281.259 76.6465C280.931 76.1602 280.767 75.6357 280.767 75.0732H282.393C282.422 75.6182 282.639 76.0518 283.043 76.374C283.453 76.6904 283.992 76.8486 284.66 76.8486C285.275 76.8486 285.768 76.7256 286.137 76.4795C286.512 76.2275 286.699 75.8936 286.699 75.4775ZM304.611 76.3213C304.178 76.9424 303.571 77.4082 302.792 77.7188C302.019 78.0234 301.116 78.1758 300.085 78.1758C299.042 78.1758 298.116 77.9326 297.308 77.4463C296.499 76.9541 295.872 76.2568 295.427 75.3545C294.987 74.4521 294.762 73.4062 294.75 72.2168V71.1006C294.75 69.1729 295.198 67.6787 296.095 66.6182C296.997 65.5576 298.263 65.0273 299.892 65.0273C301.228 65.0273 302.303 65.3701 303.117 66.0557C303.932 66.7354 304.43 67.7021 304.611 68.9561H302.924C302.607 67.2627 301.6 66.416 299.9 66.416C298.77 66.416 297.911 66.8145 297.325 67.6113C296.745 68.4023 296.452 69.5508 296.446 71.0566V72.1025C296.446 73.5381 296.774 74.6807 297.431 75.5303C298.087 76.374 298.975 76.7959 300.094 76.7959C300.727 76.7959 301.28 76.7256 301.755 76.585C302.229 76.4443 302.622 76.207 302.933 75.873V72.999H299.971V71.6279H304.611V76.3213ZM306.747 73.1572C306.747 72.2256 306.929 71.3877 307.292 70.6436C307.661 69.8994 308.171 69.3252 308.821 68.9209C309.478 68.5166 310.225 68.3145 311.062 68.3145C312.357 68.3145 313.403 68.7627 314.2 69.6592C315.003 70.5557 315.404 71.748 315.404 73.2363V73.3506C315.404 74.2764 315.226 75.1084 314.868 75.8467C314.517 76.5791 314.01 77.1504 313.348 77.5605C312.691 77.9707 311.936 78.1758 311.08 78.1758C309.791 78.1758 308.745 77.7275 307.942 76.8311C307.146 75.9346 306.747 74.748 306.747 73.2715V73.1572ZM308.382 73.3506C308.382 74.4053 308.625 75.252 309.111 75.8906C309.604 76.5293 310.26 76.8486 311.08 76.8486C311.906 76.8486 312.562 76.5264 313.049 75.8818C313.535 75.2314 313.778 74.3232 313.778 73.1572C313.778 72.1143 313.529 71.2705 313.031 70.626C312.539 69.9756 311.883 69.6504 311.062 69.6504C310.26 69.6504 309.612 69.9697 309.12 70.6084C308.628 71.2471 308.382 72.1611 308.382 73.3506ZM327.779 78C327.686 77.8125 327.609 77.4785 327.551 76.998C326.795 77.7832 325.893 78.1758 324.844 78.1758C323.906 78.1758 323.136 77.9121 322.532 77.3848C321.935 76.8516 321.636 76.1777 321.636 75.3633C321.636 74.373 322.011 73.6055 322.761 73.0605C323.517 72.5098 324.577 72.2344 325.942 72.2344H327.524V71.4873C327.524 70.9189 327.354 70.4678 327.015 70.1338C326.675 69.7939 326.174 69.624 325.512 69.624C324.932 69.624 324.445 69.7705 324.053 70.0635C323.66 70.3564 323.464 70.7109 323.464 71.127H321.829C321.829 70.6523 321.996 70.1953 322.33 69.7559C322.67 69.3105 323.127 68.959 323.701 68.7012C324.281 68.4434 324.917 68.3145 325.608 68.3145C326.704 68.3145 327.562 68.5898 328.184 69.1406C328.805 69.6855 329.127 70.4385 329.15 71.3994V75.7764C329.15 76.6494 329.262 77.3438 329.484 77.8594V78H327.779ZM325.081 76.7607C325.591 76.7607 326.074 76.6289 326.531 76.3652C326.988 76.1016 327.319 75.7588 327.524 75.3369V73.3857H326.25C324.258 73.3857 323.262 73.9688 323.262 75.1348C323.262 75.6445 323.432 76.043 323.771 76.3301C324.111 76.6172 324.548 76.7607 325.081 76.7607ZM333.905 66.1875V68.4902H335.681V69.7471H333.905V75.6445C333.905 76.0254 333.984 76.3125 334.143 76.5059C334.301 76.6934 334.57 76.7871 334.951 76.7871C335.139 76.7871 335.396 76.752 335.725 76.6816V78C335.297 78.1172 334.881 78.1758 334.477 78.1758C333.75 78.1758 333.202 77.9561 332.833 77.5166C332.464 77.0771 332.279 76.4531 332.279 75.6445V69.7471H330.548V68.4902H332.279V66.1875H333.905ZM345.164 75.6182L347.379 68.4902H349.119L345.296 79.4678C344.704 81.0498 343.764 81.8408 342.475 81.8408L342.167 81.8145L341.561 81.7002V80.3818L342 80.417C342.551 80.417 342.979 80.3057 343.283 80.083C343.594 79.8604 343.849 79.4531 344.048 78.8613L344.408 77.8945L341.016 68.4902H342.791L345.164 75.6182ZM350.007 73.1572C350.007 72.2256 350.188 71.3877 350.552 70.6436C350.921 69.8994 351.431 69.3252 352.081 68.9209C352.737 68.5166 353.484 68.3145 354.322 68.3145C355.617 68.3145 356.663 68.7627 357.46 69.6592C358.263 70.5557 358.664 71.748 358.664 73.2363V73.3506C358.664 74.2764 358.485 75.1084 358.128 75.8467C357.776 76.5791 357.27 77.1504 356.607 77.5605C355.951 77.9707 355.195 78.1758 354.34 78.1758C353.051 78.1758 352.005 77.7275 351.202 76.8311C350.405 75.9346 350.007 74.748 350.007 73.2715V73.1572ZM351.642 73.3506C351.642 74.4053 351.885 75.252 352.371 75.8906C352.863 76.5293 353.52 76.8486 354.34 76.8486C355.166 76.8486 355.822 76.5264 356.309 75.8818C356.795 75.2314 357.038 74.3232 357.038 73.1572C357.038 72.1143 356.789 71.2705 356.291 70.626C355.799 69.9756 355.143 69.6504 354.322 69.6504C353.52 69.6504 352.872 69.9697 352.38 70.6084C351.888 71.2471 351.642 72.1611 351.642 73.3506ZM366.574 77.0596C365.941 77.8037 365.013 78.1758 363.788 78.1758C362.774 78.1758 362.001 77.8828 361.468 77.2969C360.94 76.7051 360.674 75.832 360.668 74.6777V68.4902H362.294V74.6338C362.294 76.0752 362.88 76.7959 364.052 76.7959C365.294 76.7959 366.12 76.333 366.53 75.4072V68.4902H368.156V78H366.609L366.574 77.0596ZM375.231 69.9492C374.985 69.9082 374.719 69.8877 374.432 69.8877C373.365 69.8877 372.642 70.3418 372.261 71.25V78H370.635V68.4902H372.217L372.243 69.5889C372.776 68.7393 373.532 68.3145 374.511 68.3145C374.827 68.3145 375.067 68.3555 375.231 68.4375V69.9492ZM0.799805 94.1572C0.799805 93.2256 0.981445 92.3877 1.34473 91.6436C1.71387 90.8994 2.22363 90.3252 2.87402 89.9209C3.53027 89.5166 4.27734 89.3145 5.11523 89.3145C6.41016 89.3145 7.45605 89.7627 8.25293 90.6592C9.05566 91.5557 9.45703 92.748 9.45703 94.2363V94.3506C9.45703 95.2764 9.27832 96.1084 8.9209 96.8467C8.56934 97.5791 8.0625 98.1504 7.40039 98.5605C6.74414 98.9707 5.98828 99.1758 5.13281 99.1758C3.84375 99.1758 2.79785 98.7275 1.99512 97.8311C1.19824 96.9346 0.799805 95.748 0.799805 94.2715V94.1572ZM2.43457 94.3506C2.43457 95.4053 2.67773 96.252 3.16406 96.8906C3.65625 97.5293 4.3125 97.8486 5.13281 97.8486C5.95898 97.8486 6.61523 97.5264 7.10156 96.8818C7.58789 96.2314 7.83105 95.3232 7.83105 94.1572C7.83105 93.1143 7.58203 92.2705 7.08398 91.626C6.5918 90.9756 5.93555 90.6504 5.11523 90.6504C4.3125 90.6504 3.66504 90.9697 3.17285 91.6084C2.68066 92.2471 2.43457 93.1611 2.43457 94.3506ZM19.916 96.7588L21.7441 89.4902H23.3701L20.6016 99H19.2832L16.9717 91.793L14.7217 99H13.4033L10.6436 89.4902H12.2607L14.1328 96.6094L16.3477 89.4902H17.6572L19.916 96.7588ZM26.5693 89.4902L26.6221 90.6855C27.3486 89.7715 28.2979 89.3145 29.4697 89.3145C31.4795 89.3145 32.4932 90.4482 32.5107 92.7158V99H30.8848V92.707C30.8789 92.0215 30.7207 91.5146 30.4102 91.1865C30.1055 90.8584 29.6279 90.6943 28.9775 90.6943C28.4502 90.6943 27.9873 90.835 27.5889 91.1162C27.1904 91.3975 26.8799 91.7666 26.6572 92.2236V99H25.0312V89.4902H26.5693ZM47.4609 94.3506C47.4609 95.7979 47.1299 96.9639 46.4678 97.8486C45.8057 98.7334 44.9092 99.1758 43.7783 99.1758C42.624 99.1758 41.7158 98.8096 41.0537 98.0771V102.656H39.4277V89.4902H40.9131L40.9922 90.5449C41.6543 89.7246 42.5742 89.3145 43.752 89.3145C44.8945 89.3145 45.7969 89.7451 46.459 90.6064C47.127 91.4678 47.4609 92.666 47.4609 94.2012V94.3506ZM45.835 94.166C45.835 93.0938 45.6064 92.2471 45.1494 91.626C44.6924 91.0049 44.0654 90.6943 43.2686 90.6943C42.2842 90.6943 41.5459 91.1309 41.0537 92.0039V96.5479C41.54 97.415 42.2842 97.8486 43.2861 97.8486C44.0654 97.8486 44.6836 97.541 45.1406 96.9258C45.6035 96.3047 45.835 95.3848 45.835 94.166ZM55.4062 99C55.3125 98.8125 55.2363 98.4785 55.1777 97.998C54.4219 98.7832 53.5195 99.1758 52.4707 99.1758C51.5332 99.1758 50.7627 98.9121 50.1592 98.3848C49.5615 97.8516 49.2627 97.1777 49.2627 96.3633C49.2627 95.373 49.6377 94.6055 50.3877 94.0605C51.1436 93.5098 52.2041 93.2344 53.5693 93.2344H55.1514V92.4873C55.1514 91.9189 54.9814 91.4678 54.6416 91.1338C54.3018 90.7939 53.8008 90.624 53.1387 90.624C52.5586 90.624 52.0723 90.7705 51.6797 91.0635C51.2871 91.3564 51.0908 91.7109 51.0908 92.127H49.4561C49.4561 91.6523 49.623 91.1953 49.957 90.7559C50.2969 90.3105 50.7539 89.959 51.3281 89.7012C51.9082 89.4434 52.5439 89.3145 53.2354 89.3145C54.3311 89.3145 55.1895 89.5898 55.8105 90.1406C56.4316 90.6855 56.7539 91.4385 56.7773 92.3994V96.7764C56.7773 97.6494 56.8887 98.3438 57.1113 98.8594V99H55.4062ZM52.708 97.7607C53.2178 97.7607 53.7012 97.6289 54.1582 97.3652C54.6152 97.1016 54.9463 96.7588 55.1514 96.3369V94.3857H53.877C51.8848 94.3857 50.8887 94.9688 50.8887 96.1348C50.8887 96.6445 51.0586 97.043 51.3984 97.3301C51.7383 97.6172 52.1748 97.7607 52.708 97.7607ZM63.1406 97.8486C63.7207 97.8486 64.2275 97.6729 64.6611 97.3213C65.0947 96.9697 65.335 96.5303 65.3818 96.0029H66.9199C66.8906 96.5479 66.7031 97.0664 66.3574 97.5586C66.0117 98.0508 65.5488 98.4434 64.9688 98.7363C64.3945 99.0293 63.7852 99.1758 63.1406 99.1758C61.8457 99.1758 60.8145 98.7451 60.0469 97.8838C59.2852 97.0166 58.9043 95.833 58.9043 94.333V94.0605C58.9043 93.1348 59.0742 92.3115 59.4141 91.5908C59.7539 90.8701 60.2402 90.3105 60.873 89.9121C61.5117 89.5137 62.2646 89.3145 63.1318 89.3145C64.1982 89.3145 65.083 89.6338 65.7861 90.2725C66.4951 90.9111 66.873 91.7402 66.9199 92.7598H65.3818C65.335 92.1445 65.1006 91.6406 64.6787 91.248C64.2627 90.8496 63.7471 90.6504 63.1318 90.6504C62.3057 90.6504 61.6641 90.9492 61.207 91.5469C60.7559 92.1387 60.5303 92.9971 60.5303 94.1221V94.4297C60.5303 95.5254 60.7559 96.3691 61.207 96.9609C61.6582 97.5527 62.3027 97.8486 63.1406 97.8486ZM72.6943 99.1758C71.4053 99.1758 70.3564 98.7539 69.5479 97.9102C68.7393 97.0605 68.335 95.9268 68.335 94.5088V94.21C68.335 93.2666 68.5137 92.4258 68.8711 91.6875C69.2344 90.9434 69.7383 90.3633 70.3828 89.9473C71.0332 89.5254 71.7363 89.3145 72.4922 89.3145C73.7285 89.3145 74.6895 89.7217 75.375 90.5361C76.0605 91.3506 76.4033 92.5166 76.4033 94.0342V94.7109H69.9609C69.9844 95.6484 70.2568 96.4072 70.7783 96.9873C71.3057 97.5615 71.9736 97.8486 72.7822 97.8486C73.3564 97.8486 73.8428 97.7314 74.2412 97.4971C74.6396 97.2627 74.9883 96.9521 75.2871 96.5654L76.2803 97.3389C75.4834 98.5635 74.2881 99.1758 72.6943 99.1758ZM72.4922 90.6504C71.8359 90.6504 71.2852 90.8906 70.8398 91.3711C70.3945 91.8457 70.1191 92.5137 70.0137 93.375H74.7773V93.252C74.7305 92.4258 74.5078 91.7871 74.1094 91.3359C73.7109 90.8789 73.1719 90.6504 72.4922 90.6504ZM78.3281 98.1475C78.3281 97.8662 78.4102 97.6318 78.5742 97.4443C78.7441 97.2568 78.9961 97.1631 79.3301 97.1631C79.6641 97.1631 79.916 97.2568 80.0859 97.4443C80.2617 97.6318 80.3496 97.8662 80.3496 98.1475C80.3496 98.417 80.2617 98.6426 80.0859 98.8242C79.916 99.0059 79.6641 99.0967 79.3301 99.0967C78.9961 99.0967 78.7441 99.0059 78.5742 98.8242C78.4102 98.6426 78.3281 98.417 78.3281 98.1475Z" fill="#686868"/>
</svg>
